SplineFontDB: 3.0
FontName: IndictionUnicode
FullName: Indiction Unicode
FamilyName: Indiction Unicode
Weight: Normal
Copyright: Copyright (c) Vladislav V. Dorosh, Calmius Software, 1996-98, 2002\nDistributed as Indyction UCS as part of CSLTeX, licensed under the LaTeX Project Public License.\nReencoded for Unicode and edited by Aleksandr Andreev, Slavonic Computing Initiative, 2016.\nDistributed as Indiction Unicode under the SIL Open Font License.\n
Version: 001.003
ItalicAngle: 0
UnderlinePosition: -56
UnderlineWidth: 12
Ascent: 800
Descent: 200
InvalidEm: 0
LayerCount: 2
Layer: 0 0 "Back" 1
Layer: 1 0 "Fore" 0
UniqueID: 4777009
FSType: 0
OS2Version: 0
OS2_WeightWidthSlopeOnly: 0
OS2_UseTypoMetrics: 0
CreationTime: 1291760394
ModificationTime: 1558940780
PfmFamily: 17
TTFWeight: 500
TTFWidth: 5
LineGap: 60
VLineGap: 0
OS2TypoAscent: 0
OS2TypoAOffset: 1
OS2TypoDescent: 0
OS2TypoDOffset: 1
OS2TypoLinegap: 60
OS2WinAscent: 0
OS2WinAOffset: 1
OS2WinDescent: 0
OS2WinDOffset: 1
HheadAscent: 0
HheadAOffset: 1
HheadDescent: 0
HheadDOffset: 1
OS2Vendor: 'PfEd'
Lookup: 4 0 0 "'ccmp' Canonical Composition and Decomposition" { "'ccmp' Canonical Composition and Decomposition-1"  } ['ccmp' ('DFLT' <'dflt' > 'cyrl' <'dflt' > 'latn' <'dflt' > ) ]
Lookup: 4 0 0 "'ccmp' Precomposed Forms" { "'ccmp' Precomposed Forms-1"  } ['ccmp' ('DFLT' <'dflt' > 'cyrl' <'dflt' > 'latn' <'dflt' > ) ]
Lookup: 260 0 0 "'mark' Mark Positioning lookup 1" { "'mark' Mark Positioning lookup 1-1"  } ['mark' ('DFLT' <'dflt' > 'cyrl' <'dflt' > 'latn' <'dflt' > ) ]
Lookup: 262 0 0 "'mkmk' Mark to Mark lookup 0" { "'mkmk' Mark to Mark lookup 0-1"  } ['mkmk' ('DFLT' <'dflt' > 'cyrl' <'dflt' > 'latn' <'dflt' > ) ]
MarkAttachClasses: 1
DEI: 91125
ShortTable: maxp 16
  0
  0
  0
  0
  0
  0
  0
  2
  1
  2
  22
  0
  256
  0
  0
  0
EndShort
TtTable: prep
PUSHW_1
 511
SCANCTRL
PUSHB_1
 1
SCANTYPE
SVTCA[y-axis]
MPPEM
PUSHB_1
 8
LT
IF
PUSHB_2
 1
 1
INSTCTRL
EIF
PUSHB_2
 70
 6
CALL
IF
POP
PUSHB_1
 16
EIF
MPPEM

StartChar: .notdef
Encoding: 1114112 -1 0
Width: 983
VWidth: 800
Flags: W
HStem: 48 50<374 609> 886 47<377 608>
VStem: 49 50<372 608> 887 47<376 608>
DStem2: 196 233 230 198 0.706089 0.708123<0 785.667>
LayerCount: 2
Fore
SplineSet
934.4 490.4 m 0
 934.4 247.2 736 48 491.2 48 c 0
 248 48 48.7998 246.4 48.7998 491.2 c 0
 48.7998 734.4 248 932.8 490.4 932.8 c 1
 493.6 932.8 l 2
 736 932.8 934.4 733.6 934.4 490.4 c 0
751.2 788.8 m 1
 682.4 848.8 591.2 885.6 492.8 885.6 c 0
 275.2 885.6 98.4004 708.8 98.4004 492 c 0
 98.4004 392 134.4 301.6 196 232.8 c 1
 751.2 788.8 l 1
887.2 492 m 0
 887.2 592.8 848.8 684 785.6 754.4 c 1
 771.2 739.2 494.4 469.6 230.4 197.6 c 1
 299.2 134.4 392 97.5996 492.8 97.5996 c 0
 709.6 97.5996 887.2 274.4 887.2 492 c 0
EndSplineSet
Validated: 1
EndChar

StartChar: C
Encoding: 67 67 3
Width: 787
VWidth: 1240
Flags: W
HStem: -12 50<347.741 566.026> 770 46<339.439 549.344>
VStem: 46 113<275.187 525.021> 702 41<559.897 615.438>
LayerCount: 2
Fore
SplineSet
46 384 m 0
 46 620 208 816 444 816 c 0
 597 816 652 760 715 760 c 1
 727 692 737 632 743 568 c 1
 733 563 724 559 715 559 c 0
 710 559 707 561 702 562 c 1
 670 669 601 770 430 770 c 0
 366 770 294 736 232 660 c 0
 187 604 159 515 159 408 c 0
 159 227 274 38 441 38 c 0
 556 38 641 77 729 174 c 1
 743 174 752 166 758 155 c 1
 674 45 563 -12 443 -12 c 0
 176 -12 46 168 46 384 c 0
EndSplineSet
Validated: 19457
EndChar

StartChar: D
Encoding: 68 68 4
Width: 837
VWidth: 1240
Flags: W
HStem: 0 40<17.1367 111.582 255.457 512.452> 760 42<17.0022 112.976 256.614 463.702>
VStem: 131 106<57.375 740.599> 697 119<241.644 505.846>
LayerCount: 2
Fore
SplineSet
237 104 m 2
 237 64 250 40 372 40 c 0
 547 40 697 102 697 352 c 0
 697 543 609 760 341 760 c 0
 280 760 237 742 237 699 c 2
 237 104 l 2
184 800 m 0
 232 800 300 802 388 802 c 0
 626 802 816 613 816 382 c 0
 816 77 585 0 410 0 c 0
 282 0 231 0 185 0 c 0
 138 0 72 -1 24 -2 c 1
 20 2 17 10 17 17 c 0
 17 26 20 34 24 38 c 1
 111 42 131 48 131 151 c 2
 131 649 l 2
 131 752 111 757 24 761 c 1
 20 765 17 774 17 781 c 0
 17 790 20 798 24 802 c 1
 74 801 139 800 184 800 c 0
EndSplineSet
Validated: 19457
EndChar

StartChar: E
Encoding: 69 69 5
Width: 671
VWidth: 1240
Flags: W
HStem: 0 48<248.146 526.224> 0 38<17.0193 107.081> 401 47<236 442.375> 750 50<249.245 490.675> 761 41<17.003 110.105>
VStem: 130 106<60.312 401 448 736.037> 461 41<310.006 380.815 462.766 537.994> 551 40<615 669.217> 611 44<151.854 211.652>
LayerCount: 2
Fore
SplineSet
387 448 m 2x3780
 453 448 459 485 459 506 c 0
 459 510 458 514 458 515 c 0
 458 517 458 518 459 518 c 0
 460 518 461 522 461 532 c 1
 465 536 474 538 481 538 c 0
 490 538 498 536 502 532 c 1
 501 502 500 460 500 425 c 0
 500 383 501 348 502 316 c 1
 498 312 490 310 481 310 c 0
 474 310 465 312 461 316 c 1
 457 372 453 401 348 401 c 2
 236 401 l 1
 236 126 l 2
 236 68 253 48 305 48 c 2
 449 48 l 2xb780
 543 48 586 122 611 211 c 1
 616 212 621 212 626 212 c 0
 636 212 646 210 655 205 c 1
 645 142 626 62 609 0 c 1
 22 0 l 1
 18 4 17 10 17 17 c 0
 17 26 18 34 22 38 c 1
 109 42 130 48 130 151 c 2
 130 649 l 2
 130 752 109 757 22 761 c 1
 18 765 17 774 17 781 c 0
 17 790 18 798 22 802 c 1x6f80
 72 801 144 800 182 800 c 2
 498 800 l 2
 528 800 538 801 559 805 c 0
 563 805 564 803 564 801 c 0
 566 791 585 672 591 621 c 1
 582 616 573 614 562 614 c 0
 558 614 555 615 551 615 c 1
 524 701 503 750 410 750 c 2
 317 750 l 2
 250 750 236 726 236 671 c 2
 236 448 l 1
 387 448 l 2x3780
EndSplineSet
Validated: 19457
EndChar

StartChar: G
Encoding: 71 71 6
Width: 855
VWidth: 1240
Flags: W
HStem: -12 44<362.936 615.862> 329 44<551.001 644.121 772.995 825.999> 771 45<358.871 570.639>
VStem: 46 119<270.427 520.938> 657 106<91.5142 313.625> 713 41<563.232 616.236>
LayerCount: 2
Fore
SplineSet
467 816 m 0xf8
 605 816 651 772 725 760 c 1
 745 671 754 621 754 569 c 1
 742 564 730 562 718 562 c 0
 717 562 714 562 713 562 c 1xf4
 681 669 630 771 450 771 c 0
 305 771 165 622 165 405 c 0
 165 241 269 32 465 32 c 0
 532 32 615 39 657 79 c 1
 657 269 l 2
 657 319 624 324 556 329 c 1
 552 333 551 342 551 351 c 0
 551 360 552 369 556 373 c 1
 611 372 667 371 709 371 c 0
 759 371 790 372 820 373 c 1
 824 369 826 360 826 351 c 0
 826 342 824 333 820 329 c 1
 784 325 763 312 763 269 c 2
 763 125 l 2
 763 111 768 102 782 91 c 1
 698 19 582 -12 436 -12 c 0
 199 -12 46 158 46 381 c 0
 46 654 260 816 467 816 c 0xf8
EndSplineSet
Validated: 19457
EndChar

StartChar: H
Encoding: 72 72 7
Width: 902
VWidth: 1240
Flags: W
HStem: -2 40<17.0196 110.125 258.375 349.993 548.007 639.625 787.375 879.987> 398 52<237 661> 761 41<17.0087 111.582 256.895 349.997 548.003 641.105 785.895 879.994>
VStem: 131 106<57.375 398 450 742.125> 661 105<57.375 398 450 742.125>
LayerCount: 2
Fore
SplineSet
766 151 m 2
 766 48 787 42 874 38 c 1
 878 34 880 26 880 17 c 0
 880 10 878 2 874 -2 c 1
 819 -1 760 0 714 0 c 0
 668 0 609 -1 553 -2 c 1
 549 2 548 10 548 17 c 0
 548 26 549 34 553 38 c 1
 640 42 661 48 661 151 c 6
 661 398 l 5
 237 398 l 1
 237 151 l 2
 237 48 258 42 345 38 c 1
 349 34 350 26 350 17 c 0
 350 10 349 2 345 -2 c 1
 290 -1 230 0 185 0 c 0
 138 0 79 -1 24 -2 c 1
 20 2 17 10 17 17 c 0
 17 26 20 34 24 38 c 1
 111 42 131 48 131 151 c 2
 131 649 l 2
 131 752 111 757 24 761 c 1
 20 765 17 774 17 781 c 0
 17 790 20 798 24 802 c 1
 71 801 122 800 184 800 c 0
 247 800 298 801 345 802 c 1
 349 798 350 790 350 781 c 0
 350 774 349 765 345 761 c 1
 258 757 237 752 237 649 c 2
 237 450 l 1
 661 450 l 1
 661 649 l 2
 661 752 640 757 553 761 c 1
 549 765 548 774 548 781 c 0
 548 790 549 798 553 802 c 1
 608 801 667 800 713 800 c 0
 760 800 823 801 874 802 c 1
 878 798 880 790 880 781 c 0
 880 774 878 765 874 761 c 1
 787 757 766 752 766 649 c 2
 766 151 l 2
EndSplineSet
Validated: 19457
EndChar

StartChar: I
Encoding: 73 73 8
Width: 365
VWidth: 1240
Flags: W
HStem: -2 40<17.0196 110.125 258.375 349.993> 761 41<17.0087 111.582 256.895 349.997>
VStem: 131 106<57.375 742.125>
LayerCount: 2
Fore
SplineSet
237 151 m 2
 237 48 258 42 345 38 c 1
 349 34 350 26 350 17 c 0
 350 10 349 2 345 -2 c 1
 289 -1 230 0 185 0 c 0
 140 0 80 -1 24 -2 c 1
 20 2 17 10 17 17 c 0
 17 26 20 34 24 38 c 1
 111 42 131 48 131 151 c 2
 131 649 l 2
 131 752 111 757 24 761 c 1
 20 765 17 774 17 781 c 0
 17 790 20 798 24 802 c 1
 82 801 142 800 184 800 c 0
 231 800 290 801 345 802 c 1
 349 798 350 790 350 781 c 0
 350 774 349 765 345 761 c 1
 258 757 237 752 237 649 c 2
 237 151 l 2
EndSplineSet
Validated: 19457
EndChar

StartChar: J
Encoding: 74 74 9
Width: 410
VWidth: 1240
Flags: W
HStem: -213 56<-4.5 109.291> 761 41<50.003 153.741 298.894 381.994>
VStem: 175 105<-13.7954 740.717>
LayerCount: 2
Fore
SplineSet
280 649 m 2
 280 128 l 2
 280 -49 209 -114 154 -160 c 0
 103 -203 65 -213 9 -213 c 0
 -18 -213 -84 -191 -84 -146 c 0
 -84 -119 -47 -93 -30 -93 c 0
 1 -93 13 -109 20 -124 c 0
 29 -143 45 -157 69 -157 c 0
 110 -157 175 -123 175 100 c 2
 175 649 l 2
 175 752 154 757 55 761 c 1
 51 765 50 774 50 781 c 0
 50 790 51 798 55 802 c 1
 117 801 182 800 227 800 c 0
 275 800 329 801 376 802 c 1
 380 798 382 790 382 781 c 0
 382 774 380 765 376 761 c 1
 302 757 280 752 280 649 c 2
EndSplineSet
Validated: 19457
EndChar

StartChar: K
Encoding: 75 75 10
Width: 799
VWidth: 1240
Flags: W
HStem: 0 38<17.054 108.605 259.919 349.981 707.992 783.946> 383 47<237 302.862> 761 41<17.0087 111.582 256.895 349.997 498.009 562.5 670.01 768.994>
VStem: 131 106<57.375 383 430 742.125>
LayerCount: 2
Fore
SplineSet
237 151 m 2
 237 48 258 42 345 38 c 1
 349 34 350 26 350 17 c 0
 350 10 349 4 345 0 c 1
 326 0 308 0 289 0 c 0
 252 0 216 0 185 0 c 0
 137 0 80 -1 24 -2 c 1
 20 2 17 10 17 17 c 0
 17 26 20 34 24 38 c 1
 111 42 131 48 131 151 c 2
 131 649 l 2
 131 752 111 757 24 761 c 1
 20 765 17 774 17 781 c 0
 17 790 20 798 24 802 c 1
 80 801 137 800 184 800 c 0
 229 800 288 801 345 802 c 1
 349 798 350 790 350 781 c 0
 350 774 349 765 345 761 c 1
 258 757 237 752 237 649 c 2
 237 430 l 1
 280 434 309 450 335 479 c 2
 539 697 l 2
 556 716 563 728 563 737 c 0
 563 756 535 759 505 761 c 1
 501 765 498 774 498 781 c 0
 498 790 501 798 505 802 c 1
 551 801 599 800 645 800 c 0
 685 800 725 801 763 802 c 1
 767 798 769 790 769 781 c 0
 769 774 767 765 763 761 c 1
 713 757 663 753 606 692 c 1
 424 505 l 2
 382 462 381 453 381 444 c 0
 381 434 387 424 397 413 c 2
 668 91 l 2
 706 46 741 42 777 38 c 1
 781 34 784 26 784 17 c 0
 784 10 781 2 777 -2 c 1
 736 -1 694 0 652 0 c 0
 626 0 610 -1 585 -2 c 0
 580 -2 579 1 579 5 c 0
 577 25 559 59 534 91 c 2
 340 336 l 2
 315 368 279 382 237 383 c 1
 237 151 l 2
EndSplineSet
Validated: 19457
EndChar

StartChar: L
Encoding: 76 76 11
Width: 644
VWidth: 1240
Flags: W
HStem: -2 40<17.0196 110.125> 0 48<253.416 489.759> 761 41<17.0087 111.582 256.895 349.997>
VStem: 131 106<64.1788 742.125> 588 41<157.662 211>
LayerCount: 2
Fore
SplineSet
185 0 m 2x78
 143 0 72 -1 24 -2 c 1
 20 2 17 10 17 17 c 0
 17 26 20 34 24 38 c 1xb8
 111 42 131 48 131 151 c 2
 131 649 l 2
 131 752 111 757 24 761 c 1
 20 765 17 774 17 781 c 0
 17 790 20 798 24 802 c 1
 81 801 139 800 184 800 c 0
 231 800 289 801 345 802 c 1
 349 798 350 790 350 781 c 0
 350 774 349 765 345 761 c 1
 258 757 237 752 237 649 c 2
 237 135 l 2
 237 72 260 48 308 48 c 2
 386 48 l 2x78
 517 48 563 122 588 211 c 1
 592 211 595 212 599 212 c 0
 610 212 620 210 629 205 c 1
 622 141 608 60 596 -2 c 1xb8
 596 -2 482 0 449 0 c 2
 185 0 l 2x78
EndSplineSet
Validated: 19457
EndChar

StartChar: N
Encoding: 78 78 12
Width: 877
VWidth: 1240
Flags: W
HStem: -12 21G<712 730.5> 0 38<12.054 96.8647 214.943 299.981> 761 41<22.0087 82.9507 575.009 664.113 777.943 862.997>
VStem: 126 61<63.625 604.986> 689 61<192.007 735.288>
LayerCount: 2
Fore
SplineSet
687 637 m 2x78
 687 751 669 752 582 761 c 1
 578 765 575 774 575 781 c 0
 575 790 578 798 582 802 c 1
 637 801 693 800 719 800 c 0
 749 800 807 801 858 802 c 1
 862 798 863 790 863 781 c 0
 863 774 862 765 858 761 c 1
 771 752 750 745 750 635 c 2
 750 26 l 2
 750 2 739 -12 722 -12 c 0xb8
 702 -12 686 -2 672 17 c 2
 239 564 l 2
 218 591 204 605 197 605 c 0
 187 605 187 586 187 544 c 2
 187 165 l 2
 187 52 208 47 295 38 c 1
 299 34 300 26 300 17 c 0
 300 10 299 4 295 0 c 1
 278 0 260 0 243 0 c 0
 208 0 176 0 157 0 c 0
 137 0 107 0 72 0 c 0
 55 0 36 0 19 0 c 1
 15 4 12 10 12 17 c 0
 12 26 15 34 19 38 c 1
 106 47 126 55 126 165 c 2
 126 682 l 1
 119 714 82 757 29 761 c 1
 25 765 22 774 22 781 c 0
 22 790 25 798 29 802 c 1
 196 800 l 1
 621 260 l 2
 657 214 676 192 681 192 c 0
 688 192 689 201 689 217 c 0
 689 221 689 225 689 229 c 2
 687 637 l 2x78
EndSplineSet
Validated: 19457
EndChar

StartChar: R
Encoding: 82 82 13
Width: 751
VWidth: 1240
Flags: W
HStem: -12 38<672.546 727.431> -2 40<15.0132 107.625 255.375 346.993> 361 42<234 352.755> 766 42<15.3296 102.798 258.528 429.359>
VStem: 129 105<57.375 361 403 741.416> 502 114<503.271 690.442>
LayerCount: 2
Fore
SplineSet
337 766 m 0x3c
 249 766 234 723 234 687 c 2
 234 403 l 1
 294 403 l 2
 414 403 502 438 502 593 c 0
 502 739 413 766 337 766 c 0x3c
234 151 m 2
 234 48 255 42 342 38 c 1
 346 34 347 26 347 17 c 0
 347 10 346 2 342 -2 c 1
 287 -1 229 0 182 0 c 0
 134 0 77 -1 21 -2 c 1
 17 2 15 10 15 17 c 0
 15 26 17 34 21 38 c 1x7c
 108 42 129 48 129 151 c 2
 129 649 l 2
 129 752 108 757 21 761 c 1
 17 765 15 774 15 781 c 0
 15 790 17 798 21 802 c 1
 79 801 138 800 181 800 c 0
 226 800 278 808 336 808 c 0
 414 808 491 805 551 749 c 0
 596 707 616 656 616 594 c 0
 616 464 504 399 451 382 c 1
 608 122 l 2
 640 69 671 26 727 26 c 1
 729 21 730 15 730 9 c 0
 730 5 730 0 728 -4 c 1
 716 -10 695 -12 676 -12 c 0xbc
 602 -12 548 40 512 98 c 2
 379 314 l 2
 362 343 338 361 234 361 c 1
 234 151 l 2
EndSplineSet
Validated: 19457
EndChar

StartChar: S
Encoding: 83 83 14
Width: 582
VWidth: 1240
Flags: W
HStem: -12 44<182.776 380.965> 774 42<220.492 378.786>
VStem: 33 41<147.262 210.881> 63 88<566.609 694.804> 446 105<134.595 270.514> 471 40<614.406 667.341>
LayerCount: 2
Fore
SplineSet
486 785 m 1xd8
 498 719 507 682 511 622 c 1
 504 616 494 614 484 614 c 0
 479 614 475 614 471 615 c 1
 446 697 408 774 288 774 c 0
 215 774 151 704 151 635 c 0xd4
 151 531 276 483 350 456 c 0
 452 418 551 359 551 228 c 0
 551 149 506 74 434 29 c 0
 391 2 337 -12 281 -12 c 0
 171 -12 136 16 58 16 c 1
 43 77 38 110 33 205 c 1
 40 209 48 211 57 211 c 0
 63 211 68 209 74 208 c 1xe8
 101 84 176 32 291 32 c 0
 390 32 446 85 446 185 c 0
 446 307 354 341 280 370 c 0
 171 412 63 471 63 601 c 0
 63 732 174 816 299 816 c 0
 421 816 414 795 486 785 c 1xd8
EndSplineSet
Validated: 19457
EndChar

StartChar: uniA64A
Encoding: 42570 42570 15
Width: 603
VWidth: 800
GlyphClass: 2
Flags: W
HStem: -8 5<285 301> -6 8<166 232 366 437> 9 50<323 443> 10 40<180 274> 58 6<207 246> 66 5<367 410> 87 64<83 166 465 549> 101 54<128 179 451 505> 101 6<347 384> 105 4<301 315> 117 15<346 370> 121 17<254 280 378 380> 140 10<254 273> 159 6<204 233> 213 5<377 416> 221 6<230 269> 227 33<371 445> 234 33<197 277> 268 6<402 462> 276 7<183 249> 370 4<281 295> 377 8<199 251> 391 7<304 312> 392 122<195 242> 398 71<313 404> 398 43<286 388> 531 6<147 164> 543 39<134 176> 586 56<130 207> 642 11<442 465> 668 34<432 476> 682 5<233 243> 699 3<563 571> 730 4<565 574> 756 22<48 66> 785 6<60 124> 800 6<203 251 446 471> 809 4<141 156> 834 6<509 533>
VStem: 54 7<112 149> 69 111<101 151> 85 78<161 203> 100 6<601 628> 116 6<559 586> 131 5<788 805> 162 5<792 804> 171 6<160 177> 175 40<683 747> 180 6<414 471> 186 6<111 145> 194 46<432 500> 198 6<144 160> 226 6<687 731> 262 2<555 558> 270 5<379 388> 275 6<-0 13> 284 6<587 622> 300 5<378 393> 306 6<1 14> 318 4<112 117> 322 29<160 183> 361 5<187 208> 407 6<130 150> 428 6<428 467> 437 6<115 144> 449 116<104 147> 470 6<583 631> 484 25<580 648> 494 24<542 573> 520 36<593 690> 526 6<508 543> 542 10<713 722> 565 6<635 683 742 800> 572 6<118 149> 578 5<709 725>
DStem2: 290 263 294 257 0.177042 0.984203<0 129.944 225.039 472.598> 305 270 357 270 0.179418 0.983773<-46.0503 10.1167 218.607 405.682> 363 257 370 262 0.177153 0.984183<5.85785 135.224 240.923 383.177> 561 158 566 160 0.0995037 0.995037<1.60318 20.5623>
AnchorPoint: "Diacritic" 339 891 basechar 0
LayerCount: 2
Fore
SplineSet
159.2 788.8 m 1
 160.8 791.2 161.6 793.6 161.6 796.8 c 0
 161.6 803.2 156 808.8 148.8 808.8 c 0
 140.8 808.8 136 802.4 136 796 c 0
 136 791.2 138.4 787.2 141.6 784.8 c 1
 144.8 784 147.2 783.2 149.6 782.4 c 1
 152 784.8 155.2 786.4 159.2 788.8 c 1
554.4 728.8 m 1
 563.2 740.8 567.2 756 567.2 771.2 c 0
 567.2 802.4 548.8 833.6 517.6 833.6 c 0
 515.2 833.6 512 833.6 509.6 832.8 c 1
 498.4 792.8 452.8 808.8 416 785.6 c 0
 380.8 764 368.8 668 367.2 660.8 c 2
 332.8 480 l 1
 304 480 282.4 516.8 268 568 c 0
 268 570.4 268 571.2 268.8 572 c 0
 279.2 579.2 284 592 284 604 c 0
 284 617.6 278.4 630.4 268 635.2 c 0
 265.6 636 265.6 636.8 265.6 639.2 c 0
 265.6 640.8 265.6 643.2 265.6 644.8 c 0
 265.6 664.8 250.4 682.4 231.2 682.4 c 0
 230.4 682.4 230.4 682.4 229.6 682.4 c 0
 226.4 692.8 225.6 702.4 225.6 711.2 c 0
 225.6 744.8 244 769.6 274.4 780 c 1
 267.2 794.4 248.8 800 228.8 800 c 0
 200 800 165.6 788 150.4 776 c 1
 134.4 780.8 111.2 784.8 88.7998 784.8 c 0
 57.5996 784.8 28 776.8 26.4004 750.4 c 1
 81.5996 740 104.8 692 122.4 649.6 c 0
 123.2 648 123.2 647.2 120.8 645.6 c 0
 110.4 640 105.6 628 105.6 616.8 c 0
 105.6 604 111.2 592 123.2 589.6 c 0
 126.4 589.6 126.4 588 124.8 584.8 c 0
 123.2 581.6 122.4 577.6 122.4 573.6 c 0
 122.4 556 141.6 536.8 160 536.8 c 0
 161.6 536.8 163.2 537.6 164.8 537.6 c 0
 166.4 537.6 167.2 537.6 168 536 c 0
 179.2 497.6 185.6 464 185.6 438.4 c 0
 185.6 421.6 183.2 408 176.8 400 c 1
 189.6 389.6 206.4 384.8 224 384.8 c 0
 246.4 384.8 268.8 392.8 284.8 406.4 c 0
 285.6 407.2 287.2 407.2 288 406.4 c 0
 294.4 402.4 309.6 398.4 316 398.4 c 0
 318.4 398.4 318.4 396.8 318.4 394.4 c 2
 294.4 256.8 l 2
 293.6 253.6 291.2 252.8 289.6 254.4 c 0
 269.6 269.6 244 276 217.6 276 c 0
 155.2 276 87.2002 235.2 76 161.6 c 1
 67.2002 156 61.5996 143.2 61.5996 129.6 c 0
 61.5996 117.6 66.4004 105.6 76 100 c 1
 92 34.4004 141.6 2.40039 199.2 2.40039 c 0
 229.6 2.40039 261.6 11.2002 292 28.7998 c 0
 293.6 29.5996 295.2 29.5996 296 28.7998 c 0
 333.6 10.4004 369.6 2.40039 402.4 2.40039 c 0
 470.4 2.40039 524.8 37.5996 548 96 c 1
 563.2 102.4 572 119.2 572 134.4 c 0
 572 144 568 152.8 560.8 157.6 c 1
 560.8 160 561.6 162.4 561.6 164.8 c 0
 561.6 217.6 500 268 431.2 268 c 0
 410.4 268 388.8 263.2 368 252.8 c 0
 364.8 250.4 362.4 252.8 363.2 256.8 c 2
 388.8 393.6 l 1
 414.4 397.6 428 423.2 428 447.2 c 0
 428 464 421.6 480.8 406.4 488.8 c 0
 405.6 489.6 405.6 490.4 405.6 492.8 c 2
 428 616.8 l 2
 432 642.4 443.2 653.6 453.6 653.6 c 0
 464.8 653.6 476 640 476 615.2 c 0
 476 553.6 496 514.4 527.2 508 c 1
 527.2 512 526.4 516 526.4 520 c 0
 526.4 578.4 564.8 600 564.8 656.8 c 0
 564.8 680.8 556 704.8 544 712.8 c 0
 537.6 717.6 548 722.4 550.4 724.8 c 0
 551.2 726.4 552.8 728 554.4 728.8 c 1
518.4 520 m 1
 498.4 528.8 484 576 484 615.2 c 0
 484 652 469.6 668 456 668 c 0
 440.8 668 424.8 648.8 419.2 616.8 c 2
 396.8 488.8 l 1
 391.2 481.6 371.2 476.8 356 476.8 c 0
 350.4 476.8 345.6 477.6 342.4 479.2 c 1
 376 660 l 2
 384.8 708 395.2 755.2 420.8 779.2 c 0
 440 796.8 496 784 516.8 824.8 c 0
 517.6 824.8 518.4 824.8 519.2 824.8 c 0
 543.2 824.8 558.4 801.6 558.4 775.2 c 0
 558.4 752 546.4 727.2 518.4 716 c 1
 544 707.2 556 685.6 556 659.2 c 0
 556 602.4 518.4 576 518.4 520 c 1
260 782.4 m 1
 228 768 215.2 736.8 215.2 707.2 c 0
 215.2 698.4 216 690.4 218.4 682.4 c 1
 196.8 663.2 173.6 652.8 145.6 652.8 c 0
 140 652.8 134.4 652.8 128.8 653.6 c 1
 117.6 691.2 84 749.6 36.7998 756 c 1
 36.7998 771.2 53.5996 777.6 76 777.6 c 0
 103.2 777.6 136.8 768 156.8 752.8 c 1
 165.6 777.6 205.6 792.8 233.6 792.8 c 0
 246.4 792.8 256.8 789.6 260 782.4 c 1
227.2 674.4 m 0
 241.6 674.4 257.6 663.2 257.6 648.8 c 0
 257.6 627.2 225.6 604.8 204.8 596.8 c 0
 188 590.4 171.2 586.4 156 586.4 c 0
 137.6 586.4 115.2 595.2 115.2 617.6 c 0
 115.2 630.4 123.2 641.6 132 644.8 c 1
 136.8 643.2 142.4 642.4 148.8 642.4 c 0
 175.2 642.4 211.2 656.8 224.8 674.4 c 0
 225.6 674.4 226.4 674.4 227.2 674.4 c 0
260.8 629.6 m 1
 271.2 624 275.2 616 275.2 608 c 0
 275.2 595.2 267.2 581.6 257.6 572 c 1
 257.6 538.4 240 522.4 218.4 522.4 c 0
 204 522.4 188.8 529.6 176 544 c 1
 173.6 544 171.2 543.2 168.8 543.2 c 0
 149.6 543.2 131.2 556 131.2 572 c 0
 131.2 575.2 132 579.2 133.6 582.4 c 1
 142.4 580.8 150.4 580 159.2 580 c 0
 203.2 580 242.4 601.6 260.8 629.6 c 1
418.4 446.4 m 0
 418.4 410.4 389.6 398.4 356.8 398.4 c 0
 330.4 398.4 301.6 406.4 284.8 416.8 c 1
 268.8 401.6 247.2 392 225.6 392 c 0
 212.8 392 200 395.2 188 402.4 c 1
 192.8 413.6 194.4 428 194.4 442.4 c 0
 194.4 470.4 187.2 502.4 176.8 529.6 c 1
 178.4 529.6 179.2 531.2 180 531.2 c 0
 188 520.8 203.2 514.4 217.6 514.4 c 0
 238.4 514.4 259.2 527.2 262.4 558.4 c 1
 264 558.4 264 558.4 264.8 558.4 c 0
 284 486.4 312.8 469.6 348.8 469.6 c 0
 368.8 469.6 387.2 473.6 400.8 480.8 c 1
 414.4 476.8 418.4 461.6 418.4 446.4 c 0
552 161.6 m 0
 544.8 156.8 528.8 154.4 513.6 154.4 c 0
 496 154.4 477.6 157.6 469.6 163.2 c 1
 466.4 194.4 441.6 227.2 397.6 227.2 c 0
 386.4 227.2 373.6 224.8 359.2 220 c 1
 359.2 227.2 360 233.6 360 236.8 c 1
 381.6 252.8 407.2 260 432 260 c 0
 492.8 260 552 219.2 552 164 c 0
 552 163.2 552 162.4 552 161.6 c 0
502.4 90.4004 m 0
 480 90.4004 448.8 104.8 448.8 127.2 c 0
 448.8 140.8 458.4 150.4 468 155.2 c 1
 480 150.4 496.8 147.2 513.6 147.2 c 0
 528 147.2 542.4 149.6 552.8 153.6 c 1
 560.8 147.2 564.8 142.4 564.8 134.4 c 0
 564.8 105.6 531.2 90.4004 502.4 90.4004 c 0
395.2 140 m 1
 387.2 124 375.2 116.8 361.6 116.8 c 0
 344 116.8 324.8 129.6 311.2 150.4 c 1
 294.4 132.8 272 120.8 253.6 120.8 c 0
 236.8 120.8 223.2 129.6 217.6 150.4 c 1
 220.8 149.6 223.2 149.6 226.4 149.6 c 0
 278.4 149.6 296.8 224.8 304.8 269.6 c 2
 328 393.6 l 1
 333.6 392 344 391.2 354.4 391.2 c 0
 362.4 391.2 371.2 392 378.4 393.6 c 1
 356.8 270.4 l 2
 354.4 256 351.2 234.4 351.2 213.6 c 0
 351.2 179.2 360 145.6 395.2 140 c 1
461.6 159.2 m 1
 448.8 153.6 442.4 140.8 442.4 128.8 c 0
 442.4 119.2 446.4 109.6 453.6 104 c 1
 441.6 77.5996 416 66.4004 388 66.4004 c 0
 360.8 66.4004 331.2 76.7998 308.8 96 c 0
 308 97.5996 304 98.4004 302.4 96 c 0
 289.6 76.7998 256 58.4004 224.8 58.4004 c 0
 202.4 58.4004 181.6 68 171.2 95.2002 c 0
 170.4 97.5996 173.6 99.2002 175.2 100 c 0
 182.4 106.4 186.4 117.6 186.4 128.8 c 0
 186.4 140.8 181.6 152 171.2 159.2 c 0
 171.2 160 171.2 160.8 171.2 161.6 c 0
 171.2 196.8 214.4 227.2 252 227.2 c 0
 258.4 227.2 281.6 224.8 281.6 217.6 c 0
 281.6 180.8 239.2 159.2 212.8 159.2 c 0
 210.4 159.2 207.2 160 204 160 c 1
 204.8 134.4 225.6 111.2 255.2 111.2 c 0
 268 111.2 281.6 115.2 296 124 c 1
 299.2 128.8 308 136 312.8 131.2 c 1
 315.2 130.4 316.8 128 318.4 126.4 c 0
 334.4 113.6 352 107.2 367.2 107.2 c 0
 389.6 107.2 407.2 120.8 407.2 146.4 c 0
 407.2 147.2 407.2 148.8 407.2 149.6 c 0
 375.2 153.6 360.8 174.4 360.8 206.4 c 0
 360.8 208 360.8 209.6 360.8 211.2 c 1
 372.8 216 384.8 217.6 395.2 217.6 c 0
 432 217.6 459.2 194.4 461.6 159.2 c 1
290.4 243.2 m 1
 290.4 239.2 287.2 230.4 285.6 227.2 c 1
 274.4 232 262.4 234.4 250.4 234.4 c 0
 209.6 234.4 168.8 207.2 163.2 166.4 c 1
 156 161.6 141.6 158.4 126.4 158.4 c 0
 110.4 158.4 93.5996 161.6 84.7998 168 c 1
 101.6 235.2 155.2 267.2 210.4 267.2 c 0
 237.6 267.2 266.4 259.2 290.4 243.2 c 1
534.4 87.2002 m 1
 502.4 33.5996 455.2 8.7998 402.4 8.7998 c 0
 368 8.7998 331.2 20 295.2 40 c 1
 267.2 20 232.8 9.59961 200 9.59961 c 0
 148 9.59961 100 36 88 90.4004 c 1
 100.8 82.4004 113.6 79.2002 126.4 79.2002 c 0
 140 79.2002 153.6 83.2002 164.8 89.5996 c 1
 177.6 60.7998 200.8 49.5996 225.6 49.5996 c 0
 254.4 49.5996 285.6 65.5996 304.8 85.5996 c 1
 331.2 68 361.6 58.4004 388.8 58.4004 c 0
 419.2 58.4004 445.6 69.5996 459.2 96 c 1
 473.6 87.2002 487.2 81.5996 504 81.5996 c 0
 512.8 81.5996 523.2 83.2002 534.4 87.2002 c 1
180 129.6 m 0
 180 99.2002 147.2 87.2002 126.4 87.2002 c 0
 107.2 87.2002 68.7998 102.4 68.7998 129.6 c 0
 68.7998 142.4 76 154.4 84.7998 158.4 c 1
 96 153.6 110.4 151.2 125.6 151.2 c 0
 139.2 151.2 152.8 153.6 162.4 157.6 c 1
 172 152.8 180 141.6 180 129.6 c 0
510.4 583.2 m 0
 513.6 609.6 520 626.4 520 652 c 0
 520 684 488 708.8 457.6 708.8 c 0
 442.4 708.8 424.8 704 412.8 689.6 c 1
 419.2 716 428 743.2 448 755.2 c 0
 470.4 768 490.4 760 515.2 772.8 c 0
 519.2 775.2 519.2 776 515.2 775.2 c 0
 492 765.6 467.2 773.6 444.8 760.8 c 1
 416.8 746.4 408 699.2 403.2 668.8 c 0
 402.4 664.8 408 662.4 409.6 666.4 c 0
 418.4 695.2 441.6 702.4 459.2 702.4 c 0
 484.8 702.4 513.6 684.8 514.4 648 c 0
 514.4 627.2 508.8 610.4 508.8 587.2 c 0
 508.8 586.4 508.8 584.8 508.8 583.2 c 0
 508.8 579.2 510.4 579.2 510.4 583.2 c 0
214.4 768 m 0
 218.4 769.6 217.6 772 213.6 769.6 c 0
 188.8 759.2 170.4 730.4 169.6 695.2 c 1
 153.6 722.4 124.8 746.4 89.5996 756 c 0
 85.5996 756.8 84.7998 755.2 88.7998 754.4 c 0
 126.4 741.6 154.4 711.2 167.2 680.8 c 0
 169.6 676.8 175.2 677.6 175.2 681.6 c 0
 175.2 682.4 175.2 683.2 175.2 684.8 c 0
 175.2 722.4 190.4 755.2 214.4 768 c 0
311.2 443.2 m 0
 286.4 448 256.8 464 239.2 499.2 c 0
 236.8 503.2 230.4 499.2 232 495.2 c 0
 236.8 481.6 240 468 240 455.2 c 0
 240 439.2 236 424.8 226.4 416.8 c 0
 222.4 413.6 222.4 412 226.4 415.2 c 0
 240 424 246.4 441.6 246.4 461.6 c 0
 246.4 466.4 245.6 471.2 244.8 476.8 c 1
 264 453.6 286.4 443.2 309.6 441.6 c 0
 313.6 441.6 314.4 442.4 311.2 443.2 c 0
367.2 132 m 0
 371.2 132 372 132.8 368 133.6 c 0
 340.8 138.4 324.8 176.8 322.4 207.2 c 0
 322.4 211.2 317.6 212 316.8 208.8 c 0
 308 180.8 280.8 141.6 256.8 140 c 0
 252.8 140 252.8 137.6 256.8 137.6 c 0
 257.6 137.6 257.6 137.6 258.4 137.6 c 0
 280.8 137.6 305.6 167.2 317.6 193.6 c 1
 322.4 162.4 339.2 134.4 367.2 132 c 0
456.8 162.4 m 1
 453.6 192.8 428.8 212.8 396 212.8 c 0
 386.4 212.8 376 211.2 365.6 207.2 c 0
 365.6 206.4 365.6 205.6 365.6 204.8 c 0
 365.6 176 380.8 158.4 410.4 155.2 c 0
 412 155.2 412.8 154.4 412.8 152 c 0
 412.8 150.4 412.8 148.8 412.8 147.2 c 0
 412.8 116.8 392.8 100.8 368 100.8 c 0
 353.6 100.8 336.8 106.4 321.6 116.8 c 1
 321.6 110.4 314.4 104.8 308 104.8 c 0
 301.6 104.8 296 110.4 294.4 116.8 c 1
 280.8 108.8 267.2 104.8 255.2 104.8 c 0
 221.6 104.8 197.6 132.8 197.6 161.6 c 0
 197.6 164 197.6 166.4 200.8 166.4 c 0
 204.8 165.6 208.8 165.6 212.8 165.6 c 0
 244 165.6 264.8 184 274.4 215.2 c 1
 267.2 219.2 258.4 220.8 249.6 220.8 c 0
 216.8 220.8 176.8 194.4 176.8 163.2 c 2
 176.8 163.2 176.8 162.4 176.8 161.6 c 0
 187.2 153.6 192.8 140.8 192.8 128 c 0
 192.8 116 188 104 178.4 97.5996 c 1
 185.6 73.5996 204 64 224.8 64 c 0
 252.8 64 285.6 81.5996 298.4 100 c 1
 300 104 309.6 103.2 312.8 100 c 0
 334.4 82.4004 364 71.2002 390.4 71.2002 c 0
 415.2 71.2002 436.8 80 448 102.4 c 1
 440.8 108.8 436.8 119.2 436.8 128.8 c 0
 436.8 141.6 443.2 155.2 456.8 162.4 c 1
280.8 8 m 0
 280.8 0 286.4 -3.2002 292 -3.2002 c 0
 298.4 -3.2002 305.6 0.799805 305.6 9.59961 c 0
 305.6 12 304.8 14.4004 304 16 c 1
 300 17.5996 296 20 292 21.5996 c 1
 289.6 20 287.2 18.4004 284 17.5996 c 1
 282.4 14.4004 280.8 11.2002 280.8 8 c 0
560.8 704 m 1
 562.4 703.2 564 702.4 565.6 702.4 c 0
 572.8 702.4 578.4 710.4 578.4 716.8 c 0
 578.4 724 572.8 729.6 565.6 729.6 c 0
 564.8 729.6 564 729.6 562.4 728.8 c 1
 560 724.8 556.8 720 552.8 716.8 c 0
 552.8 716 552.8 716 552.8 715.2 c 0
 556 712 558.4 708 560.8 704 c 1
583.2 716 m 0
 583.2 707.2 575.2 699.2 564.8 699.2 c 0
 564 699.2 564 699.2 563.2 699.2 c 1
 568 687.2 571.2 672 571.2 656.8 c 0
 571.2 599.2 532 578.4 532 519.2 c 0
 532 514.4 532 510.4 532.8 505.6 c 0
 532.8 503.2 532 502.4 530.4 502.4 c 0
 492.8 505.6 472 548 470.4 615.2 c 0
 469.6 632.8 462.4 642.4 453.6 642.4 c 0
 445.6 642.4 436.8 634.4 433.6 614.4 c 2
 412 493.6 l 1
 428 484.8 434.4 467.2 434.4 448.8 c 0
 434.4 421.6 420 393.6 393.6 388 c 1
 369.6 261.6 l 1
 389.6 270.4 410.4 274.4 430.4 274.4 c 0
 503.2 274.4 567.2 222.4 567.2 168 c 0
 567.2 164.8 566.4 162.4 566.4 160 c 1
 574.4 154.4 578.4 144.8 578.4 134.4 c 0
 578.4 117.6 568 98.4004 552 91.2002 c 1
 528.8 32 472 -4.7998 400.8 -4.7998 c 0
 372.8 -4.7998 342.4 0.799805 310.4 13.5996 c 1
 311.2 12 311.2 10.4004 311.2 8.7998 c 0
 311.2 -0.799805 304 -8 294.4 -8 c 0
 284.8 -8 275.2 -0.799805 275.2 8.7998 c 0
 275.2 10.4004 275.2 12 276 12.7998 c 1
 249.6 0.799805 222.4 -5.59961 197.6 -5.59961 c 0
 138.4 -5.59961 88 28 71.2002 95.2002 c 1
 60 102.4 54.4004 116 54.4004 130.4 c 0
 54.4004 144.8 60.7998 160 71.2002 166.4 c 1
 83.2002 241.6 152.8 283.2 218.4 283.2 c 0
 244 283.2 268.8 276.8 289.6 263.2 c 1
 312 391.2 l 1
 309.6 391.2 306.4 392 303.2 392.8 c 1
 304 390.4 304.8 388 304.8 385.6 c 0
 304.8 375.2 296 369.6 287.2 369.6 c 0
 278.4 369.6 269.6 374.4 269.6 385.6 c 0
 269.6 386.4 269.6 387.2 269.6 388 c 1
 256 380.8 240 376.8 224 376.8 c 0
 204 376.8 184.8 383.2 170.4 396 c 0
 168 398.4 168 399.2 170.4 400.8 c 0
 176.8 407.2 180 420 180 436 c 0
 180 460.8 173.6 494.4 163.2 531.2 c 1
 161.6 531.2 160.8 531.2 159.2 531.2 c 0
 138.4 531.2 116 552 116 574.4 c 0
 116 577.6 116 581.6 117.6 584.8 c 1
 106.4 588.8 100 603.2 100 617.6 c 0
 100 631.2 104.8 644 115.2 651.2 c 1
 97.5996 691.2 76 736.8 24 744 c 0
 20.7998 744 20.7998 746.4 20.7998 748.8 c 0
 20.7998 780 55.2002 790.4 91.2002 790.4 c 0
 106.4 790.4 120.8 788.8 134.4 786.4 c 1
 132 788.8 131.2 792 131.2 795.2 c 0
 131.2 805.6 138.4 812.8 148.8 812.8 c 0
 158.4 812.8 166.4 805.6 166.4 795.2 c 0
 166.4 794.4 166.4 792.8 166.4 792 c 1
 183.2 800 207.2 805.6 228 805.6 c 0
 252.8 805.6 274.4 798.4 281.6 779.2 c 0
 282.4 776.8 281.6 776 279.2 775.2 c 0
 250.4 765.6 231.2 741.6 231.2 708.8 c 0
 231.2 702.4 232 695.2 233.6 687.2 c 0
 234.4 687.2 234.4 687.2 235.2 687.2 c 0
 256 687.2 272 668.8 272 645.6 c 0
 272 644 272 642.4 272 640 c 1
 284 632.8 290.4 617.6 290.4 602.4 c 0
 290.4 588.8 285.6 576 274.4 567.2 c 1
 289.6 524 304 488 328.8 484.8 c 1
 360.8 662.4 l 1
 363.2 669.6 376.8 769.6 412 791.2 c 0
 448 812.8 494.4 797.6 504.8 837.6 c 1
 508.8 838.4 512.8 839.2 516.8 839.2 c 0
 551.2 839.2 573.6 805.6 573.6 769.6 c 0
 573.6 757.6 571.2 744.8 564.8 733.6 c 1
 565.6 733.6 l 2
 575.2 733.6 583.2 725.6 583.2 716 c 0
276 391.2 m 1
 274.4 388.8 274.4 387.2 274.4 384.8 c 0
 274.4 378.4 281.6 373.6 288 373.6 c 0
 294.4 373.6 300 376.8 300 386.4 c 0
 300 389.6 299.2 392.8 296.8 395.2 c 1
 293.6 396 290.4 397.6 287.2 399.2 c 1
 284 396 280 393.6 276 391.2 c 1
308 108.8 m 0
 312.8 108.8 317.6 112.8 317.6 119.2 c 0
 317.6 120.8 310.4 125.6 308.8 127.2 c 1
 305.6 124 302.4 121.6 298.4 119.2 c 1
 298.4 112.8 303.2 108.8 308 108.8 c 0
EndSplineSet
Validated: 1
EndChar

StartChar: Y
Encoding: 89 89 16
Width: 714
VWidth: 1240
Flags: W
HStem: -2 40<186.013 289.125 440.875 542.993> 761 41<0.09375 73.7373 212.35 279.994 484.006 547.477 635.756 711.994>
VStem: 312 106<58.8061 395.758>
LayerCount: 2
Fore
SplineSet
418 151 m 2
 418 48 439 42 538 38 c 1
 542 34 543 26 543 17 c 0
 543 10 542 2 538 -2 c 1
 476 -1 414 0 366 0 c 0
 318 0 253 -1 192 -2 c 1
 188 2 186 10 186 17 c 0
 186 26 188 34 192 38 c 1
 291 42 312 48 312 151 c 2
 312 309 l 2
 312 355 307 367 286 404 c 2
 124 678 l 2
 81 750 59 757 7 761 c 1
 3 765 0 775 0 784 c 0
 0 791 2 798 6 802 c 1
 43 801 85 800 133 800 c 0
 183 800 229 801 274 802 c 1
 278 798 280 790 280 781 c 0
 280 774 278 765 274 761 c 1
 231 759 212 754 212 737 c 0
 212 727 218 713 229 693 c 2
 373 439 l 2
 379 429 384 423 388 423 c 0
 392 423 396 427 401 436 c 2
 538 696 l 2
 545 711 549 722 549 732 c 0
 549 753 528 759 490 761 c 1
 486 765 484 774 484 781 c 0
 484 790 486 798 490 802 c 1
 530 801 574 800 603 800 c 0
 632 800 671 801 706 802 c 1
 710 798 712 790 712 781 c 0
 712 774 710 765 706 761 c 1
 650 756 623 745 588 682 c 2
 439 414 l 2
 419 377 418 357 418 320 c 2
 418 151 l 2
EndSplineSet
Validated: 19457
EndChar

StartChar: bracketleft
Encoding: 91 91 17
Width: 237
VWidth: 800
Flags: W
HStem: -97 15<96 209> 785 16<96 209>
VStem: 50 46<-82 785>
LayerCount: 2
Fore
SplineSet
50 -97 m 1
 50 801 l 1
 209 801 l 1
 209 785 l 1
 96 785 l 1
 96 -82 l 1
 209 -82 l 1
 209 -97 l 1
 50 -97 l 1
EndSplineSet
Validated: 19457
EndChar

StartChar: backslash
Encoding: 92 92 18
Width: 444
VWidth: 800
Flags: W
HStem: 790.4 20G<4.7998 55.2196>
LayerCount: 2
Fore
SplineSet
360.8 -161.6 m 1
 316.8 -161.6 l 1
 4.7998 810.4 l 1
 48.7998 810.4 l 1
 360.8 -161.6 l 1
EndSplineSet
Validated: 1
EndChar

StartChar: bracketright
Encoding: 93 93 19
Width: 237
VWidth: 800
Flags: W
HStem: -98 15<14 127> 784 16<14 127>
VStem: 127 46<-83 784>
LayerCount: 2
Fore
SplineSet
14 -98 m 1
 14 -83 l 1
 127 -83 l 1
 127 784 l 1
 14 784 l 1
 14 800 l 1
 173 800 l 1
 173 -98 l 1
 14 -98 l 1
EndSplineSet
Validated: 19457
EndChar

StartChar: asciicircum
Encoding: 94 94 20
Width: 360
VWidth: 799
Flags: W
HStem: 494 243
VStem: 62 236
LayerCount: 2
Fore
SplineSet
179 692 m 1
 98 494 l 1
 62 494 l 1
 163 737 l 1
 197 737 l 1
 298 494 l 1
 262 494 l 1
 179 692 l 1
EndSplineSet
Validated: 19457
EndChar

StartChar: underscore
Encoding: 95 95 21
Width: 300
VWidth: 800
Flags: W
HStem: 0 76.7998<12.6137 287.387>
VStem: 11.2002 277.6<0.184961 76.5969>
LayerCount: 2
Fore
SplineSet
263.2 76.7998 m 2
 284.8 76.7998 288.8 59.2002 288.8 37.5996 c 0
 288.8 16 284.8 0 263.2 0 c 2
 36.7998 0 l 2
 15.2002 0 11.2002 16 11.2002 37.5996 c 0
 11.2002 59.2002 15.2002 76.7998 36.7998 76.7998 c 2
 263.2 76.7998 l 2
EndSplineSet
Validated: 1
EndChar

StartChar: grave
Encoding: 96 96 22
Width: 156
VWidth: 800
Flags: W
HStem: 404.8 168.8
VStem: 0.799805 145.6
LayerCount: 2
Fore
SplineSet
117.6 404.8 m 1
 0.799805 572 l 2
 0 572.8 0.799805 572.8 0.799805 573.6 c 0
 0.799805 575.2 1.59961 575.2 3.2002 575.2 c 0
 4 575.2 4.7998 575.2 5.59961 575.2 c 2
 57.5996 575.2 l 1
 146.4 411.2 l 2
 147.2 410.4 147.2 409.6 147.2 408.8 c 0
 147.2 406.4 146.4 404.8 144 404.8 c 2
 117.6 404.8 l 1
EndSplineSet
Validated: 1
EndChar

StartChar: a
Encoding: 97 97 23
Width: 575
VWidth: 1240
Flags: W
HStem: 1 60<401 516.922> 1 51<165.097 274.914> 517 41<164.329 306.107>
VStem: 30 104<81.4699 204.319> 55 91<400.266 477.348> 350 96<105.648 303 341.05 465.205>
LayerCount: 2
Fore
SplineSet
350 303 m 1x74
 250 277 l 2
 158 253 134 196 134 140 c 0
 134 102 161 52 223 52 c 0
 258 52 300 81 332 107 c 0
 342 114 350 123 350 139 c 2
 350 303 l 1x74
146 465 m 0x6c
 146 438 156 440 156 418 c 0
 156 402 134 376 97 376 c 0
 70 376 55 390 55 420 c 0
 55 491 156 558 258 558 c 0
 350 558 446 524 446 348 c 2
 446 166 l 2
 446 109 447 61 484 61 c 0
 499 61 519 74 528 81 c 1
 543 72 549 62 551 47 c 1
 525 22 480 1 432 1 c 0xac
 370 1 357 35 350 73 c 1
 347 73 l 1
 322 53 l 2
 267 11 229 1 186 1 c 0
 99 1 30 33 30 135 c 0x74
 30 219 117 285 236 315 c 2
 342 341 l 2
 344 342 350 347 350 356 c 0
 350 496 290 517 248 517 c 0
 201 517 146 505 146 465 c 0x6c
EndSplineSet
Validated: 19457
EndChar

StartChar: b
Encoding: 98 98 24
Width: 582
VWidth: 1240
Flags: W
HStem: 0 42<230.562 362.1> 502 55<256.442 381.065> 807 37<9.71665 85.1328>
VStem: 97 98<75.5115 462.996 507 797.85> 459 106<193.301 404.04>
LayerCount: 2
Fore
SplineSet
216 463 m 0
 200 449 195 436 195 410 c 2
 195 100 l 1
 220 69 246 42 284 42 c 0
 402 42 459 149 459 290 c 0
 459 410 397 502 321 502 c 0
 285 502 248 492 216 463 c 0
207 501 m 0
 245 536 293 557 346 557 c 0
 454 557 565 463 565 312 c 0
 565 115 417 0 291 0 c 0
 246 0 211 6 182 31 c 0
 175 36 170 38 166 38 c 0
 160 38 155 34 148 27 c 0
 139 16 126 5 119 -2 c 1
 104 -2 98 2 92 12 c 1
 96 29 97 52 97 100 c 2
 97 706 l 2
 97 810 81 803 17 807 c 1
 11 812 9 826 9 836 c 0
 9 840 9 842 10 844 c 1
 60 848 153 866 184 878 c 1
 195 878 200 875 200 866 c 2
 200 866 195 816 195 735 c 2
 195 507 l 2
 195 496 198 494 207 501 c 0
EndSplineSet
Validated: 19457
EndChar

StartChar: c
Encoding: 99 99 25
Width: 503
VWidth: 1240
Flags: W
HStem: 0 61<242.055 385.876> 516 41<225.15 352.684>
VStem: 40 106<178.986 383.406> 377 107<396.992 493.084>
LayerCount: 2
Fore
SplineSet
489 125 m 1
 427 23 359 0 285 0 c 0
 129 0 40 110 40 270 c 0
 40 446 171 557 295 557 c 0
 414 557 484 507 484 439 c 0
 484 401 449 384 424 384 c 0
 397 384 377 396 377 429 c 0
 377 472 362 516 288 516 c 0
 206 516 146 434 146 298 c 0
 146 153 223 61 312 61 c 0
 367 61 419 88 461 143 c 1
 473 143 484 136 489 125 c 1
EndSplineSet
Validated: 19457
EndChar

StartChar: d
Encoding: 100 100 26
Width: 627
VWidth: 1240
Flags: W
HStem: 0 58<222.158 324.662> 50 33<538.633 612.991> 513 44<219.421 372.469> 807 37<331.08 406.188>
VStem: 38 107<156.531 384.279> 418 98<118.004 468.994 536.001 799.64>
LayerCount: 2
Fore
SplineSet
418 166 m 2xbc
 418 402 l 2
 418 440 414 449 397 469 c 0
 372 498 341 513 296 513 c 0
 271 513 219 509 181 451 c 0
 162 425 145 375 145 286 c 0
 145 131 214 58 281 58 c 0
 312 58 352 78 398 118 c 0
 415 133 418 142 418 166 c 2xbc
405 77 m 0
 344 27 297 0 249 0 c 0xbc
 115 0 38 111 38 264 c 0
 38 356 71 429 124 482 c 1
 174 529 228 557 310 557 c 0
 351 557 402 536 407 536 c 0
 416 536 418 538 418 547 c 2
 418 706 l 2
 418 805 404 807 347 807 c 0
 339 807 l 1
 334 812 330 825 330 835 c 0
 330 839 331 842 331 844 c 1
 381 844 474 866 505 878 c 1
 516 878 521 875 521 866 c 2
 521 866 516 816 516 735 c 2
 516 174 l 2
 516 113 527 83 606 83 c 1
 610 79 613 72 613 66 c 0
 613 60 610 54 606 50 c 1x7c
 530 41 487 22 460 0 c 1
 456 -2 453 -2 449 -2 c 0
 445 -2 441 -2 436 0 c 1
 436 0 427 42 423 73 c 0
 423 82 411 82 405 77 c 0
EndSplineSet
Validated: 19457
EndChar

StartChar: e
Encoding: 101 101 27
Width: 542
VWidth: 1240
Flags: W
HStem: 0 61<253.251 395.657> 320 42<151 393.997> 513 41<223.36 350.909>
VStem: 43 105<187.553 313.619> 394 107<332 453.064>
LayerCount: 2
Fore
SplineSet
151 362 m 1
 376 366 l 2
 390 366 394 372 394 383 c 0
 394 487 338 513 291 513 c 0
 261 513 175 502 151 362 c 1
291 0 m 0
 130 0 43 108 43 263 c 0
 43 451 183 554 291 554 c 0
 463 554 501 443 501 339 c 0
 501 325 492 317 477 317 c 2
 148 320 l 1
 148 248 162 191 187 150 c 0
 225 87 277 61 322 61 c 0
 394 61 430 81 476 128 c 1
 491 127 498 120 502 108 c 1
 452 44 385 0 291 0 c 0
EndSplineSet
Validated: 19457
EndChar

StartChar: g
Encoding: 103 103 28
Width: 623
VWidth: 1240
Flags: W
HStem: -280 46<196.421 385.385> -4 73<169.391 326.45> 0 76<224.65 453.516> 184 38<224.97 350.853> 521 38<215.565 341.294> 532 56<467.511 557>
VStem: 40 86<-172.776 -65.7166> 74 102<284.859 454.02> 84 67<88.2795 188.686> 397 99<285.86 460.104> 518 67<-140.449 -49.2139>
LayerCount: 2
Fore
SplineSet
397 361 m 0x9960
 397 464 354 521 275 521 c 0
 208 521 176 476 176 389 c 0
 176 310 189 222 293 222 c 0
 338 222 397 246 397 361 c 0x9960
164 2 m 1
 129 -41 126 -72 126 -114 c 0
 126 -198 230 -234 275 -234 c 0
 387 -234 518 -187 518 -98 c 0
 518 -66 504 -48 454 -21 c 0
 419 -1 367 0 305 0 c 0xb260
 288 0 253 -4 213 -4 c 0xd260
 198 -4 179 -2 164 2 c 1
233 69 m 0xd4e0
 263 69 323 76 350 76 c 0
 397 76 484 75 531 35 c 0
 568 5 585 -26 585 -66 c 0
 585 -200 404 -280 238 -280 c 0
 141 -280 40 -247 40 -139 c 0xb260
 40 -86 74 -29 141 11 c 1
 109 27 84 62 84 107 c 0xb0e0
 84 149 104 202 139 232 c 1
 104 265 74 304 74 371 c 0
 74 485 176 559 288 559 c 0xb960
 360 559 402 535 417 525 c 1
 449 567 509 588 541 588 c 0
 573 588 598 568 598 542 c 0
 598 517 576 495 551 495 c 0
 539 495 521 507 516 517 c 1
 509 528 501 532 491 532 c 0
 476 532 451 514 441 502 c 1
 478 465 496 431 496 373 c 0
 496 251 394 184 285 184 c 0
 238 184 204 193 174 210 c 1
 159 189 151 163 151 138 c 0
 151 85 196 69 233 69 c 0xd4e0
EndSplineSet
Validated: 19457
EndChar

StartChar: h
Encoding: 104 104 29
Width: 658
VWidth: 1240
Flags: W
HStem: -2 40<19.0068 94 221.875 288.987 387.019 453.422 583.787 654.993> 477 67<323.607 439.803> 795 37<24 95.6805>
VStem: 110 98<52.769 406.997 444 786.267> 469 98<52.4181 445.734>
LayerCount: 2
Fore
SplineSet
208 355 m 2
 208 151 l 2
 208 48 220 43 283 38 c 1
 287 34 289 26 289 17 c 0
 289 8 287 2 283 -2 c 1
 248 -1 207 0 160 0 c 0
 110 0 65 -1 24 -2 c 1
 20 2 19 8 19 17 c 0
 19 26 20 34 24 38 c 1
 96 43 110 48 110 151 c 2
 110 693 l 2
 110 797 95 791 31 795 c 1
 26 800 22 812 22 822 c 0
 22 826 24 830 24 832 c 1
 74 836 166 854 197 866 c 1
 208 866 213 862 213 853 c 2
 213 853 208 804 208 723 c 2
 208 444 l 2
 208 427 215 439 219 444 c 0
 295 528 369 544 430 544 c 0
 473 544 512 529 533 502 c 0
 563 464 567 404 567 336 c 2
 567 151 l 2
 567 49 581 44 650 38 c 1
 654 34 655 26 655 17 c 0
 655 8 654 2 650 -2 c 1
 609 -1 568 0 518 0 c 0
 468 0 427 -1 392 -2 c 1
 390 2 387 8 387 17 c 0
 387 26 390 34 392 38 c 1
 456 44 469 49 469 151 c 2
 469 340 l 2
 469 377 466 410 454 435 c 0
 440 464 414 477 388 477 c 0
 340 477 276 453 229 407 c 0
 219 396 208 381 208 355 c 2
EndSplineSet
Validated: 19457
EndChar

StartChar: i
Encoding: 105 105 30
Width: 350
VWidth: 1240
Flags: W
HStem: -2 40<32.0194 109.163 241.625 319.981> 479 33<44.4503 108.037> 678 124<129.407 217.725>
VStem: 112 124<696.251 784.593> 126 100<53.1843 466.246>
LayerCount: 2
Fore
SplineSet
112 743 m 0xf0
 112 773 146 802 176 802 c 0
 211 802 236 768 236 738 c 0
 236 712 206 678 171 678 c 0
 141 678 112 711 112 743 c 0xf0
226 151 m 2xe8
 226 48 238 43 315 38 c 1
 317 34 320 26 320 17 c 0
 320 8 317 2 315 -2 c 1
 273 -1 226 0 176 0 c 0
 126 0 79 -1 37 -2 c 1
 35 2 32 8 32 17 c 0
 32 26 35 34 37 38 c 1
 114 44 126 48 126 151 c 2
 126 393 l 2
 126 464 114 473 47 479 c 1
 46 484 44 495 44 503 c 0
 44 507 44 510 45 512 c 1
 129 523 178 534 213 548 c 1
 223 548 231 544 231 539 c 2
 231 539 226 460 226 398 c 2
 226 151 l 2xe8
EndSplineSet
Validated: 19457
EndChar

StartChar: j
Encoding: 106 106 31
Width: 305
VWidth: 1240
Flags: W
HStem: -247 55<-12 96.8162> 507 35<48 115.01> 708 124<131.837 219.867>
VStem: 114 124<726.251 813.502> 131 98<-78.5208 493.758>
LayerCount: 2
Fore
SplineSet
114 773 m 0xf0
 114 803 149 832 179 832 c 0
 212 832 238 798 238 768 c 0
 238 742 209 708 174 708 c 0
 144 708 114 741 114 773 c 0xf0
131 422 m 2xe8
 131 493 118 501 51 507 c 1
 49 512 47 526 47 535 c 0
 47 538 48 540 48 542 c 1
 134 553 183 564 218 578 c 1
 228 578 234 574 234 569 c 2
 234 569 229 490 229 428 c 2
 229 166 l 2
 229 -68 194 -158 136 -205 c 0
 90 -243 26 -247 0 -247 c 0
 -24 -247 -68 -229 -68 -193 c 0
 -68 -171 -43 -146 -29 -146 c 0
 -2 -146 14 -167 26 -179 c 0
 35 -188 50 -192 64 -192 c 0
 126 -192 131 -40 131 124 c 2
 131 422 l 2xe8
EndSplineSet
Validated: 19457
EndChar

StartChar: k
Encoding: 107 107 32
Width: 651
VWidth: 1240
Flags: W
HStem: -2 40<20.0132 93.375 220.375 277.987 556.967 631.987> 494 40<357.007 405.407 507.166 597.98> 795 37<22 97.1876>
VStem: 109 98<51.6864 259 290 787.279>
LayerCount: 2
Fore
SplineSet
109 151 m 2
 109 693 l 2
 109 792 95 795 38 795 c 2
 30 795 l 1
 25 800 21 812 21 822 c 0
 21 826 22 830 22 832 c 1
 72 832 165 854 196 866 c 1
 207 866 212 862 212 853 c 2
 212 853 207 804 207 723 c 2
 207 290 l 1
 231 292 264 308 291 329 c 0
 323 353 362 394 391 430 c 0
 397 437 407 451 407 465 c 0
 407 479 397 494 362 494 c 1
 358 498 357 504 357 513 c 0
 357 522 358 530 362 534 c 1
 391 534 437 532 484 532 c 0
 529 532 562 534 591 534 c 1
 595 530 598 522 598 513 c 0
 598 504 595 498 591 494 c 1
 541 494 498 479 461 439 c 2
 352 326 l 2
 347 321 347 319 347 314 c 0
 347 308 351 301 356 296 c 2
 520 91 l 2
 553 49 584 43 626 38 c 1
 630 34 632 26 632 17 c 0
 632 8 630 2 626 -2 c 1
 601 -2 563 0 525 0 c 0
 500 0 473 -2 448 -2 c 0
 444 -2 443 0 443 4 c 0
 443 18 427 41 391 91 c 2
 300 212 l 2
 285 232 274 243 260 252 c 1
 248 257 231 259 207 259 c 1
 207 151 l 2
 207 48 221 43 272 38 c 1
 276 34 278 26 278 17 c 0
 278 8 276 2 272 -2 c 1
 243 -1 202 0 159 0 c 0
 109 0 67 -1 26 -2 c 1
 22 2 20 8 20 17 c 0
 20 26 22 34 26 38 c 1
 95 43 109 48 109 151 c 2
EndSplineSet
Validated: 19457
EndChar

StartChar: l
Encoding: 108 108 33
Width: 328
VWidth: 1240
Flags: W
HStem: -2 40<21.0069 99.75 230.25 308.993> 795 37<29.5191 101.402>
VStem: 117 96<53.5079 784.234>
LayerCount: 2
Fore
SplineSet
117 151 m 2
 117 693 l 2
 117 786 109 790 37 795 c 1
 31 800 29 812 29 822 c 0
 29 826 29 830 30 832 c 1
 80 836 171 854 203 866 c 1
 213 866 218 862 218 853 c 2
 218 853 213 804 213 723 c 2
 213 151 l 2
 213 48 229 42 303 38 c 1
 308 34 309 26 309 17 c 0
 309 8 308 2 303 -2 c 1
 263 -1 216 0 166 0 c 0
 116 0 69 -1 27 -2 c 1
 22 2 21 8 21 17 c 0
 21 26 22 34 27 38 c 1
 101 42 117 48 117 151 c 2
EndSplineSet
Validated: 19457
EndChar

StartChar: n
Encoding: 110 110 34
Width: 700
VWidth: 1240
Flags: W
HStem: -2 40<37.0068 112.051 242.441 307.993 398.007 464.422 594.787 665.993> 477 67<337.643 449.506> 477 35<45.4503 112.312>
VStem: 129 98<53.5073 406.997 455.37 463.729> 480 98<52.4181 445.734>
LayerCount: 2
Fore
SplineSet
238 444 m 0xb8
 311 528 380 544 441 544 c 0
 484 544 523 529 544 502 c 0
 573 464 578 404 578 336 c 2
 578 151 l 2
 578 49 592 44 661 38 c 1
 665 34 666 26 666 17 c 0
 666 8 665 2 661 -2 c 1
 624 -1 579 0 529 0 c 0
 479 0 440 -1 403 -2 c 1
 399 2 398 8 398 17 c 0
 398 26 399 34 403 38 c 1
 467 44 480 49 480 151 c 2
 480 340 l 2
 480 377 477 410 465 435 c 0
 450 464 424 477 399 477 c 0xd8
 351 477 295 453 248 407 c 0
 238 396 227 381 227 355 c 2
 227 151 l 2
 227 49 240 44 303 38 c 1
 307 34 308 26 308 17 c 0
 308 8 307 2 303 -2 c 1
 266 -1 229 0 179 0 c 0
 129 0 79 -1 42 -2 c 1
 38 2 37 8 37 17 c 0
 37 26 38 34 42 38 c 1
 116 44 129 49 129 151 c 2
 129 393 l 2
 129 465 115 471 48 477 c 1
 47 482 45 494 45 503 c 0
 45 507 45 510 46 512 c 1
 132 523 163 534 198 548 c 1
 208 548 211 543 213 538 c 0
 219 524 222 477 223 444 c 0
 223 432 231 435 238 444 c 0xb8
EndSplineSet
Validated: 19457
EndChar

StartChar: r
Encoding: 114 114 35
Width: 465
VWidth: 1240
Flags: W
HStem: -2 40<27.0132 109.101 240.036 329.993> 467 77<307.086 397> 477 35<42 111.228>
VStem: 125 98<53.1405 393.913 440.362 465.988>
LayerCount: 2
Fore
SplineSet
219 444 m 0xb0
 219 438 226 427 233 441 c 0
 262 489 313 544 371 544 c 0
 423 544 445 509 445 485 c 0
 445 454 417 423 387 423 c 0
 365 423 351 439 342 451 c 0
 332 463 321 467 310 467 c 0xd0
 295 467 267 427 253 407 c 0
 238 385 223 356 223 324 c 2
 223 151 l 2
 223 48 238 38 325 38 c 1
 329 34 330 26 330 17 c 0
 330 8 329 2 325 -2 c 1
 282 -2 225 0 175 0 c 0
 125 0 76 -2 33 -2 c 1
 29 2 27 8 27 17 c 0
 27 26 29 34 33 38 c 1
 110 38 125 48 125 151 c 2
 125 393 l 2
 125 465 112 477 45 477 c 1
 43 482 41 496 41 505 c 0
 41 508 42 510 42 512 c 1
 128 523 160 534 195 548 c 1
 205 548 208 543 210 538 c 0
 215 524 219 494 219 444 c 0xb0
EndSplineSet
Validated: 19457
EndChar

StartChar: s
Encoding: 115 115 36
Width: 455
VWidth: 1240
Flags: W
HStem: 0 41<148.214 290.628> 516 41<183.002 304.831>
VStem: 48 39<118.002 189.977> 66 88<375.251 482.994> 329 94<79.3372 189.312> 356 40<396.053 460.267>
LayerCount: 2
Fore
SplineSet
48 184 m 1xe8
 52 188 60 190 69 190 c 0
 76 190 83 187 87 185 c 1
 103 116 119 41 223 41 c 0
 269 41 329 67 329 128 c 0xe8
 329 181 305 207 202 249 c 0
 107 289 66 327 66 418 c 0
 66 497 149 557 241 557 c 0
 305 557 365 539 403 533 c 1
 403 492 396 447 396 402 c 1
 392 397 382 396 373 396 c 0
 366 396 360 397 356 401 c 1
 340 506 268 516 241 516 c 0
 199 516 154 487 154 436 c 0xd4
 154 368 204 348 278 321 c 0
 362 290 423 240 423 156 c 0
 423 33 295 0 226 0 c 0
 180 0 146 5 113 14 c 0
 104 16 97 16 88 16 c 0
 82 16 69 14 57 12 c 1
 57 64 48 123 48 184 c 1xe8
EndSplineSet
Validated: 19457
EndChar

StartChar: uniA64C
Encoding: 42572 42572 38
Width: 829
VWidth: 800
GlyphClass: 2
Flags: W
HStem: -22 6<260 299 531 569> -9 112<251 296 531 578> -3 5<226 242 316 346 482 512 586 602> 9 38<322 381 450 509> 110 6<263 295 533 565> 276 6<320 381 449 510> 282 23<107 112 696 723> 303 4<408 423> 366 33<58 163 668 772> 409 96<59 169 658 769> 513 23<108 114> 585 4<233 249 579 595> 621 6<238 251> 635 35<219 262 565 608> 678 6<211 234 594 617> 730 5<210 234 594 618> 743 26<191 249 575 636> 765 30<225 330 501 603> 775 19<247 290 327 330> 782 16G<339 352> 803 6<292 342 485 536> 813 6<198 259 568 630>
VStem: 22 6<358 397 450 499> 43 5<286 329 524 577> 55 53<207 254 536 662> 114 53<174 254 536 695> 174 6<254 330 524 656> 196 6<355 397> 199 6<446 493 658 679> 215 14<55 58> 220 4<598 614> 238 58<9 86> 245 6<695 720> 260 26<679 734> 270 39<598 637> 286 5<241 254> 294 20<680 722> 305 17<34 53> 319 43<605 730> 341 6<119 168 542 570> 354 58<95 206> 364 5<754 787> 369 6<635 689> 394 4<278 294> 419 55<94 207> 432 4<278 294> 454 5<639 687> 459 5<756 788> 465 46<598 730> 481 6<118 166 542 571> 509 14<46 54> 516 20<680 722> 521 37<597 636> 530 58<8 83> 537 5<241 255> 544 23<679 734> 578 6<695 720> 604 4<598 614> 622 6<448 492 660 678> 648 5<255 329 524 665> 660 56<184 254 536 692> 722 50<205 254 536 662> 779 6<283 330 523 581> 799 6<356 400 447 502>
AnchorPoint: "Diacritic" 416 891 basechar 0
LayerCount: 2
Fore
SplineSet
648.8 596.8 m 0xadfe381408a04d10
 648.8 669.6 645.6 730.4 604.8 730.4 c 0
 591.2 730.4 583.2 719.2 583.2 704 c 0
 583.2 695.2 592.8 684 606.4 684 c 0
 610.4 684 615.2 685.6 620 688 c 1
 624.8 683.2 626.4 676.8 626.4 670.4 c 0
 626.4 652.8 613.6 632.8 596 624.8 c 1
 603.2 620.8 608 613.6 608 605.6 c 0
 608 595.2 598.4 584.8 587.2 584.8 c 0
 579.2 584.8 572 590.4 568 597.6 c 1
 554.4 564 525.6 536 484.8 536 c 0
 483.2 536 482.4 536.8 482.4 539.2 c 0
 482.4 541.6 482.4 544 482.4 546.4 c 0
 482.4 590.4 453.6 610.4 453.6 659.2 c 0
 453.6 678.4 457.6 702.4 470.4 734.4 c 1
 463.2 746.4 459.2 759.2 459.2 772 c 0
 459.2 788 464.8 803.2 476.8 814.4 c 1
 487.2 810.4 498.4 808.8 508.8 808.8 c 0
 537.6 808.8 568 818.4 602.4 818.4 c 0
 605.6 818.4 609.6 818.4 612.8 818.4 c 0
 745.6 818.4 784.8 660.8 784.8 525.6 c 1
 800 513.6 807.2 493.6 807.2 473.6 c 0
 807.2 456 801.6 439.2 792 425.6 c 1
 800.8 410.4 805.6 393.6 805.6 378.4 c 0
 805.6 359.2 799.2 341.6 784.8 327.2 c 1
 784.8 179.2 697.6 -3.2002 587.2 -3.2002 c 1
 580.8 -16 565.6 -22.4004 550.4 -22.4004 c 0
 534.4 -22.4004 518.4 -15.2002 510.4 -3.2002 c 1
 469.6 -3.2002 438.4 4 414.4 26.4004 c 1
 389.6 4 359.2 -3.2002 317.6 -3.2002 c 1
 310.4 -15.2002 294.4 -22.4004 278.4 -22.4004 c 0
 263.2 -22.4004 248 -16 240.8 -3.2002 c 1
 131.2 -3.2002 43.2002 179.2 43.2002 327.2 c 1
 29.5996 341.6 22.4004 359.2 22.4004 377.6 c 0
 22.4004 393.6 27.2002 409.6 36.7998 425.6 c 1
 26.4004 439.2 21.5996 456.8 21.5996 474.4 c 0
 21.5996 494.4 28.7998 513.6 43.2002 525.6 c 1
 43.2002 660.8 82.4004 818.4 215.2 818.4 c 0
 218.4 818.4 222.4 818.4 225.6 818.4 c 0
 260 818.4 289.6 808.8 318.4 808.8 c 0
 329.6 808.8 340 810.4 350.4 814.4 c 1
 362.4 803.2 368.8 786.4 368.8 770.4 c 0
 368.8 757.6 365.6 745.6 358.4 734.4 c 1
 370.4 703.2 375.2 679.2 375.2 660 c 0
 375.2 610.4 346.4 590.4 346.4 546.4 c 0
 346.4 544 346.4 541.6 346.4 539.2 c 0
 346.4 536.8 345.6 536 343.2 536 c 0
 303.2 536 273.6 564 260 597.6 c 1
 256.8 590.4 248.8 584.8 240.8 584.8 c 0
 230.4 584.8 220 595.2 220 605.6 c 0
 220 613.6 225.6 620.8 232 624 c 1
 214.4 632 200.8 652 200.8 669.6 c 0
 200.8 676 203.2 683.2 208 688 c 1
 212.8 685.6 217.6 684 221.6 684 c 0
 235.2 684 244.8 695.2 244.8 704 c 0
 244.8 719.2 236.8 730.4 223.2 730.4 c 0
 182.4 730.4 180 667.2 180 591.2 c 0
 180 570.4 180 548 180 525.6 c 1
 196.8 512 205.6 488.8 205.6 466.4 c 0xadfe392d0bba5d30
 205.6 450.4 201.6 435.2 191.2 423.2 c 1
 197.6 406.4 202.4 390.4 202.4 376 c 0
 202.4 357.6 196 341.6 180 327.2 c 1
 180 235.2 188.8 112.8 242.4 97.5996 c 1
 250.4 110.4 264.8 116 278.4 116 c 0
 293.6 116 308.8 108.8 316.8 96 c 1
 333.6 99.2002 340.8 118.4 340.8 141.6 c 0
 340.8 180 320.8 229.6 286.4 239.2 c 1
 286.4 272 315.2 282.4 348 282.4 c 0
 365.6 282.4 383.2 279.2 396.8 276 c 1
 395.2 279.2 394.4 282.4 394.4 286.4 c 0
 394.4 297.6 403.2 307.2 415.2 307.2 c 0
 427.2 307.2 436 297.6 436 286.4 c 0
 436 282.4 435.2 279.2 433.6 276 c 1
 447.2 279.2 464.8 282.4 481.6 282.4 c 0
 512.8 282.4 541.6 273.6 541.6 244 c 0
 541.6 242.4 541.6 240.8 541.6 239.2 c 1
 508 229.6 486.4 180 486.4 141.6 c 0
 486.4 118.4 494.4 99.2002 511.2 96 c 1
 519.2 108.8 535.2 116 550.4 116 c 0
 564 116 578.4 110.4 586.4 97.5996 c 1
 639.2 112.8 648 235.2 648 327.2 c 1
 632 341.6 625.6 357.6 625.6 375.2 c 0
 625.6 390.4 630.4 406.4 637.6 423.2 c 1
 627.2 435.2 622.4 450.4 622.4 466.4 c 0
 622.4 488.8 632 512 648 525.6 c 1
 648 549.6 648.8 573.6 648.8 596.8 c 0xadfe381408a04d10
415.2 303.2 m 0
 406.4 303.2 398.4 295.2 398.4 286.4 c 0
 398.4 281.6 400.8 276.8 404.8 273.6 c 1
 408.8 272 412 271.2 415.2 269.6 c 1
 418.4 271.2 421.6 272.8 425.6 273.6 c 1
 429.6 276.8 432 281.6 432 286.4 c 0
 432 295.2 424 303.2 415.2 303.2 c 0
415.2 116.8 m 1
 424 81.5996 453.6 46.4004 504.8 46.4004 c 0
 509.6 46.4004 509.6 53.5996 504.8 53.5996 c 0
 447.2 53.5996 419.2 104.8 419.2 149.6 c 0
 419.2 184 436 217.6 468 231.2 c 1
 474.4 232.8 471.2 235.2 466.4 232.8 c 0
 440 219.2 422.4 194.4 415.2 167.2 c 1
 408 194.4 390.4 219.2 364 232.8 c 0
 359.2 235.2 356.8 233.6 362.4 231.2 c 0
 394.4 216.8 411.2 182.4 411.2 148 c 0
 411.2 104 384 53.5996 325.6 53.5996 c 0
 320.8 53.5996 320.8 46.4004 325.6 46.4004 c 0x9cfe180404400c10
 376.8 46.4004 406.4 80.7998 415.2 116.8 c 1
212.8 57.5996 m 0
 180.8 63.2002 119.2 156 119.2 250.4 c 0
 119.2 256 111.2 256 111.2 250.4 c 0x8cfe188400000c10
 111.2 152 179.2 55.2002 210.4 50.4004 c 1
 215.2 48.7998 217.6 56.7998 212.8 57.5996 c 0
161.6 373.6 m 1
 163.2 376 162.4 378.4 158.4 376.8 c 0
 145.6 369.6 128 365.6 109.6 365.6 c 0
 90.4004 365.6 72 369.6 60.7998 376.8 c 0
 57.5996 379.2 55.2002 377.6 59.2002 373.6 c 0
 70.4004 364 85.5996 356.8 103.2 356.8 c 1
 104 340 107.2 318.4 108 308.8 c 0
 108 304 113.6 304 113.6 308.8 c 0
 113.6 311.2 112.8 314.4 112.8 317.6 c 0
 112.8 328.8 114.4 344 114.4 356.8 c 1x8efe1a4400000c10
 132 357.6 149.6 364 161.6 373.6 c 1
287.2 744 m 1
 305.6 729.6 314.4 696 314.4 671.2 c 0x8cff5844b0000c10
 314.4 648 308.8 628.8 308.8 610.4 c 0
 308.8 607.2 308.8 603.2 309.6 600 c 1
 311.2 596 312.8 596 312 600 c 0
 311.2 603.2 311.2 605.6 311.2 608.8 c 0
 311.2 628.8 319.2 651.2 319.2 677.6 c 0
 319.2 716 302.4 744.8 273.6 763.2 c 1
 281.6 761.6 289.6 761.6 296.8 761.6 c 0
 312 761.6 324.8 764 330.4 772 c 0
 333.6 776 331.2 776 328.8 772 c 0
 324.8 766.4 315.2 764.8 304 764.8 c 0x8cfe980450000c10
 290.4 764.8 274.4 767.2 260 769.6 c 1
 249.6 774.4 238.4 776.8 226.4 776.8 c 0
 120.8 776.8 108 646.4 108 557.6 c 0
 108 551.2 108 544.8 108 539.2 c 0
 108 535.2 114.4 535.2 114.4 539.2 c 0
 114.4 624 117.6 760.8 216.8 769.6 c 0
 219.2 769.6 221.6 769.6 223.2 769.6 c 0
 242.4 769.6 258.4 764 272.8 755.2 c 1
 281.6 744.8 285.6 728.8 285.6 713.6 c 0
 285.6 691.2 276.8 669.6 261.6 665.6 c 0
 257.6 664.8 257.6 661.6 261.6 662.4 c 0
 281.6 667.2 294.4 690.4 294.4 715.2 c 0x8cff5844b0000c10
 294.4 724.8 292 735.2 287.2 744 c 1
719.2 250.4 m 0
 719.2 256 711.2 256 711.2 250.4 c 0
 702.4 156 649.6 63.2002 617.6 57.5996 c 0
 612.8 56.7998 614.4 48.7998 620 50.4004 c 0
 651.2 55.2002 710.4 152 719.2 250.4 c 0
771.2 373.6 m 0
 775.2 377.6 772.8 379.2 768.8 376.8 c 0
 757.6 369.6 739.2 365.6 720 365.6 c 0
 702.4 365.6 684.8 369.6 672 376.8 c 0
 668 378.4 667.2 376 668.8 373.6 c 1
 680.8 364 698.4 357.6 716 356.8 c 1
 716 343.2 716.8 327.2 716.8 316 c 0
 716.8 312.8 716.8 310.4 716.8 308.8 c 0
 716.8 304 721.6 304 721.6 308.8 c 0
 723.2 318.4 725.6 340 727.2 356.8 c 1x8efe180400000c90
 744.8 357.6 760 364 771.2 373.6 c 0
556.8 763.2 m 1
 528 744.8 511.2 716 511.2 677.6 c 0
 511.2 651.2 519.2 628.8 519.2 608.8 c 0
 519.2 605.6 519.2 603.2 518.4 600 c 0
 517.6 596 519.2 596 520 600 c 0
 520.8 604 520.8 608 520.8 612 c 0
 520.8 629.6 516 648.8 516 671.2 c 0
 516 696 524.8 729.6 543.2 744 c 1
 538.4 735.2 536 724.8 536 715.2 c 0
 536 690.4 548.8 667.2 568.8 662.4 c 0
 572 661.6 572 664.8 568.8 665.6 c 0
 552.8 669.6 544 691.2 544 712.8 c 0
 544 728.8 548.8 744.8 557.6 755.2 c 1
 572 764 588 769.6 607.2 769.6 c 0
 608.8 769.6 611.2 769.6 613.6 769.6 c 0
 712.8 760.8 716 624 716 539.2 c 0
 716 535.2 721.6 535.2 721.6 539.2 c 0
 721.6 547.2 721.6 555.2 721.6 564 c 0
 721.6 652 707.2 776.8 604 776.8 c 0x8cff580400052c50
 592 776.8 580.8 774.4 570.4 769.6 c 1
 555.2 767.2 539.2 764.8 526.4 764.8 c 0x8cfe980400052c50
 514.4 764.8 505.6 766.4 501.6 772 c 0
 498.4 776 496.8 776 500 772 c 0
 504.8 764 517.6 761.6 533.6 761.6 c 0
 540.8 761.6 548.8 761.6 556.8 763.2 c 1
240 8.7998 m 1
 140 14.4004 56 191.2 55.2002 314.4 c 1x8cfe188400000c10
 68.7998 287.2 89.5996 274.4 110.4 274.4 c 0
 132 274.4 154.4 288.8 167.2 316 c 1
 167.2 224.8 179.2 97.5996 239.2 83.2002 c 1
 232.8 72.7998 229.6 59.2002 229.6 45.5996 c 0
 229.6 30.4004 233.6 16 240 8.7998 c 1
238.4 49.5996 m 0xccfe180600000c10
 238.4 79.2002 256 103.2 280.8 103.2 c 0
 292 103.2 302.4 97.5996 308 85.5996 c 1
 300 75.2002 296.8 60.7998 296.8 47.2002 c 0
 296.8 32.7998 300.8 17.5996 308 8.7998 c 1
 303.2 -2.40039 291.2 -8.7998 278.4 -8.7998 c 0
 250.4 -8.7998 238.4 19.2002 238.4 49.5996 c 0xccfe180600000c10
177.6 416.8 m 1
 184 405.6 188 392.8 188 379.2 c 0
 188 362.4 181.6 345.6 165.6 330.4 c 1
 156 298.4 133.6 283.2 111.2 283.2 c 0
 88.7998 283.2 67.2002 299.2 58.4004 328.8 c 1
 44 342.4 36.7998 360.8 36.7998 378.4 c 0x8efe1c0400000c10
 36.7998 393.6 41.5996 408 51.2002 419.2 c 1
 68 404.8 92.7998 398.4 116 398.4 c 0
 140.8 398.4 164 404.8 177.6 416.8 c 1
528 245.6 m 1
 500.8 232.8 474.4 188.8 474.4 144.8 c 0
 474.4 111.2 488 90.4004 510.4 82.4004 c 1
 517.6 75.2002 522.4 60.7998 522.4 45.5996 c 0
 522.4 32.7998 519.2 20 510.4 9.59961 c 1
 505.6 8.7998 500 8.7998 495.2 8.7998 c 0
 464.8 8.7998 435.2 20.7998 414.4 47.2002 c 1
 392.8 20.7998 364.8 8.7998 332.8 8.7998 c 0
 328 8.7998 322.4 8.7998 316.8 9.59961 c 1
 308 18.4004 304.8 32 304.8 44.7998 c 0
 304.8 61.5996 309.6 77.5996 315.2 84.7998 c 1
 343.2 90.4004 353.6 112 353.6 142.4 c 0x9cfe180404400c10
 353.6 185.6 333.6 230.4 298.4 245.6 c 1
 300 264 318.4 270.4 340 270.4 c 0
 366.4 270.4 397.6 260.8 415.2 248 c 1
 432.8 260.8 464 272 488.8 272 c 0
 509.6 272 526.4 264.8 528 245.6 c 1
116.8 408.8 m 0
 69.5996 408.8 34.4004 435.2 34.4004 474.4 c 0
 34.4004 494.4 40.7998 507.2 55.2002 516.8 c 1x8cfe188400000c10
 68 508 88.7998 504.8 109.6 504.8 c 0
 132 504.8 154.4 508.8 168 516.8 c 1
 184.8 505.6 192 491.2 192 467.2 c 0
 192 428.8 160 408.8 116.8 408.8 c 0
588.8 48.7998 m 0x8cfe180400008c10
 588.8 18.4004 576.8 -9.59961 548.8 -9.59961 c 0
 536 -9.59961 524 -3.2002 519.2 8 c 1
 526.4 16.7998 530.4 32 530.4 46.4004 c 0
 530.4 60 527.2 74.4004 519.2 84.7998 c 1
 524.8 96 535.2 101.6 547.2 101.6 c 0
 559.2 101.6 573.6 95.2002 581.6 81.5996 c 0
 586.4 73.5996 588.8 61.5996 588.8 48.7998 c 0x8cfe180400008c10
772 313.6 m 1x8cfe180400000cd0
 771.2 189.6 687.2 13.5996 587.2 8 c 1
 593.6 15.2002 597.6 29.5996 597.6 44.7998 c 0
 597.6 58.4004 594.4 72 588 82.4004 c 1
 648 96 660 224 660 314.4 c 1
 672.8 288 694.4 273.6 716.8 273.6 c 0
 737.6 273.6 758.4 286.4 772 313.6 c 1x8cfe180400000cd0
55.2002 525.6 m 1x8cff18c480000c10
 55.2002 683.2 111.2 805.6 221.6 805.6 c 0x8cff58c480000c10
 260.8 805.6 288 794.4 318.4 794.4 c 0
 328 794.4 337.6 796 348 798.4 c 1
 353.6 791.2 356 782.4 356 772.8 c 0
 356 760 351.2 747.2 341.6 737.6 c 1
 356.8 706.4 362.4 682.4 362.4 663.2 c 0
 362.4 618.4 334.4 594.4 333.6 549.6 c 1
 288 559.2 272.8 601.6 269.6 636.8 c 1x8cfe98c450000c10
 265.6 636 260.8 635.2 256.8 635.2 c 0
 233.6 635.2 214.4 648.8 214.4 668.8 c 0
 214.4 669.6 214.4 670.4 214.4 671.2 c 1
 217.6 670.4 220.8 670.4 224 670.4 c 0
 246.4 670.4 260 688.8 260 704.8 c 0
 260 732 242.4 743.2 223.2 743.2 c 0
 172 743.2 166.4 674.4 166.4 608.8 c 0
 166.4 583.2 167.2 558.4 167.2 539.2 c 0
 167.2 534.4 167.2 529.6 167.2 525.6 c 1
 152.8 517.6 133.6 512.8 112.8 512.8 c 0
 93.5996 512.8 73.5996 516.8 55.2002 525.6 c 1x8cff18c480000c10
776 417.6 m 1
 785.6 406.4 790.4 392 790.4 376.8 c 0
 790.4 359.2 783.2 340.8 768.8 327.2 c 1
 760 297.6 738.4 282.4 716 282.4 c 0
 693.6 282.4 671.2 297.6 661.6 329.6 c 1
 645.6 344 639.2 361.6 639.2 378.4 c 0x8cfe180400000e10
 639.2 391.2 643.2 404 650.4 416 c 1
 663.2 404 687.2 396.8 711.2 396.8 c 0
 735.2 396.8 759.2 403.2 776 417.6 c 1
792.8 473.6 m 0
 792.8 434.4 757.6 408 710.4 408 c 0
 667.2 408 635.2 428 635.2 466.4 c 0
 635.2 489.6 642.4 504.8 659.2 516 c 1
 672.8 508 695.2 504 717.6 504 c 0
 738.4 504 759.2 507.2 772 516 c 1x8cfe180400000c50
 786.4 506.4 792.8 493.6 792.8 473.6 c 0
660.8 608 m 0
 660.8 672.8 655.2 742.4 605.6 742.4 c 0
 585.6 742.4 567.2 732 567.2 704 c 0
 567.2 688 580.8 669.6 603.2 669.6 c 0
 606.4 669.6 609.6 669.6 612.8 670.4 c 1
 612.8 669.6 612.8 668.8 612.8 668 c 0
 612.8 648 593.6 634.4 570.4 634.4 c 0
 566.4 634.4 561.6 635.2 557.6 636 c 1
 554.4 600.8 539.2 558.4 493.6 548.8 c 1
 492.8 593.6 464.8 617.6 464.8 662.4 c 0
 464.8 681.6 470.4 705.6 485.6 736.8 c 1
 476 745.6 471.2 759.2 471.2 772 c 0
 471.2 781.6 473.6 790.4 479.2 797.6 c 1
 489.6 795.2 499.2 793.6 508.8 793.6 c 0
 538.4 793.6 565.6 804 603.2 804 c 0
 716 804 772 684.8 772 524.8 c 1
 753.6 516 733.6 512 715.2 512 c 0
 694.4 512 675.2 516.8 660 524.8 c 1x8cfe180400042cd0
 660 528 660 530.4 660 533.6 c 0
 660 553.6 660.8 580.8 660.8 608 c 0
228.8 812.8 m 0
 88 812.8 48 659.2 48 524 c 1
 33.5996 512.8 27.2002 493.6 27.2002 474.4 c 0
 27.2002 457.6 32 440.8 42.4004 428 c 0
 43.2002 426.4 44.7998 424.8 43.2002 424 c 1
 33.5996 409.6 28 392.8 28 377.6 c 0
 28 360 35.2002 342.4 48 329.6 c 1
 48 184 135.2 5.59961 244 1.59961 c 1
 249.6 -9.59961 264.8 -16 279.2 -16 c 0
 294.4 -16 308.8 -9.59961 313.6 1.59961 c 1
 355.2 1.59961 387.2 9.59961 412 32.7998 c 0
 413.6 33.5996 415.2 33.5996 416 32.7998 c 0
 440.8 9.59961 472 1.59961 513.6 1.59961 c 1
 519.2 -10.4004 534.4 -16.7998 548.8 -16.7998 c 0
 563.2 -16.7998 577.6 -11.2002 583.2 1.59961 c 1
 692 5.59961 779.2 184 779.2 329.6 c 1
 792 342.4 799.2 360 799.2 378.4 c 0
 799.2 393.6 794.4 409.6 784.8 424 c 0
 784 424.8 784.8 426.4 785.6 428 c 0
 796 440 800.8 456.8 800.8 473.6 c 0
 800.8 492.8 793.6 512.8 779.2 524 c 1
 779.2 659.2 740 812.8 599.2 812.8 c 0
 564.8 812.8 535.2 803.2 507.2 803.2 c 0
 496.8 803.2 488 804 478.4 807.2 c 1
 468.8 797.6 464 784 464 770.4 c 0
 464 757.6 468 745.6 475.2 735.2 c 1
 462.4 704 458.4 680 458.4 660 c 0
 458.4 609.6 488 588.8 488 546.4 c 0
 488 544.8 488 543.2 488 541.6 c 1
 532 548 561.6 580.8 569.6 625.6 c 0
 569.6 628.8 578.4 626.4 581.6 626.4 c 0
 603.2 626.4 620.8 650.4 620.8 669.6 c 0
 620.8 674.4 620 678.4 618.4 681.6 c 1
 613.6 679.2 608.8 677.6 604 677.6 c 0
 588.8 677.6 577.6 692.8 577.6 704 c 0
 577.6 722.4 587.2 736 604.8 736 c 0
 649.6 736 653.6 671.2 653.6 596.8 c 0
 653.6 573.6 652.8 548.8 652.8 524 c 1
 636.8 511.2 628 488.8 628 467.2 c 0
 628 451.2 632.8 435.2 643.2 424 c 1
 636 408.8 631.2 392.8 631.2 377.6 c 0
 631.2 359.2 637.6 342.4 652.8 329.6 c 1
 652.8 233.6 646.4 108.8 586.4 90.4004 c 0
 584 89.5996 583.2 90.4004 582.4 92.7998 c 0
 576 104.8 562.4 110.4 548.8 110.4 c 0
 535.2 110.4 520.8 103.2 514.4 91.2002 c 1
 490.4 92.7998 480.8 115.2 480.8 141.6 c 0
 480.8 181.6 502.4 230.4 536.8 241.6 c 1
 536.8 242.4 l 0
 536.8 268 511.2 276 483.2 276 c 0
 456.8 276 428 268.8 416.8 262.4 c 0
 416 261.6 414.4 261.6 413.6 262.4 c 0
 402.4 268.8 372.8 276 346.4 276 c 0
 317.6 276 291.2 268 291.2 242.4 c 0
 291.2 241.6 l 1
 325.6 230.4 347.2 180.8 347.2 141.6 c 0
 347.2 114.4 336.8 92 312.8 91.2002 c 1
 306.4 103.2 292.8 110.4 279.2 110.4 c 0
 265.6 110.4 252.8 104.8 246.4 92.7998 c 0
 244.8 90.4004 244 89.5996 242.4 90.4004 c 0
 182.4 106.4 174.4 233.6 174.4 329.6 c 1
 189.6 342.4 196 359.2 196 377.6 c 0xacfe39350b1a5d30
 196 392.8 191.2 408.8 184 424 c 1
 194.4 435.2 199.2 451.2 199.2 467.2 c 0
 199.2 488.8 190.4 511.2 174.4 524 c 1
 174.4 544.8 174.4 566.4 174.4 586.4 c 0
 174.4 666.4 176.8 735.2 222.4 735.2 c 0
 240.8 735.2 251.2 723.2 251.2 704 c 0
 251.2 692.8 240 677.6 224 677.6 c 0
 220 677.6 214.4 679.2 209.6 681.6 c 1
 208 678.4 207.2 674.4 207.2 669.6 c 0
 207.2 650.4 224.8 626.4 247.2 626.4 c 0
 250.4 626.4 258.4 628.8 258.4 625.6 c 0
 266.4 580.8 296 548 340 541.6 c 1
 340 542.4 340 544 340 544.8 c 0
 340 588 368.8 608.8 368.8 659.2 c 0
 368.8 678.4 364.8 703.2 352 735.2 c 1
 360 745.6 364 758.4 364 771.2 c 0
 364 784.8 359.2 797.6 350.4 807.2 c 1
 340.8 804 331.2 803.2 321.6 803.2 c 0xacfe382d03000c10
 293.6 803.2 264 812.8 228.8 812.8 c 0
589.6 622.4 m 1
 582.4 620 578.4 620.8 574.4 616 c 1
 572.8 611.2 572 607.2 570.4 603.2 c 1
 572 595.2 579.2 588.8 587.2 588.8 c 0
 596 588.8 604 596.8 604 605.6 c 0
 604 613.6 597.6 620.8 589.6 622.4 c 1
237.6 622.4 m 1
 230.4 620.8 224 613.6 224 605.6 c 0
 224 596.8 232 588.8 240.8 588.8 c 0
 248.8 588.8 256 595.2 257.6 603.2 c 1
 256 607.2 255.2 611.2 253.6 616 c 1
 252 617.6 250.4 619.2 248 620.8 c 1
 244.8 620.8 241.6 620.8 237.6 622.4 c 1
EndSplineSet
Validated: 1
EndChar

StartChar: y
Encoding: 121 121 39
Width: 660
VWidth: 1240
Flags: W
HStem: -273 99<81.8481 190.48> 508 41<9.00302 69.5 199.957 259.991 412.009 478.2 558.464 623.997>
LayerCount: 2
Fore
SplineSet
248 -184 m 0
 203 -263 153 -273 126 -273 c 0
 94 -273 69 -253 69 -227 c 0
 69 -211 87 -174 124 -174 c 0
 136 -174 142 -177 159 -177 c 0
 191 -177 209 -166 221 -141 c 1
 241 -103 255 -68 270 -27 c 0
 272 -20 274 -10 274 0 c 0
 274 32 260 70 253 89 c 2
 112 415 l 2
 80 491 63 502 15 508 c 1
 10 512 9 520 9 529 c 0
 9 536 10 545 15 549 c 1
 40 549 72 547 114 547 c 0
 159 547 208 549 255 549 c 1
 257 545 260 536 260 529 c 0
 260 520 257 512 255 508 c 1
 213 508 198 496 198 477 c 0
 198 465 205 449 215 428 c 2
 324 170 l 2
 330 158 335 153 340 153 c 0
 345 153 349 159 353 169 c 2
 476 453 l 2
 480 462 482 468 482 474 c 0
 482 500 449 508 417 508 c 1
 415 512 412 520 412 529 c 0
 412 536 415 545 417 549 c 1
 454 549 494 547 531 547 c 0
 566 547 593 549 618 549 c 1
 623 545 624 536 624 529 c 0
 624 520 623 512 618 508 c 1
 561 501 542 481 518 429 c 0
 452 290 397 162 298 -77 c 0
 283 -114 267 -149 248 -184 c 0
EndSplineSet
Validated: 19457
EndChar

StartChar: braceleft
Encoding: 123 123 40
Width: 256
VWidth: 800
Flags: W
HStem: -193.6 16<206.788 236.8> 274.4 16<12 40.5228> 745.6 16<206.788 236.8>
VStem: 92 52<-100.592 216.113 344.547 667.85>
LayerCount: 2
Fore
SplineSet
92 44.7998 m 0
 92 197.6 67.2002 274.4 16.7998 274.4 c 0
 15.2002 274.4 13.5996 274.4 12 274.4 c 1
 12 290.4 l 1
 13.5996 290.4 15.2002 290.4 16.7998 290.4 c 0
 67.2002 290.4 92 367.2 92 521.6 c 0
 92 681.6 140 761.6 236.8 761.6 c 1
 236.8 745.6 l 1
 175.2 745.6 144 680 144 548.8 c 2
 144 516.8 l 2
 144 387.2 122.4 309.6 79.2002 282.4 c 1
 122.4 249.6 144 170.4 144 44.7998 c 2
 144 13.5996 l 2
 144 -113.6 175.2 -177.6 236.8 -177.6 c 1
 236.8 -193.6 l 1
 140 -193.6 92 -114.4 92 44.7998 c 0
EndSplineSet
Validated: 1
EndChar

StartChar: bar
Encoding: 124 124 41
Width: 128
VWidth: 800
Flags: W
VStem: 43.2002 44.7998<-244.8 825.6>
LayerCount: 2
Fore
SplineSet
88 -244.8 m 1
 43.2002 -259.2 l 1
 43.2002 825.6 l 1
 88 840.8 l 1
 88 -244.8 l 1
EndSplineSet
Validated: 1
EndChar

StartChar: braceright
Encoding: 125 125 42
Width: 241
VWidth: 800
Flags: W
HStem: -193.6 16<4.7998 34.812> 274.4 16<201.077 229.6> 745.6 16<4.7998 34.812>
VStem: 97.5996 52.0004<-100.592 216.113 344.547 667.85>
LayerCount: 2
Fore
SplineSet
4.7998 -193.6 m 1
 4.7998 -177.6 l 1
 66.4004 -177.6 97.5996 -113.6 97.5996 13.5996 c 2
 97.5996 44.7998 l 2
 97.5996 170.4 119.2 249.6 162.4 282.4 c 1
 119.2 309.6 97.5996 387.2 97.5996 516.8 c 2
 97.5996 548.8 l 2
 97.5996 680 66.4004 745.6 4.7998 745.6 c 1
 4.7998 761.6 l 1
 101.6 761.6 149.6 681.6 149.6 521.6 c 0
 149.6 367.2 174.4 290.4 224.8 290.4 c 0
 226.4 290.4 228 290.4 229.6 290.4 c 1
 229.6 274.4 l 1
 228 274.4 226.4 274.4 224.8 274.4 c 0
 174.4 274.4 149.6 197.6 149.6 44.7998 c 0
 149.6 -114.4 101.6 -193.6 4.7998 -193.6 c 1
EndSplineSet
Validated: 1
EndChar

StartChar: asciitilde
Encoding: 126 126 43
Width: 983
VWidth: 800
Flags: W
HStem: 48 49.5996<366.339 615.721> 885.6 47.2<370.033 613.904>
VStem: 48.7998 49.6006<366.476 614.932> 887.2 47.2<367.639 614.481>
LayerCount: 2
Fore
SplineSet
934.4 490.4 m 0
 934.4 247.2 736 48 491.2 48 c 0
 248 48 48.7998 246.4 48.7998 491.2 c 0
 48.7998 734.4 248 932.8 490.4 932.8 c 1
 493.6 932.8 l 2
 736 932.8 934.4 733.6 934.4 490.4 c 0
751.2 788.8 m 1
 682.4 848.8 591.2 885.6 492.8 885.6 c 0
 275.2 885.6 98.4004 708.8 98.4004 492 c 0
 98.4004 392 134.4 301.6 196 232.8 c 1
 751.2 788.8 l 1
887.2 492 m 0
 887.2 592.8 848.8 684 785.6 754.4 c 1
 771.2 739.2 494.4 469.6 230.4 197.6 c 1
 299.2 134.4 392 97.5996 492.8 97.5996 c 0
 709.6 97.5996 887.2 274.4 887.2 492 c 0
EndSplineSet
Validated: 1
EndChar

StartChar: uni0410
Encoding: 1040 1040 44
Width: 541
VWidth: 800
Flags: W
HStem: -10 4<305.121 335.625 392.569 405.372> -7 4<135.403 147.597 445.711 494.105> -6 4<45 89.7941 196.292 243.37> 6 28<98 123.033 179 197.5> 6 11<207.125 221.758 452.125 465.901> 184 16<389.008 397.905> 207 21<389.044 397.723> 240 18<181.033 225.936> 266 73<155.601 257.366> 281 29<348.806 440.863> 318 47<331.908 449.732> 374 28<387.19 395.612> 582 4<222.845 257.195> 596 28<370 395.915> 632 49<335.932 454.046> 670 4<275.396 297.602> 682 21<269.564 303.779 371.084 371.555> 686 1<227.278 231> 694 30<188.473 272.538 361.603 447.174> 711 27<242.258 303.933> 730 4<218.179 246.738> 746 4<284.19 310.239> 763 27<403.753 409.167> 788 2.5<458.629 469.342> 792 2<343.79 355.244> 797 5<392.83 420.025>
VStem: 90 6<245.187 288.552> 102 6<319.023 348.912> 129 4<-0.248901 7.95837> 133 3<164.508 172> 138 4<377.707 390.562> 143 5<687.011 718.948> 150 4<-0.536743 8> 157 24.5<709.155 714.5> 159 34<75.1562 117.484> 174 4<625.758 648.451> 189 24<618.501 659.291> 192 1<171.129 175> 198 5<151.302 187.675> 219 20<618.331 665.215> 248 6<619.327 650.528> 254 5<234.106 257.843> 304 18<703 710.453> 311 5<276.052 308.745> 318 5<612.407 646.677> 328 140<298.078 309.707 341.439 364.942 632.363 671.729> 328 4<164.872 248.622> 332 3<771.125 783.87> 336 51<63.8309 183.999 402.001 595.999> 386 4<-3.44873 5.95502> 396 47<80.5322 183.999 228.001 232 402.001 595.999> 408 4<-3.42822 5.94141> 410 68<725.379 748.907> 442 3<229.07 232> 452 6<157.943 252.21 389.473 612.027> 478 3<342.75 362.251 765.548 778.705> 486 4<701.123 728.482>
DStem2: 222 237 190 194 0.926947 0.375193<-29.506 4.69655 176.811 231.506>
AnchorPoint: "Diacritic" 408 891 basechar 0
LayerCount: 2
Fore
SplineSet
399.2 11.2002 m 1x00007f38380348
 396 9.59961 390.4 8.7998 390.4 3.2002 c 0
 390.4 -1.59961 394.4 -5.59961 399.2 -5.59961 c 0
 404 -5.59961 408 -1.59961 408 3.2002 c 0
 408 4.7998 407.2 6.40039 407.2 7.2002 c 1
 404 8.7998 401.6 9.59961 399.2 11.2002 c 1x00007f38380348
141.6 14.4004 m 1
 137.6 12 132.8 11.2002 132.8 5.59961 c 0
 132.8 0.799805 136.8 -3.2002 141.6 -3.2002 c 0x40007fb8380048
 146.4 -3.2002 150.4 0.799805 150.4 5.59961 c 0
 150.4 7.2002 150.4 8.7998 149.6 10.4004 c 1
 146.4 11.2002 144 12.7998 141.6 14.4004 c 1
464 788 m 0
 455.2 788 449.6 780 449.6 773.6 c 0
 449.6 768 452 763.2 456.8 760 c 1
 460.8 758.4 464 756.8 470.4 759.2 c 1
 476 762.4 478.4 767.2 478.4 772 c 0x00007f38380068
 478.4 780 472 788 464 788 c 0
463.2 790.4 m 0
 471.2 790.4 480.8 785.6 480.8 774.4 c 0x40a0ffb9391368
 480.8 765.6 476.8 756.8 467.2 755.2 c 1
 482.4 746.4 490.4 732 490.4 715.2 c 0
 490.4 701.6 485.6 687.2 472.8 673.6 c 1
 479.2 665.6 482.4 656.8 482.4 648.8 c 0
 482.4 634.4 473.6 620 457.6 610.4 c 1
 457.6 391.2 l 1
 471.2 384.8 482.4 369.6 482.4 353.6 c 0
 482.4 347.2 480.8 340.8 476.8 334.4 c 1
 481.6 324 484 313.6 484 303.2 c 0
 484 280.8 472.8 260.8 456 248.8 c 1
 456 153.6 461.6 60.7998 517.6 8 c 0
 518.4 8 518.4 7.2002 518.4 6.40039 c 0
 518.4 5.59961 517.6 4.7998 516 4 c 0
 504 -4 488.8 -8 472 -8 c 0
 453.6 -8 432.8 -4 411.2 5.59961 c 1
 412 4 412 3.2002 412 1.59961 c 0
 412 -4.7998 406.4 -9.59961 399.2 -9.59961 c 0
 392.8 -9.59961 386.4 -4.7998 386.4 1.59961 c 0
 386.4 3.2002 386.4 4 387.2 5.59961 c 1
 364.8 -4 340.8 -9.59961 318.4 -9.59961 c 0x80a0ff38380358
 298.4 -9.59961 280.8 -4.7998 269.6 5.59961 c 0
 269.6 5.59961 269.6 6.40039 268.8 6.40039 c 1
 268.8 5.59961 l 0
 258.4 -2.40039 241.6 -6.40039 222.4 -6.40039 c 0
 200 -6.40039 174.4 -1.59961 154.4 8 c 1
 154.4 7.2002 154.4 5.59961 154.4 4.7998 c 0
 154.4 -1.59961 148.8 -7.2002 141.6 -7.2002 c 0
 134.4 -7.2002 128.8 -1.59961 128.8 4.7998 c 0
 128.8 5.59961 128.8 7.2002 129.6 8 c 1
 110.4 -0.799805 88.7998 -5.59961 69.5996 -5.59961 c 0
 52 -5.59961 36 -1.59961 24.7998 8 c 0
 24 8 23.2002 9.59961 23.2002 9.59961 c 0
 23.2002 11.2002 24 11.2002 24.7998 12 c 0
 87.2002 61.5996 120 129.6 124 201.6 c 1
 102.4 216.8 89.5996 244 89.5996 268.8 c 0
 89.5996 285.6 96 302.4 108 312.8 c 1
 104 319.2 102.4 326.4 102.4 333.6 c 0
 102.4 353.6 115.2 375.2 138.4 378.4 c 1
 138.4 379.2 138.4 380 138.4 380.8 c 0
 138.4 434.4 201.6 501.6 252.8 540.8 c 0
 285.6 567.2 317.6 589.6 317.6 634.4 c 0
 317.6 651.2 306.4 669.6 286.4 669.6 c 0
 269.6 669.6 253.6 657.6 253.6 635.2 c 0
 253.6 618.4 264.8 604 280 596 c 0
 282.4 595.2 282.4 592.8 280 592 c 0
 267.2 584.8 252.8 581.6 240 581.6 c 0
 204.8 581.6 174.4 604.8 174.4 636 c 0
 174.4 639.2 174.4 642.4 175.2 645.6 c 1
 152 664.8 143.2 685.6 143.2 704 c 0
 143.2 733.6 166.4 758.4 192 760 c 1
 196 744 213.6 734.4 230.4 734.4 c 0
 257.6 734.4 273.6 750.4 296 750.4 c 0
 304 750.4 313.6 748.8 325.6 742.4 c 1
 328.8 750.4 335.2 756.8 344 760 c 1
 336.8 763.2 332 770.4 332 778.4 c 0x40a0ffb9391358
 332 788 341.6 794.4 350.4 794.4 c 0
 358.4 794.4 365.6 789.6 366.4 780 c 1
 375.2 793.6 390.4 801.6 406.4 801.6 c 0
 421.6 801.6 436.8 793.6 446.4 777.6 c 1
 447.2 786.4 455.2 790.4 463.2 790.4 c 0
87.2002 17.5996 m 0
 89.5996 20 90.4004 22.4004 90.4004 24.7998 c 0
 90.4004 28.7998 87.2002 33.5996 83.2002 33.5996 c 0
 81.5996 33.5996 79.2002 32.7998 77.5996 31.2002 c 0
 68.7998 25.5996 80.7998 12.7998 87.2002 17.5996 c 0
207.2 20 m 1
 212.8 14.4004 221.6 16.7998 221.6 24 c 0
 221.6 28.7998 218.4 32.7998 213.6 32.7998 c 0
 207.2 32.7998 203.2 26.4004 207.2 20 c 1
194.4 38.4004 m 0
 176 54.4004 160.8 82.4004 159.2 112.8 c 0x00007f3c380048
 159.2 117.6 153.6 119.2 151.2 113.6 c 0
 141.6 84.7998 124 52 101.6 37.5996 c 0
 95.2002 33.5996 98.4004 32.7998 103.2 35.2002 c 0
 120 44 132.8 55.2002 144.8 76.7998 c 0
 148.8 83.2002 151.2 88.7998 153.6 94.4004 c 1
 159.2 65.5996 174.4 48.7998 192.8 35.2002 c 0
 198.4 31.2002 199.2 33.5996 194.4 38.4004 c 0
323.2 20 m 1x00007f38388048
 328.8 14.4004 337.6 16 337.6 24 c 0
 337.6 28 333.6 33.5996 329.6 33.5996 c 0
 324 33.5996 319.2 26.4004 323.2 20 c 1x00007f38388048
222.4 236.8 m 0
 227.2 237.6 225.6 243.2 220 241.6 c 0
 213.6 240.8 207.2 240 201.6 240 c 0
 166.4 240 147.2 254.4 128 271.2 c 0
 124 275.2 120 272 124 268.8 c 0
 136 256 148.8 244 165.6 236.8 c 1
 160.8 218.4 160 206.4 160 188 c 0
 160 183.2 160 178.4 160 172.8 c 0
 160 167.2 165.6 167.2 165.6 172.8 c 0x10007f3a380048
 167.2 200.8 168 212 172.8 235.2 c 1
 179.2 232.8 185.6 232 192.8 232 c 0
 202.4 232 212 234.4 222.4 236.8 c 0
452 20 m 1
 457.6 14.4004 466.4 16.7998 466.4 24 c 0
 466.4 28.7998 463.2 32.7998 458.4 32.7998 c 0
 452 32.7998 448 26.4004 452 20 c 1
441.6 41.5996 m 0
 415.2 71.2002 404 129.6 398.4 180.8 c 0
 397.6 185.6 388.8 184.8 388.8 180 c 0x00007f38384048
 384.8 129.6 375.2 72 350.4 44 c 0
 346.4 40 346.4 36 350.4 40 c 0
 372 61.5996 388.8 104.8 394.4 147.2 c 1
 402.4 104.8 416.8 64 439.2 38.4004 c 0
 443.2 34.4004 445.6 37.5996 441.6 41.5996 c 0
445.6 292.8 m 0
 449.6 296.8 446.4 299.2 442.4 296 c 0
 429.6 284.8 411.2 280.8 393.6 280.8 c 1
 376.8 282.4 360.8 284.8 348.8 295.2 c 0
 344.8 299.2 342.4 296.8 346.4 292.8 c 0
 356.8 280.8 372 275.2 388.8 273.6 c 1
 388.8 232 l 2
 388.8 226.4 397.6 226.4 397.6 232 c 2
 397.6 273.6 l 1
 399.2 273.6 400.8 273.6 402.4 273.6 c 0x24007f383840c8
 419.2 273.6 433.6 280.8 445.6 292.8 c 0
323.2 480.8 m 1x00007f38388048
 323.2 510.4 l 1
 296 462.4 234.4 421.6 223.2 352 c 1
 262.4 377.6 306.4 433.6 323.2 480.8 c 1x00007f38388048
304.8 532.8 m 0x00007f383c0048
 308.8 537.6 301.6 544 297.6 539.2 c 0
 252 479.2 212.8 468.8 181.6 383.2 c 0
 180 377.6 188 373.6 189.6 379.2 c 0
 220 464.8 258.4 475.2 304.8 532.8 c 0x00007f383c0048
396 407.2 m 2
 396 592 l 2
 396 597.6 387.2 597.6 387.2 592 c 2
 387.2 407.2 l 2
 387.2 400.8 396 400.8 396 407.2 c 2
219.2 637.6 m 0
 219.2 676 252.8 703.2 288.8 703.2 c 0
 293.6 703.2 297.6 702.4 300.8 701.6 c 0
 305.6 700 304 708 299.2 709.6 c 0
 296 711.2 292 711.2 287.2 711.2 c 0x01117f38b80048
 258.4 711.2 252 694.4 220.8 694.4 c 0
 207.2 694.4 194.4 698.4 184.8 712 c 0
 180.8 716.8 180 715.2 183.2 708.8 c 0
 189.6 692.8 208 687.2 227.2 687.2 c 0
 228.8 687.2 229.6 687.2 231.2 687.2 c 0
 232 687.2 232 687.2 232.8 687.2 c 1
 232 687.2 232 686.4 231.2 686.4 c 0
 219.2 677.6 212.8 661.6 212.8 646.4 c 0
 212.8 636 216 626.4 222.4 620.8 c 0
 227.2 615.2 226.4 618.4 222.4 624 c 0x010a7f38b80048
 220 627.2 219.2 632 219.2 637.6 c 0
454.4 711.2 m 0
 445.6 720 426.4 728.8 410.4 729.6 c 1
 408.8 760 l 2
 408.8 764.8 404 764.8 404 760 c 2
 402.4 729.6 l 1
 382.4 728.8 365.6 722.4 354.4 711.2 c 0
 350.4 707.2 350.4 703.2 355.2 705.6 c 0
 372.8 716.8 386.4 720.8 406.4 720.8 c 0x00047f38380048
 421.6 720.8 440.8 713.6 452 705.6 c 1
 457.6 703.2 458.4 707.2 454.4 711.2 c 0
249.6 9.59961 m 1
 240 7.2002 229.6 5.59961 220 5.59961 c 0
 189.6 5.59961 160.8 16.7998 141.6 30.4004 c 1
 121.6 17.5996 93.5996 6.40039 68 6.40039 c 0
 59.2002 6.40039 51.2002 8 43.2002 11.2002 c 1
 85.5996 43.2002 124 102.4 132.8 173.6 c 0
 133.6 173.6 134.4 172 136 172 c 1
 136.8 154.4 146.4 138.4 156.8 131.2 c 1
 175.2 140 185.6 152 192 172 c 0
 192.8 172 192 175.2 192.8 175.2 c 1
 192.8 172 192.8 168.8 192.8 166.4 c 0x00007f7c380048
 192.8 105.6 215.2 47.2002 249.6 9.59961 c 1
244 237.6 m 0
 236.8 214.4 217.6 204.8 190.4 194.4 c 1
 189.6 177.6 176 148.8 157.6 140 c 1
 143.2 153.6 138.4 181.6 136.8 207.2 c 1x20007f3a380048
 119.2 223.2 105.6 243.2 105.6 270.4 c 0
 105.6 272 105.6 273.6 105.6 275.2 c 0
 105.6 286.4 114.4 300 123.2 300 c 0
 125.6 300 127.2 299.2 129.6 296.8 c 0
 141.6 284.8 154.4 275.2 176 267.2 c 0
 201.6 258.4 224 257.6 241.6 257.6 c 1x10007f3a380048
 246.4 249.6 246.4 247.2 244 237.6 c 0
496.8 8 m 1
 487.2 4.7998 477.6 3.2002 468 3.2002 c 0
 443.2 3.2002 418.4 13.5996 399.2 25.5996 c 1
 375.2 13.5996 350.4 2.40039 323.2 2.40039 c 0
 312 2.40039 300 4 288 8.7998 c 1
 337.6 72.7998 340 144.8 340 209.6 c 0
 340 215.2 340 220.8 340 226.4 c 1
 341.6 226.4 342.4 227.2 343.2 227.2 c 0
 348.8 212 369.6 200 391.2 200 c 0
 415.2 200 432.8 208.8 442.4 232 c 0
 443.2 232 443.2 232 444.8 232 c 1x00007f383804c8
 444.8 155.2 446.4 78.4004 496.8 8 c 1
326.4 383.2 m 2
 326.4 367.2 325.6 355.2 317.6 340 c 0
 303.2 312 285.6 292 262.4 276 c 0
 252 268.8 239.2 265.6 225.6 265.6 c 0
 180 265.6 137.6 293.6 120.8 320.8 c 0
 117.6 325.6 116 330.4 116 335.2 c 0
 116 352.8 132.8 367.2 145.6 367.2 c 0
 146.4 367.2 146.4 367.2 147.2 367.2 c 0
 159.2 357.6 185.6 339.2 212 339.2 c 0x08007f38380048
 220 339.2 228 340 232.8 343.2 c 0
 272.8 365.6 305.6 416.8 326.4 456.8 c 1
 326.4 383.2 l 2
470.4 304 m 0
 468.8 283.2 461.6 266.4 442.4 253.6 c 1
 436.8 224.8 417.6 207.2 391.2 207.2 c 0
 364.8 207.2 347.2 226.4 341.6 253.6 c 1
 332.8 261.6 324.8 280 324.8 300 c 0
 324.8 309.6 326.4 319.2 331.2 328.8 c 1
 342.4 318.4 370.4 310.4 397.6 310.4 c 0x24007f383840c8
 424 310.4 447.2 316 464 327.2 c 1
 468.8 319.2 470.4 312.8 470.4 304 c 0
328.8 519.2 m 2
 327.2 480 l 1
 309.6 432 258.4 359.2 219.2 347.2 c 1
 226.4 426.4 299.2 467.2 323.2 520 c 0x00007f38388048
 324.8 523.2 328.8 522.4 328.8 519.2 c 2
327.2 533.6 m 1x01007f383c0048
 287.2 462.4 226.4 441.6 211.2 346.4 c 1
 189.6 349.6 165.6 361.6 150.4 374.4 c 1
 150.4 434.4 213.6 492.8 260.8 529.6 c 0
 290.4 553.6 313.6 573.6 327.2 610.4 c 1x01007f38388048
 327.2 533.6 l 1x01007f383c0048
468.8 356 m 1
 468 340 463.2 335.2 454.4 331.2 c 0
 437.6 323.2 416.8 318.4 397.6 318.4 c 0
 368.8 318.4 344.8 328.8 327.2 340.8 c 1
 331.2 348.8 334.4 362.4 334.4 373.6 c 0
 334.4 374.4 334.4 376 334.4 376.8 c 1
 352 368 369.6 364.8 393.6 364.8 c 0x02007f38388048
 415.2 364.8 430.4 368.8 447.2 380.8 c 1
 459.2 378.4 468.8 368.8 468.8 358.4 c 0
 468.8 357.6 468.8 356.8 468.8 356 c 1
443.2 387.2 m 1x01007f38380848
 424.8 377.6 412.8 374.4 392.8 374.4 c 0
 369.6 374.4 356.8 376.8 336 387.2 c 1
 336 605.6 l 1
 348 617.6 369.6 624 392.8 624 c 0
 412.8 624 426.4 618.4 443.2 606.4 c 1
 443.2 387.2 l 1x01007f38380848
228 724 m 0x00027f38b80048
 255.2 724 276.8 738.4 299.2 738.4 c 0
 308 738.4 316.8 736 325.6 729.6 c 1
 323.2 723.2 322.4 716 322.4 708.8 c 0
 322.4 696.8 325.6 684 333.6 673.6 c 1
 330.4 670.4 326.4 665.6 324.8 660.8 c 1
 318.4 670.4 304 681.6 287.2 681.6 c 0x00117f38b80048
 262.4 681.6 239.2 664.8 239.2 636 c 0
 239.2 620 248 605.6 258.4 596.8 c 1
 252 594.4 245.6 592.8 240 592.8 c 0
 212.8 592.8 188.8 615.2 188.8 639.2 c 0
 188.8 644.8 190.4 650.4 192.8 656 c 1
 167.2 664 156.8 683.2 156.8 702.4 c 0
 156.8 721.6 167.2 740 184 746.4 c 1
 189.6 733.6 207.2 724 228 724 c 0x00027f38b80048
395.2 680.8 m 0x00407f38380848
 424.8 680.8 468 676 468 649.6 c 0
 468 632.8 457.6 622.4 443.2 616.8 c 1
 432 624 412.8 632 391.2 632 c 0
 369.6 632 350.4 625.6 336 617.6 c 1
 331.2 624 328 633.6 328 641.6 c 0
 328 644 328.8 646.4 329.6 648.8 c 0
 338.4 673.6 367.2 680.8 395.2 680.8 c 0x00407f38380848
458.4 677.6 m 1
 440.8 684 418.4 688 396 688 c 0
 376 688 356 684.8 340 678.4 c 1x00047f38380448
 333.6 686.4 330.4 698.4 330.4 710.4 c 0
 330.4 731.2 340.8 752.8 367.2 752.8 c 0
 367.2 752.8 368 752.8 368.8 752.8 c 0
 376 778.4 391.2 789.6 405.6 789.6 c 0
 421.6 789.6 437.6 776 441.6 754.4 c 1
 468 747.2 477.6 731.2 477.6 715.2 c 0
 477.6 700.8 469.6 685.6 458.4 677.6 c 1
286.4 673.6 m 0x84a0ffb97aa058
 310.4 673.6 323.2 656.8 323.2 636 c 0x84a0ff39390048
 323.2 592 292 564.8 256.8 536.8 c 0
 204.8 496.8 142.4 434.4 142.4 373.6 c 1
 120.8 371.2 108 351.2 108 333.6 c 0
 108 326.4 110.4 319.2 114.4 314.4 c 0
 115.2 313.6 115.2 312 114.4 310.4 c 0
 101.6 300.8 96 284.8 96 268.8 c 0
 96 244 108 217.6 128.8 203.2 c 1
 124.8 131.2 92.7998 61.5996 30.4004 9.59961 c 1
 40.7998 2.40039 53.5996 -0.799805 68.7998 -0.799805 c 0
 92 -0.799805 120 7.2002 141.6 20 c 1
 163.2 6.40039 196 -1.59961 223.2 -1.59961 c 0
 239.2 -1.59961 253.6 1.59961 262.4 8 c 1
 214.4 56.7998 199.2 125.6 198.4 189.6 c 1
 226.4 197.6 254.4 220.8 254.4 248 c 0
 254.4 252 253.6 256 252.8 260 c 1
 275.2 272 309.6 305.6 317.6 328.8 c 0
 318.4 331.2 322.4 329.6 321.6 326.4 c 0
 318.4 313.6 316 303.2 316 293.6 c 0
 316 277.6 320.8 264.8 331.2 250.4 c 1
 332 236 332 220.8 332 207.2 c 0
 332 126.4 319.2 52.7998 275.2 8 c 1
 285.6 -0.799805 300.8 -4.7998 318.4 -4.7998 c 0
 341.6 -4.7998 367.2 1.59961 390.4 10.4004 c 1
 392.8 12.7998 396 14.4004 399.2 14.4004 c 0
 403.2 14.4004 406.4 12.7998 408.8 10.4004 c 1
 431.2 1.59961 452.8 -4 472.8 -4 c 0
 487.2 -4 500 -0.799805 511.2 5.59961 c 1
 457.6 60.7998 451.2 153.6 451.2 250.4 c 1
 467.2 260.8 479.2 281.6 479.2 304.8 c 0
 479.2 314.4 476.8 324.8 472 334.4 c 1
 476 340 477.6 346.4 477.6 352.8 c 0
 477.6 368 465.6 384 452 389.6 c 1
 452 612.8 l 1
 468 621.6 476.8 635.2 476.8 648.8 c 0
 476.8 656.8 473.6 664.8 467.2 671.2 c 0
 466.4 672.8 466.4 674.4 467.2 675.2 c 0
 480 688 486.4 702.4 486.4 715.2 c 0
 486.4 736 472 753.6 448.8 759.2 c 1
 443.2 784.8 424.8 796.8 406.4 796.8 c 0
 388 796.8 369.6 784 363.2 759.2 c 1
 348 759.2 331.2 751.2 327.2 736.8 c 1
 315.2 743.2 305.6 745.6 296.8 745.6 c 0
 274.4 745.6 258.4 730.4 232.8 730.4 c 0
 214.4 730.4 193.6 738.4 188.8 756 c 1
 168 751.2 148 729.6 148 703.2 c 0
 148 685.6 156.8 666.4 179.2 648.8 c 1
 178.4 645.6 178.4 642.4 178.4 639.2 c 0
 178.4 608.8 208 586.4 241.6 586.4 c 0
 252.8 586.4 264 588.8 274.4 593.6 c 1
 260 603.2 248 617.6 248 635.2 c 0
 248 659.2 266.4 673.6 286.4 673.6 c 0x84a0ffb97aa058
349.6 792 m 0
 340 792 335.2 784 335.2 776.8 c 0x00007f38381048
 335.2 769.6 340.8 762.4 349.6 762.4 c 1
 354.4 763.2 357.6 764 360.8 766.4 c 1
 361.6 770.4 363.2 773.6 364.8 776.8 c 1
 364.8 784 357.6 792 349.6 792 c 0
268.8 8.7998 m 1
 269.6 9.59961 l 0
 316.8 54.4004 328 129.6 328 212.8 c 0
 328 224.8 328 236.8 327.2 248.8 c 1
 316.8 264 311.2 276 311.2 292 c 0
 311.2 296.8 312 302.4 312.8 308.8 c 1
 300 288.8 276 268.8 257.6 257.6 c 1
 259.2 252.8 259.2 248.8 259.2 244.8 c 0
 259.2 216 232 195.2 203.2 187.2 c 1x10007f387aa048
 204.8 124.8 218.4 56.7998 268.8 9.59961 c 0
 268.8 9.59961 268.8 9.59961 268.8 8.7998 c 1
EndSplineSet
Validated: 1
EndChar

StartChar: uni0411
Encoding: 1041 1041 45
Width: 606
VWidth: 800
Flags: W
HStem: -5 5<67.4012 115.12 508.157 550.139> 0 8<182.586 203.936 280.44 324.396 422.386 441.519> 7 5<342.498 385.693> 9 34<110.001 135.418 458.07 540.661> 14 4<220.68 265.093> 29.5 43.5<198.073 243.884> 46 28<455.602 505.561> 86 54<437.5 466 471 520.061> 134 4<335.988 350.686> 149 25<421.912 516.651> 149 5<284.312 316.364> 171 21<178 181.938> 186 50<403.015 519.2> 257 3<183 249> 272 59<134.504 245.123> 286 56<215.326 259.609> 366 42<306.457 445.483> 380 28<405.87 445.5> 415 6<390.35 475.558> 557 33<180.28 188.784> 604 61<128.531 244.905> 622 12<360.501 386.203> 644 3<341.375 360.094> 666 6<293.947 324.315> 677 33<114.167 252.503> 702 43<383.846 459.481> 707 67<178.562 255.686> 714 31<426.765 439.529> 755 4<427.15 482.754> 759.023 25.977<167.717 172.995> 789 4<99.0564 122.321> 791 5<341.673 367.096> 794 5<158.95 187.476 292.938 322.39>
VStem: 33 5<15.001 28.6328> 63 5<521.144 559.219 669.613 712.803> 70 7<238.862 279.2> 77 17<511.383 558.393 686.094 695.148> 79 6<310.98 342.073 605.06 637.281 745.129 775.606> 92 19<568.07 571.917> 98 12<532.5 559.347> 105 5<166.019 198.634> 119 5<377.798 428 541.875 557.484> 134 46<520.271 556.999> 189 44<514 556.999> 243 5<464 574.446> 267 5<609.641 647.116> 273 5<307.67 340.366> 284 6<240.731 275.115> 293 50<20.4926 106.396> 304 37<685.836 778.45> 321 5<626.637 644.551> 338 84<598.942 633.863> 338 3.5<565.2 584.165> 351 16<718.537 720.155> 356 32<44.0315 103.061> 362 6<647.888 659.466> 369 5<168.291 197.48> 375 5<214.693 242.002> 378 31<636.121 676.359> 419 3<647.492 658.654> 424 23<521.941 569.583> 433 52<584.856 681.999> 445.5 36.5<369.43 376.062> 456 4<466 510.334> 474 68<118.562 140> 493 5<339.931 374.203 640.907 668.232> 518 4<664.25 677.383> 536 4<206.203 229.25> 553 5<130.021 172.116> 568 5<11.386 35.2424>
DStem2: 170 481.5 186 446 0.865706 -0.500552<-54.7266 110.671> 182 442 198 403 0.879768 -0.475403<-70.6452 279.136> 298 341 263 354 0.85902 -0.511941<-61.2862 98.5871>
AnchorPoint: "Diacritic" 312 891 basechar 0
LayerCount: 2
Fore
SplineSet
244 72.7998 m 1x0441c4c62fe00003
 244 74.4004 243.2 74.4004 242.4 76 c 1
 226.4 80.7998 215.2 88.7998 204 98.4004 c 0
 194.4 107.2 190.4 117.6 186.4 127.2 c 1
 184 136 180 137.6 177.6 138.4 c 0
 175.2 138.4 171.2 134.4 169.6 123.2 c 1
 167.2 112.8 164 100 151.2 83.2002 c 0
 139.2 68 126.4 57.5996 113.6 50.4004 c 0
 112.8 50.4004 109.6 48 109.6 46.4004 c 0x0141c4c62fe00003
 109.6 44.7998 110.4 44.7998 112.8 44.7998 c 1
 125.6 51.2002 140 60 155.2 77.5996 c 0
 168.8 94.4004 175.2 104.8 178.4 120 c 1
 180 117.6 l 1
 184 107.2 188.8 103.2 199.2 93.5996 c 0
 208.8 84.7998 222.4 77.5996 241.6 72.7998 c 0
 242.4 72.7998 243.2 72 244 72.7998 c 1x0441c4c62fe00003
183.2 220 m 1
 207.2 220 238.4 240.8 248.8 253.6 c 0
 251.2 256 248.8 257.6 244.8 256 c 1
 239.2 249.6 229.6 244 216 236 c 1x0045c4c60fe00003
 203.2 230.4 191.2 230.4 179.2 230.4 c 0
 157.6 230.4 136 236 114.4 253.6 c 0
 113.6 254.4 106.4 260.8 111.2 250.4 c 1
 123.2 240.8 132 233.6 141.6 228.8 c 1
 152 224.8 161.6 220 173.6 220 c 1
 177.6 192 l 2x004bc4c60fe00003
 178.4 192 179.2 192 182.4 192.8 c 1
 183.2 220 l 1
522.4 46.4004 m 0x1241c4c60fe10003
 524.8 47.2002 522.4 50.4004 520.8 48.7998 c 0
 518.4 47.2002 514.4 46.4004 508.8 46.4004 c 0x1241c4c60fe10003
 481.6 46.4004 424.8 67.2002 394.4 103.2 c 0
 392.8 104.8 384 99.2002 384.8 96 c 0
 386.4 88.7998 388 79.2002 388 71.2002 c 0
 388 60 386.4 50.4004 381.6 47.2002 c 0
 379.2 44.7998 381.6 41.5996 384 44 c 0
 390.4 51.2002 396 65.5996 396 80.7998 c 2
 396 86.4004 l 1x00c1c4c60fe10003
 424.8 56 476.8 43.2002 504.8 43.2002 c 0
 512.8 43.2002 519.2 44.7998 522.4 46.4004 c 0x1241c4c60fe10003
466.4 102.4 m 1x00e1c4c60fe0000b
 473.6 102.4 473.6 116 473.6 128.8 c 0x00e1c4c60fe00043
 473.6 132.8 472 136 471.2 140 c 1
 489.6 140 508 144.8 516.8 155.2 c 0
 517.6 156 520.8 160 519.2 161.6 c 0
 518.4 162.4 516 158.4 513.6 157.6 c 1
 505.6 149.6 489.6 148.8 468.8 148.8 c 0
 452.8 148.8 435.2 152 412 168.8 c 0
 410.4 170.4 409.6 170.4 407.2 168.8 c 0
 407.2 168 407.2 167.2 409.6 164.8 c 0
 420 153.6 430.4 151.2 439.2 145.6 c 1
 448 141.6 452.8 140 462.4 140 c 1
 464.8 136 465.6 128 465.6 119.2 c 1
 463.2 112.8 465.6 108.8 465.6 107.2 c 0
 464.8 104.8 464.8 104 466.4 102.4 c 1x00e1c4c60fe0000b
452.8 276 m 0
 436.8 327.2 392 348.8 359.2 361.6 c 1
 369.6 358.4 379.2 357.6 388 357.6 c 0
 411.2 357.6 434.4 364.8 444 376 c 0
 447.2 379.2 445.6 382.4 443.2 379.2 c 0
 435.2 372 416 367.2 404.8 365.6 c 1
 388 365.6 338.4 370.4 307.2 385.6 c 1
 259.2 407.2 226.4 425.6 185.6 446.4 c 0
 136 471.2 97.5996 508.8 97.5996 545.6 c 0
 97.5996 548 97.5996 551.2 98.4004 554.4 c 0
 100.8 559.2 96.7998 561.6 96 556.8 c 0
 94.4004 552 93.5996 547.2 93.5996 542.4 c 0x0041c4c6afe10003
 93.5996 504.8 133.6 465.6 182.4 441.6 c 0
 224.8 420 254.4 404 301.6 380.8 c 1
 320.8 370.4 337.6 364 352.8 356 c 0
 380 343.2 433.6 319.2 449.6 275.2 c 0
 452 270.4 453.6 271.2 452.8 276 c 0
188.8 513.6 m 1
 188.8 553.6 l 2
 188.8 558.4 180 558.4 180 553.6 c 2
 180 516 l 1
 188.8 513.6 l 1
102.4 686.4 m 1
 120 699.2 141.6 709.6 168.8 709.6 c 0x0041c6c60fe00003
 176 709.6 187.2 708.8 199.2 704.8 c 0
 208.8 701.6 216.8 700.8 218.4 700.8 c 2
 222.4 700.8 l 2
 239.2 700.8 252 709.6 259.2 720 c 0
 261.6 722.4 264.8 725.6 256 720 c 1
 252.8 716 246.4 711.2 237.6 708 c 0
 233.6 707.2 227.2 707.2 218.4 707.2 c 0
 215.2 707.2 207.2 709.6 196.8 712.8 c 0
 188 716 180 716.8 173.6 717.6 c 1
 173.6 731.2 173.6 744 176 755.2 c 0
 176 756 174.4 758.4 172.8 759.2 c 1
 170.4 759.2 170.4 760 169.6 756.8 c 0
 167.2 747.2 165.6 734.4 165.6 717.6 c 1
 155.2 717.6 145.6 716 134.4 712 c 0
 123.2 708.8 112.8 703.2 98.4004 692 c 0
 98.4004 691.2 100 688 102.4 686.4 c 1
424 558.4 m 0x0041d5c60fe00a03
 424 588.8 432.8 610.4 432.8 639.2 c 0
 432.8 661.6 424.8 681.6 411.2 696.8 c 1
 416.8 694.4 422.4 693.6 428 693.6 c 0
 432 693.6 435.2 693.6 439.2 695.2 c 1
 450.4 695.2 458.4 701.6 464.8 708.8 c 1
 472 715.2 471.2 717.6 461.6 711.2 c 1
 456 705.6 447.2 703.2 439.2 701.6 c 1
 424.8 701.6 411.2 704.8 400 711.2 c 1
 392 720 381.6 725.6 371.2 730.4 c 1
 367.2 733.6 364.8 724 368.8 721.6 c 0
 383.2 713.6 396 704 403.2 692 c 1
 404.8 691.2 l 1
 408 684 408.8 676 408.8 668 c 0
 408.8 658.4 407.2 648 403.2 636.8 c 0
 400.8 628.8 388.8 622.4 376 622.4 c 0
 373.6 622.4 370.4 622.4 368 623.2 c 0
 359.2 626.4 358.4 622.4 367.2 620.8 c 1
 372.8 618.4 377.6 617.6 382.4 617.6 c 0
 404.8 617.6 419.2 639.2 419.2 659.2 c 1
 422.4 648 422.4 638.4 422.4 625.6 c 1x0041d5c60fe0d503
 420 606.4 416.8 592.8 416.8 576 c 0
 416.8 559.2 420.8 540 424.8 528.8 c 0
 428 518.4 432.8 519.2 428.8 529.6 c 0
 426.4 537.6 424 547.2 424 558.4 c 0x0041d5c60fe00a03
90.4004 8.7998 m 0x1041c4c60fe00003
 77.5996 8.7998 48.7998 10.4004 48.7998 24 c 0
 48.7998 28 51.2002 32 53.5996 34.4004 c 0
 88.7998 71.2002 110.4 124 119.2 189.6 c 0
 119.2 192 122.4 191.2 124 191.2 c 0
 126.4 191.2 128 188 128 187.2 c 0
 136.8 169.6 159.2 159.2 181.6 159.2 c 0
 199.2 159.2 216.8 166.4 225.6 183.2 c 0
 226.4 185.6 231.2 188.8 235.2 188.8 c 0
 237.6 188.8 238.4 188.8 239.2 187.2 c 0
 254.4 163.2 255.2 148.8 267.2 129.6 c 0
 268 128 276.8 124 276.8 121.6 c 1
 280 112.8 281.6 103.2 281.6 92.7998 c 0
 281.6 71.2002 274.4 48.7998 263.2 34.4004 c 0
 261.6 32.7998 260 31.2002 257.6 31.2002 c 0
 252 30.4004 246.4 29.5996 240.8 29.5996 c 0x0441c4c60fe00003
 226.4 29.5996 212 32.7998 199.2 39.2002 c 0
 192.8 42.4004 188 42.4004 182.4 38.4004 c 0
 164.8 25.5996 128 8.7998 90.4004 8.7998 c 0x1041c4c60fe00003
343.2 71.2002 m 0x0041c4c60ff00003
 343.2 43.2002 329.6 13.5996 301.6 13.5996 c 0
 293.6 13.5996 285.6 16 278.4 22.4004 c 0
 276 25.5996 274.4 29.5996 276.8 32.7998 c 0
 286.4 45.5996 292.8 61.5996 292.8 84 c 0
 292.8 96 291.2 109.6 286.4 124.8 c 0
 286.4 126.4 285.6 127.2 285.6 128.8 c 0
 285.6 136 292 139.2 300 139.2 c 0
 306.4 139.2 314.4 136.8 319.2 133.6 c 0
 324 131.2 332.8 123.2 334.4 116 c 1
 340.8 98.4004 343.2 84 343.2 71.2002 c 0x0041c4c60ff00003
135.2 196.8 m 0
 111.2 205.6 84.7998 228 84.7998 255.2 c 0
 84.7998 263.2 90.4004 285.6 101.6 285.6 c 0
 103.2 285.6 104.8 284.8 107.2 283.2 c 0
 132 267.2 157.6 260 181.6 260 c 0
 210.4 260 236 269.6 255.2 284 c 1
 256.8 286.4 264 286.4 265.6 283.2 c 0
 271.2 274.4 274.4 265.6 274.4 257.6 c 0
 274.4 246.4 268.8 236 261.6 228 c 0
 248 212 238.4 206.4 220 194.4 c 0
 216.8 192.8 216 191.2 215.2 188 c 0
 209.6 176.8 195.2 171.2 180.8 171.2 c 0x004bc4c64fe00003
 164.8 171.2 147.2 177.6 139.2 192.8 c 0
 139.2 193.6 136 196.8 135.2 196.8 c 0
244 340 m 0
 245.6 340.8 248 341.6 249.6 341.6 c 0
 258.4 341.6 263.2 329.6 263.2 322.4 c 0
 263.2 308.8 252 295.2 242.4 288 c 0
 227.2 276.8 207.2 272 185.6 272 c 0
 156.8 272 128 281.6 111.2 296 c 0
 101.6 304.8 93.5996 316 93.5996 328 c 0x0041c4c68fe00003
 93.5996 338.4 100 349.6 117.6 360 c 0
 120 361.6 123.2 360.8 125.6 359.2 c 0
 150.4 339.2 177.6 331.2 201.6 331.2 c 0
 217.6 331.2 232.8 334.4 244 340 c 0
556.8 29.5996 m 0x0441c4c60fe30003
 557.6 27.2002 557.6 25.5996 557.6 24 c 0
 557.6 9.59961 540 8.7998 533.6 8.7998 c 0
 488.8 8.7998 473.6 24 443.2 47.2002 c 0
 439.2 50.4004 435.2 52 431.2 48.7998 c 0
 421.6 43.2002 396 21.5996 364.8 21.5996 c 0
 357.6 21.5996 350.4 22.4004 343.2 24.7998 c 0x1041c4c60ff00003
 342.4 24.7998 340.8 25.5996 341.6 26.4004 c 0
 350.4 37.5996 355.2 56 355.2 74.4004 c 0
 355.2 92.7998 350.4 111.2 341.6 123.2 c 1
 358.4 123.2 384 141.6 384.8 148.8 c 1
 389.6 141.6 402.4 129.6 413.6 123.2 c 1
 416 120.8 416 119.2 417.6 116.8 c 0
 429.6 96 443.2 73.5996 468 73.5996 c 0x1151c4c60fe30003
 476 73.5996 486.4 76.7998 497.6 83.2002 c 0
 509.6 90.4004 518.4 95.2002 527.2 95.2002 c 0x0241c4c60fe30003
 529.6 95.2002 532 95.2002 533.6 93.5996 c 0
 543.2 76.7998 552 48.7998 556.8 29.5996 c 0x0441c4c60fe30003
244 352.8 m 1
 231.2 346.4 216 344 200.8 344 c 0
 173.6 344 146.4 353.6 134.4 370.4 c 1
 134.4 415.2 l 1
 162.4 392 208 368 244 352.8 c 1
168 13.5996 m 1
 144 0 118.4 -4.7998 84 -4.7998 c 0
 62.4004 -4.7998 32.7998 4.7998 32.7998 22.4004 c 0
 32.7998 25.5996 34.4004 29.5996 36.7998 33.5996 c 0
 74.4004 87.2002 104.8 124.8 104.8 196.8 c 1
 80.7998 214.4 70.4004 237.6 70.4004 258.4 c 0
 70.4004 274.4 76 289.6 85.5996 300.8 c 1
 80.7998 309.6 79.2002 318.4 79.2002 326.4 c 0
 79.2002 348.8 95.2002 368 119.2 379.2 c 1
 119.2 428 l 1
 124 428 l 1
 124 376.8 l 1
 100.8 365.6 84.7998 347.2 84.7998 325.6 c 0
 84.7998 317.6 87.2002 308.8 92 300 c 1
 82.4004 288.8 76.7998 274.4 76.7998 257.6 c 0
 76.7998 237.6 86.4004 215.2 110.4 198.4 c 1
 110.4 124 79.2002 84.7998 40.7998 31.2002 c 0
 38.4004 28 37.5996 25.5996 37.5996 22.4004 c 0
 37.5996 8 69.5996 -0.799805 89.5996 -0.799805 c 0x8841c4c75fe808af
 129.6 -0.799805 161.6 12 187.2 30.4004 c 1
 208.8 21.5996 228.8 18.4004 246.4 18.4004 c 0
 253.6 18.4004 260.8 19.2002 267.2 20 c 1
 276 9.59961 290.4 4.7998 304 4.7998 c 0x4841c4c75fe808af
 316 4.7998 327.2 8.7998 333.6 16 c 1
 344.8 12.7998 354.4 12 364 12 c 0
 392 12 413.6 23.2002 432 39.2002 c 0
 432.8 40 435.2 40 436 39.2002 c 0
 460 13.5996 501.6 0 532 0 c 0
 552.8 0 568 7.2002 568 20.7998 c 0
 568 42.4004 552.8 72.7998 539.2 101.6 c 1
 548.8 117.6 552.8 134.4 552.8 151.2 c 0
 552.8 171.2 546.4 191.2 534.4 205.6 c 1
 535.2 209.6 536 212.8 536 216.8 c 0
 536 232 527.2 244 516 253.6 c 1
 516 256 516.8 258.4 516.8 260 c 0
 516.8 283.2 501.6 305.6 480.8 317.6 c 1
 489.6 331.2 492.8 344 492.8 356.8 c 0
 492.8 377.6 484 397.6 476 417.6 c 1
 466.4 416 455.2 415.2 444 415.2 c 0
 376.8 415.2 283.2 436.8 236 456.8 c 1
 215.2 467.2 176 488 160 499.2 c 0
 136.8 515.2 119.2 532.8 119.2 555.2 c 0
 119.2 558.4 123.2 558.4 123.2 555.2 c 0
 123.2 535.2 140.8 519.2 161.6 503.2 c 1
 178.4 492 218.4 469.6 239.2 460.8 c 0
 284 442.4 375.2 420.8 441.6 420.8 c 0
 455.2 420.8 468 421.6 479.2 424 c 1
 489.6 403.2 498.4 380.8 498.4 358.4 c 0
 498.4 344.8 495.2 331.2 486.4 318.4 c 1
 505.6 306.4 520 287.2 520 266.4 c 0
 520 263.2 520 260 519.2 256.8 c 1
 531.2 245.6 540 233.6 540 216.8 c 0
 540 213.6 540 210.4 539.2 206.4 c 1
 551.2 190.4 558.4 170.4 558.4 149.6 c 0
 558.4 133.6 553.6 116.8 544.8 101.6 c 1
 559.2 72 572.8 43.2002 572.8 21.5996 c 0
 572.8 3.2002 555.2 -4.7998 531.2 -4.7998 c 0xa043c4c75fe808af
 509.6 -4.7998 482.4 2.40039 460 14.4004 c 1
 452.8 10.4004 437.6 1.59961 428 1.59961 c 0
 419.2 1.59961 416.8 9.59961 416.8 16 c 0
 416.8 18.4004 417.6 20.7998 417.6 22.4004 c 1
 402.4 12.7998 386.4 7.2002 366.4 7.2002 c 0
 356.8 7.2002 347.2 8 336 11.2002 c 1
 328.8 4 316.8 -0.799805 303.2 -0.799805 c 0
 288.8 -0.799805 273.6 4.7998 264 16 c 1
 257.6 15.2002 250.4 14.4004 242.4 14.4004 c 0x6841c4c75fe808af
 232.8 14.4004 223.2 15.2002 212 17.5996 c 1
 209.6 9.59961 206.4 4 200 1.59961 c 1
 184 1.59961 179.2 4.7998 168 13.5996 c 1
534.4 117.6 m 0
 529.6 107.2 524.8 107.2 516 104.8 c 0
 512 104 500.8 101.6 496.8 98.4004 c 0
 488 90.4004 478.4 86.4004 469.6 86.4004 c 0
 455.2 86.4004 441.6 96.7998 428.8 121.6 c 1
 427.2 127.2 422.4 129.6 416 134.4 c 0
 408.8 140.8 403.2 147.2 396.8 151.2 c 1
 391.2 156 386.4 165.6 386.4 176 c 0
 386.4 180.8 387.2 185.6 389.6 189.6 c 0
 392 194.4 400 196 403.2 192.8 c 1
 421.6 181.6 446.4 174.4 470.4 174.4 c 0
 488.8 174.4 506.4 178.4 522.4 188 c 0
 524.8 188.8 527.2 189.6 528.8 188 c 0
 538.4 175.2 541.6 162.4 541.6 149.6 c 0x00e1c4c60fe00043
 541.6 138.4 538.4 128 534.4 117.6 c 0
524 216.8 m 0
 524 194.4 488.8 186.4 462.4 186.4 c 0
 437.6 186.4 412 192.8 398.4 211.2 c 0
 392.8 219.2 389.6 227.2 389.6 233.6 c 0
 389.6 240.8 397.6 251.2 407.2 251.2 c 0
 409.6 251.2 412 250.4 414.4 248.8 c 0
 426.4 240.8 447.2 236 468.8 236 c 0x0045c4c60fe00003
 480.8 236 492 237.6 503.2 240 c 0
 508 240.8 513.6 240.8 516 237.6 c 0
 520 232 524 224.8 524 216.8 c 0
504.8 253.6 m 1
 492 249.6 478.4 247.2 464.8 247.2 c 0
 445.6 247.2 427.2 252 415.2 262.4 c 1
 400 305.6 287.2 356 197.6 403.2 c 0
 141.6 432.8 76.7998 480 76.7998 542.4 c 0
 76.7998 560 84.7998 574.4 92 584 c 1
 96 579.2 104.8 571.2 111.2 567.2 c 1
 110.4 563.2 109.6 558.4 109.6 554.4 c 0x0041c4c6afe00003
 109.6 505.6 184 473.6 234.4 449.6 c 1
 257.6 437.6 331.2 419.2 351.2 416 c 0
 388.8 410.4 396.8 408 444.8 408 c 2
 467.2 408 l 1
 473.6 400 481.6 380 481.6 359.2 c 0
 481.6 344.8 477.6 329.6 467.2 317.6 c 0
 464.8 314.4 466.4 308.8 470.4 308 c 0
 490.4 300.8 505.6 282.4 505.6 261.6 c 0
 505.6 259.2 505.6 256 504.8 253.6 c 1
232.8 472.8 m 1
 196.8 495.2 160.8 508 134.4 543.2 c 1
 134.4 571.2 l 1
 148.8 582.4 164.8 590.4 185.6 590.4 c 0
 199.2 590.4 214.4 586.4 232.8 578.4 c 1
 232.8 472.8 l 1
493.6 670.4 m 1
 498.4 667.2 500 662.4 500 655.2 c 0
 500 652.8 500 650.4 499.2 647.2 c 1x0041ccc60fe00013
 507.2 652 514.4 660 517.6 666.4 c 1
 517.6 667.2 517.6 668 517.6 668.8 c 0
 517.6 676 510.4 690.4 502.4 696 c 1
 500.8 685.6 497.6 676.8 493.6 670.4 c 1
176 664.8 m 0x0041e4c60fe00003
 220.8 664.8 257.6 651.2 257.6 622.4 c 0x0041d4c60fe00003
 257.6 611.2 252 600 244.8 591.2 c 0
 242.4 588 238.4 588 233.6 589.6 c 0
 216.8 597.6 199.2 604 181.6 604 c 0
 164.8 604 148 598.4 131.2 584 c 0
 126.4 580 120 580 115.2 582.4 c 0
 103.2 588 95.2002 605.6 95.2002 620 c 0
 95.2002 628 97.5996 634.4 102.4 638.4 c 0
 132 660.8 151.2 664.8 176 664.8 c 0x0041e4c60fe00003
282.4 692 m 1
 267.2 689.6 255.2 669.6 252.8 656 c 1
 226.4 671.2 200.8 676.8 177.6 676.8 c 0
 147.2 676.8 120 666.4 97.5996 653.6 c 1x0041c6c62fe00003
 85.5996 656.8 76 677.6 76 696 c 0
 76 717.6 92.7998 736.8 124 751.2 c 1
 139.2 776.8 158.4 784.8 177.6 784.8 c 0
 188.8 784.8 203.2 769.6 212 752.8 c 0
 212.8 750.4 216.8 749.6 220 752 c 0
 232.8 762.4 254.4 773.6 271.2 773.6 c 2
 274.4 773.6 l 1
 285.6 758.4 292 740 292 723.2 c 0
 292 711.2 288.8 700 282.4 692 c 1
353.6 634.4 m 0x0041d5c60fe80203
 367.2 634.4 377.6 640 377.6 652.8 c 0
 377.6 668.8 354.4 683.2 340.8 691.2 c 1x0041d5c60fe81203
 347.2 702.4 351.2 715.2 351.2 729.6 c 0
 351.2 744.8 347.2 761.6 337.6 779.2 c 1
 342.4 781.6 346.4 783.2 351.2 783.2 c 0
 360 783.2 368 779.2 375.2 772.8 c 0
 395.2 755.2 420.8 744.8 448.8 744.8 c 0
 457.6 744.8 465.6 745.6 474.4 747.2 c 1
 484.8 738.4 488.8 726.4 488.8 713.6 c 0
 488.8 704.8 487.2 695.2 484 685.6 c 0
 480.8 677.6 476 673.6 475.2 668 c 1
 479.2 664.8 484.8 660 484.8 650.4 c 0x0041d5c60fe22103
 484.8 648 484.8 644.8 483.2 640.8 c 0
 463.2 584.8 447.2 556.8 447.2 488 c 0
 447.2 481.6 440.8 480 437.6 481.6 c 0
 405.6 500.8 388 541.6 379.2 584.8 c 1
 369.6 588 338.4 618.4 338.4 632 c 0
 338.4 633.6 339.2 635.2 340.8 636 c 1
 345.6 635.2 349.6 634.4 353.6 634.4 c 0x0041d5c60fe80203
340.8 729.6 m 0
 340.8 708.8 330.4 680.8 307.2 680.8 c 0
 300 680.8 290.4 685.6 293.6 695.2 c 1
 300 703.2 304 714.4 304 727.2 c 0
 304 743.2 298.4 760.8 287.2 776.8 c 1
 291.2 782.4 298.4 784.8 305.6 784.8 c 0
 313.6 784.8 321.6 781.6 327.2 776.8 c 0
 332.8 771.2 340.8 751.2 340.8 729.6 c 0
172.8 16 m 1
 176.8 12.7998 180.8 10.4004 185.6 8 c 1
 190.4 7.2002 194.4 7.2002 199.2 5.59961 c 0
 200.8 5.59961 203.2 8 205.6 13.5996 c 0
 205.6 14.4004 206.4 16 208 18.4004 c 1x0841c4c60fe00003
 200.8 20 194.4 22.4004 187.2 25.5996 c 1
 182.4 22.4004 177.6 19.2002 172.8 16 c 1
425.6 28 m 1
 424 23.2002 421.6 18.4004 421.6 14.4004 c 0x0841c4c60fe00803
 421.6 10.4004 424 8 429.6 8 c 0
 437.6 8 448.8 13.5996 454.4 17.5996 c 1
 447.2 22.4004 440 28 433.6 33.5996 c 1
 431.2 31.2002 428 29.5996 425.6 28 c 1
136.8 785.6 m 1
 149.6 795.2 161.6 799.2 173.6 799.2 c 0
 192 799.2 208 788 220 772 c 1
 237.6 781.6 252 784.8 276.8 788.8 c 1
 288 796 299.2 799.2 309.6 799.2 c 0x0051c4ee5fe6e0b3
 318.4 799.2 327.2 796 334.4 790.4 c 1
 341.6 794.4 348.8 796 356 796 c 0
 365.6 796 375.2 792.8 384.8 784 c 0
 408 761.6 432.8 757.6 452 757.6 c 0
 464 757.6 472.8 759.2 477.6 759.2 c 2
 479.2 759.2 l 1
 496.8 753.6 504 732.8 504 711.2 c 0
 504 708 504 704 503.2 700.8 c 1
 512.8 696.8 522.4 680 522.4 669.6 c 0
 522.4 658.4 510.4 646.4 498.4 642.4 c 1
 494.4 626.4 485.6 605.6 480 588.8 c 0
 468 550.4 460 516.8 460 480.8 c 0
 460 475.2 460.8 470.4 460.8 465.6 c 0
 460.8 460 456 460 449.6 462.4 c 0
 408 475.2 385.6 507.2 374.4 541.6 c 1
 359.2 543.2 337.6 554.4 337.6 572 c 0
 337.6 579.2 339.2 588.8 344 596 c 1
 331.2 610.4 320.8 625.6 320.8 637.6 c 0
 320.8 643.2 323.2 648 329.6 651.2 c 1
 339.2 648.8 347.2 647.2 352 647.2 c 0
 359.2 647.2 362.4 649.6 362.4 652.8 c 0
 362.4 660 350.4 671.2 336 678.4 c 1
 329.6 671.2 319.2 666.4 308 666.4 c 0
 299.2 666.4 289.6 669.6 282.4 676.8 c 1
 274.4 670.4 268.8 660 268.8 648.8 c 1
 271.2 641.6 272 635.2 272 628 c 0
 272 608 262.4 588 248 572 c 1
 248 464 l 1
 243.2 464 l 1
 243.2 574.4 l 1
 258.4 588.8 267.2 608.8 267.2 628.8 c 0
 267.2 635.2 266.4 641.6 264.8 648 c 1
 264.8 648.8 264.8 650.4 264.8 651.2 c 0
 264.8 663.2 273.6 676 282.4 681.6 c 1
 289.6 675.2 300 672 308.8 672 c 0
 319.2 672 328.8 676 333.6 683.2 c 1
 353.6 674.4 368 660.8 368 652 c 0
 368 647.2 363.2 644 352.8 644 c 0
 347.2 644 339.2 644.8 329.6 647.2 c 1
 326.4 644.8 325.6 642.4 325.6 638.4 c 0
 325.6 622.4 350.4 593.6 370.4 580 c 1
 379.2 532.8 397.6 481.6 452 465.6 c 0
 453.6 465.6 456.8 464 456.8 465.6 c 0
 456 472 456 478.4 456 484.8 c 0
 456 520 464.8 552.8 476 591.2 c 0
 482.4 612.8 495.2 639.2 495.2 655.2 c 0
 495.2 661.6 493.6 666.4 488.8 668.8 c 0
 487.2 669.6 487.2 670.4 488 672.8 c 1
 494.4 680.8 499.2 697.6 499.2 714.4 c 0
 499.2 732.8 493.6 750.4 477.6 755.2 c 1
 476 755.2 l 2
 471.2 755.2 462.4 753.6 449.6 753.6 c 0
 431.2 753.6 405.6 757.6 380.8 780 c 0
 371.2 788 362.4 791.2 353.6 791.2 c 0x0041ced65fe6e0b3
 347.2 791.2 340 788.8 332.8 785.6 c 1
 326.4 791.2 317.6 793.6 308.8 793.6 c 0
 299.2 793.6 288.8 791.2 277.6 784.8 c 1
 254.4 780.8 237.6 777.6 218.4 764.8 c 1
 207.2 782.4 191.2 793.6 173.6 793.6 c 0
 156 793.6 136.8 783.2 116.8 759.2 c 1
 90.4004 746.4 66.4004 720.8 66.4004 691.2 c 0
 66.4004 676 73.5996 659.2 89.5996 643.2 c 1
 86.4004 636 84.7998 628 84.7998 620 c 0
 84.7998 610.4 87.2002 600.8 92 595.2 c 1
 76.7998 580.8 68 557.6 68 539.2 c 0
 68 504.8 89.5996 467.2 124 439.2 c 1
 164 408 224.8 379.2 264.8 357.6 c 0
 265.6 357.6 396 292 402.4 263.2 c 1
 386.4 256 380 238.4 380 226.4 c 0
 380 220 381.6 216 384 213.6 c 0
 384.8 212 384.8 210.4 384 209.6 c 0
 376.8 200.8 374.4 190.4 374.4 181.6 c 0
 374.4 173.6 376 167.2 379.2 163.2 c 1
 372.8 142.4 356 133.6 336.8 133.6 c 1
 327.2 142.4 312.8 148.8 298.4 148.8 c 0
 290.4 148.8 282.4 147.2 276 141.6 c 1
 273.6 140.8 272.8 140.8 272 142.4 c 0
 265.6 162.4 251.2 183.2 244.8 197.6 c 1
 264.8 208 284 232.8 284 257.6 c 0
 284 271.2 278.4 284.8 265.6 296.8 c 1
 270.4 305.6 272.8 315.2 272.8 325.6 c 0
 272.8 329.6 272 334.4 271.2 339.2 c 0
 271.2 340.8 274.4 340.8 276 340 c 1
 277.6 335.2 278.4 329.6 278.4 324.8 c 0
 278.4 315.2 276 306.4 272 299.2 c 1
 284.8 286.4 289.6 272 289.6 257.6 c 0
 289.6 231.2 271.2 205.6 250.4 196 c 1
 257.6 181.6 268 166.4 274.4 147.2 c 1
 282.4 152.8 291.2 154.4 299.2 154.4 c 0
 314.4 154.4 328.8 148 338.4 138.4 c 1
 355.2 138.4 367.2 146.4 373.6 163.2 c 1
 371.2 167.2 368.8 174.4 368.8 182.4 c 0
 368.8 191.2 371.2 201.6 379.2 211.2 c 1
 376.8 215.2 375.2 221.6 375.2 228 c 0
 375.2 241.6 380.8 256.8 396.8 264.8 c 1
 387.2 289.6 264 352.8 263.2 353.6 c 0
 244.8 363.2 222.4 373.6 194.4 390.4 c 1
 168.8 404.8 143.2 419.2 117.6 439.2 c 1
 84 467.2 63.2002 502.4 63.2002 543.2 c 0
 63.2002 560.8 72 580.8 85.5996 596 c 1
 81.5996 602.4 79.2002 610.4 79.2002 620.8 c 0
 79.2002 627.2 80 634.4 84 642.4 c 1
 68 659.2 60.7998 676.8 60.7998 692.8 c 0
 60.7998 711.2 69.5996 728 82.4004 741.6 c 1
 80.7998 745.6 80 751.2 80 757.6 c 0
 80 768 83.2002 780 88.7998 786.4 c 0
 93.5996 791.2 101.6 792.8 110.4 792.8 c 0x0051c4ee5fe6e0b3
 120 792.8 129.6 790.4 136.8 785.6 c 1
109.6 788.8 m 0x0041c5e66fe00003
 92 788.8 84.7998 774.4 84.7998 757.6 c 0
 84.7998 752.8 85.5996 748.8 86.4004 744.8 c 1
 94.4004 752.8 104 758.4 113.6 763.2 c 1
 120 771.2 126.4 777.6 132.8 782.4 c 1
 125.6 786.4 117.6 788.8 109.6 788.8 c 0x0041c5e66fe00003
372.8 546.4 m 1
 369.6 556.8 368 566.4 366.4 576 c 1
 360 580.8 353.6 586.4 347.2 592.8 c 1
 343.2 584.8 341.6 576.8 341.6 571.2 c 0x0041c4c60fe20003
 341.6 558.4 361.6 548.8 372.8 546.4 c 1
EndSplineSet
Validated: 1
EndChar

StartChar: uni0412
Encoding: 1042 1042 46
Width: 612
VWidth: 800
Flags: W
HStem: -9 6<287.043 318.352> -8 4<77.607 116.423 517.15 553.22> -2 5<426.34 442.353> 3 5<331.078 359.411> 6 37<113.969 145.537> 12 5<238.59 263.875> 27 5<386.575 408> 38 54<471.316 531.839> 42 15.5<419.029 445.388> 62 9<454.945 472.102> 83 16<470.875 474.632> 136 20<175.046 187.92> 143 28<425.483 517.651> 143 4<289.08 303 304 316.188 344.25 373.322> 168 21<182 185.938> 184 49<407.258 523.013> 225 33<130.668 233.113> 244 25<454.001 458> 270 58<137.689 249.592> 344 35<182 190 346.998 458.345> 389 5<378.969 426.954> 415 5<366.369 408.645> 430 37<320.784 418.825> 473 20G<450.5 480> 475 41<302.566 387.187> 490 21G<419.5 432> 501 33<460.25 513.725> 527 4<324.273 358.891> 542 23<407.551 506.495> 554 33<182.337 189.78> 577 48<397.159 514.072> 601 61<134.038 249.874> 636 93<444.146 493.328> 638 6<297.738 328.72> 654 128<307.255 341.84 369.174 418.775> 714 49<232.704 260.5> 755 27<168.82 178> 788 4<101.158 115.987> 790 5<161.904 193.542 300.881 329.896 363.785 394.087> 820 5<340.432 356.268>
VStem: 37 5<14.304 28.1655> 66 4<674.917 701.676> 74 7<234.778 274.621> 83 5<309.68 338.968 608.521 626.125> 90 3<763.643 778.478> 109 5<169.781 195.572> 125 3<184 187.984 770 779.061> 138 44<376.001 554> 178 4<5.50781 14.9443> 190 45<376.102 554> 206 4<4.90466 17.907> 247 20<397.086 403.062 506 518> 248 38<70.6057 81.0808> 277 4<304.781 336.517 604.679 630.638> 289 5<236.925 269.343> 297 47<25.689 125.65> 307 51<673.08 769.372> 328 5<795.094 812.297> 357 31<30.4688 126.89> 364 5<794.06 811.596> 368 5<548.927 577.224> 369 65<667.115 768.533> 372 5<600.876 628.822> 376 6<155.975 195.643 217.669 233.096> 400 18<60.2899 66.9998> 414 5<10.7384 26.0645> 447 5<7.74133 24.194> 497 5<339.804 377.422> 518 4<251.009 269.402> 538 5<197.213 220.267> 552 5<551 587.193> 556 6<129.395 166.992 629.779 647.766> 572 5<10.6143 36.3647>
AnchorPoint: "Diacritic" 341 891 basechar 0
LayerCount: 2
Fore
SplineSet
348.8 788 m 2xc0007c40380401402040
 357.6 788 364 794.4 364 803.2 c 0
 364 812 357.6 820 348.8 820 c 0
 340 820 332.8 812 332.8 803.2 c 0
 332.8 800 333.6 796.8 336 794.4 c 1
 340 792.8 344.8 790.4 348 788 c 1
 348.8 788 l 2xc0007c40380401402040
248 69.5996 m 1xc4007c40382440002040
 248 72 247.2 72 246.4 72.7998 c 0
 230.4 77.5996 220 87.2002 208.8 97.5996 c 0
 199.2 106.4 192.8 116 188.8 124.8 c 1
 187.2 133.6 184 134.4 181.6 136 c 1
 179.2 136 176 136 174.4 124.8 c 0
 172.8 115.2 168.8 96 155.2 80 c 0
 141.6 64 130.4 52.7998 114.4 46.4004 c 0xc4207c40388440002040
 113.6 46.4004 113.6 44.7998 113.6 43.2002 c 0
 113.6 42.4004 114.4 43.2002 116.8 43.2002 c 1xd0207c40382400002040
 128.8 48.7998 145.6 57.5996 160.8 76 c 0
 174.4 92.7998 179.2 102.4 182.4 116.8 c 1
 182.4 116.8 182.4 116.8 184 115.2 c 1
 188 104 192 100 201.6 90.4004 c 1
 212 81.5996 226.4 73.5996 244.8 69.5996 c 0
 246.4 69.5996 247.2 68.7998 248 69.5996 c 1xc4007c40382440002040
252 250.4 m 0
 252.8 252 254.4 253.6 252.8 254.4 c 1
 252 256 252 254.4 250.4 253.6 c 0
 244 248 234.4 240 220 232.8 c 0
 207.2 227.2 195.2 224.8 183.2 224.8 c 0
 161.6 224.8 140 232 118.4 249.6 c 0
 117.6 250.4 116.8 252 114.4 250.4 c 0
 114.4 249.6 114.4 248.8 115.2 247.2 c 0
 127.2 236.8 135.2 230.4 144.8 224.8 c 1
 155.2 220.8 164.8 218.4 176 216 c 1
 181.6 188.8 l 2xc0057c40388400002040
 182.4 188.8 183.2 188.8 186.4 189.6 c 1
 187.2 216 l 1
 199.2 217.6 209.6 220 224 228 c 1
 235.2 235.2 244.8 243.2 252 250.4 c 0
532 38.4004 m 1xc1007c4038040000a040
 503.2 38.4004 485.6 44.7998 469.6 60 c 0
 466.4 62.4004 462.4 63.2002 458.4 63.2002 c 0xc0807c4038040000a040
 452.8 63.2002 447.2 62.4004 440.8 62.4004 c 0
 435.2 62.4004 428 63.2002 420 67.2002 c 0
 419.2 67.2002 418.4 68 417.6 65.5996 c 0
 417.6 64.7998 418.4 64.7998 419.2 64 c 0
 440.8 52 447.2 61.5996 464.8 52.7998 c 1
 478.4 41.5996 496 36 517.6 35.2002 c 0
 522.4 35.2002 526.4 36 532 38.4004 c 1xc1007c4038040000a040
400.8 261.6 m 1
 388.8 288 317.6 316 276 344.8 c 1
 280 336 280.8 328 280.8 320 c 0
 280.8 311.2 279.2 302.4 276 296 c 1
 287.2 284 293.6 269.6 293.6 254.4 c 0
 293.6 232 280 208.8 252.8 192.8 c 1
 260.8 180 274.4 154.4 278.4 143.2 c 1xc0087c40380430042040
 285.6 145.6 292.8 147.2 299.2 147.2 c 0xc0107c40380430042040
 312.8 147.2 324.8 142.4 333.6 137.6 c 1
 339.2 144 349.6 148 360.8 148 c 0
 367.2 148 373.6 146.4 379.2 143.2 c 1
 380 144.8 380.8 146.4 381.6 148.8 c 1
 377.6 156.8 376 165.6 376 174.4 c 0xc0087c40380430042040
 376 186.4 379.2 198.4 384 207.2 c 1
 380 212.8 378.4 219.2 378.4 225.6 c 0
 378.4 239.2 386.4 252.8 400.8 261.6 c 1
479.2 136 m 1xc0607c40380400013040
 494.4 137.6 510.4 140.8 519.2 151.2 c 0
 520.8 152 523.2 155.2 522.4 156 c 0
 521.6 157.6 520.8 155.2 518.4 154.4 c 1
 510.4 146.4 492 143.2 474.4 143.2 c 0xc0087c40380400002440
 458.4 143.2 437.6 143.2 416 164 c 0
 415.2 164.8 413.6 167.2 411.2 166.4 c 1
 411.2 164.8 411.2 164 413.6 162.4 c 0
 428 148 442.4 136 469.6 136 c 1
 470.4 132.8 471.2 128.8 471.2 123.2 c 0
 471.2 113.6 470.4 108 470.4 104.8 c 1
 469.6 103.2 468.8 101.6 470.4 99.2002 c 1
 472 99.2002 473.6 103.2 474.4 104.8 c 0
 476 108.8 477.6 112.8 478.4 124.8 c 0
 478.4 128.8 480 132 479.2 136 c 1xc0607c40380400013040
190.4 378.4 m 2xc0007c40380600002040
 190.4 550.4 l 2
 190.4 554.4 182.4 555.2 182.4 552 c 2
 182.4 379.2 l 2
 182.4 376 190.4 374.4 190.4 378.4 c 2xc0007c40380600002040
457.6 272 m 0
 457.6 280 453.6 292.8 441.6 308 c 0
 431.2 321.6 419.2 328.8 403.2 336 c 1
 424 336 447.2 344.8 457.6 353.6 c 0
 458.4 355.2 458.4 355.2 457.6 356.8 c 0
 457.6 357.6 456.8 357.6 454.4 356.8 c 1
 450.4 352.8 444 351.2 433.6 347.2 c 0
 424.8 344 415.2 344.8 404.8 344 c 0
 397.6 344 392 344.8 383.2 347.2 c 0
 367.2 351.2 348.8 359.2 325.6 372.8 c 0
 304 385.6 285.6 395.2 272 407.2 c 0
 271.2 408 269.6 408 268 407.2 c 0
 268 406.4 268 404.8 268.8 403.2 c 0
 292.8 384 345.6 350.4 380 338.4 c 0
 394.4 333.6 412 325.6 430.4 308.8 c 0
 447.2 292.8 453.6 280.8 454.4 271.2 c 0
 454.4 269.6 454.4 268.8 456.8 268.8 c 0xc000fc40380400002040
 458.4 268.8 457.6 270.4 457.6 272 c 0
397.6 480 m 0
 397.6 484 388 475.2 376.8 475.2 c 0
 375.2 475.2 366.4 472.8 360 475.2 c 1
 342.4 479.2 325.6 483.2 312 489.6 c 1
 299.2 496.8 286.4 504.8 272 516 c 1
 269.6 516.8 268.8 519.2 267.2 518.4 c 1xc0007e40380480002040
 267.2 516.8 267.2 516 268.8 514.4 c 0
 280.8 503.2 293.6 495.2 306.4 488 c 0
 326.4 477.6 345.6 467.2 369.6 467.2 c 0
 379.2 467.2 385.6 469.6 392.8 473.6 c 1
 393.6 475.2 397.6 477.6 397.6 480 c 0
173.6 708.8 m 0xc0007c433a0400002040
 184.8 708.8 215.2 696 228 696 c 0
 242.4 696 252.8 701.6 260 711.2 c 0
 260.8 712 260.8 712.8 260 713.6 c 0
 259.2 715.2 260 712.8 257.6 712 c 1
 255.2 708 248.8 707.2 242.4 704 c 0
 237.6 701.6 231.2 701.6 222.4 703.2 c 1
 213.6 703.2 186.4 716 176 716.8 c 1
 175.2 722.4 174.4 727.2 174.4 732 c 0
 174.4 739.2 176 745.6 177.6 752 c 0
 177.6 752.8 178.4 754.4 176 755.2 c 0
 175.2 755.2 175.2 755.2 174.4 752.8 c 0
 170.4 747.2 166.4 736.8 166.4 717.6 c 1
 141.6 717.6 116.8 704 104.8 686.4 c 0
 104.8 685.6 104.8 686.4 106.4 684 c 1
 124 696.8 146.4 708.8 173.6 708.8 c 0xc0007c433a0400002040
377.6 592 m 1
 373.6 599.2 372 606.4 372 613.6 c 0xc0007cc8380400082040
 372 620 372.8 625.6 375.2 630.4 c 1
 358.4 632 346.4 638.4 337.6 645.6 c 1
 332 641.6 323.2 638.4 313.6 638.4 c 0
 302.4 638.4 291.2 642.4 281.6 651.2 c 1
 280 648.8 276.8 645.6 273.6 644.8 c 1
 279.2 636.8 281.6 628 281.6 619.2 c 0
 281.6 601.6 272 584 257.6 575.2 c 1
 274.4 550.4 312 531.2 344 531.2 c 0
 355.2 531.2 366.4 534.4 375.2 540 c 1
 369.6 548 368 556 368 563.2 c 0xc0007cc8380400202040
 368 574.4 372 584.8 377.6 592 c 1
96 6.40039 m 0xd0007c40380480002040
 83.2002 6.40039 52.7998 8 52.7998 21.5996 c 0
 52.7998 24.7998 54.4004 28.7998 57.5996 31.2002 c 0
 92.7998 68 114.4 120.8 123.2 187.2 c 0
 123.2 188.8 126.4 188 128 188 c 0
 130.4 188 132 184.8 132 184 c 0
 140.8 167.2 164 156 185.6 156 c 0
 203.2 156 220.8 163.2 229.6 180 c 0
 230.4 183.2 235.2 185.6 239.2 185.6 c 0
 241.6 185.6 242.4 185.6 243.2 184 c 0
 257.6 160 259.2 145.6 271.2 127.2 c 0
 272.8 124 273.6 124.8 276 123.2 c 1
 277.6 120.8 280.8 120 280.8 119.2 c 0
 284 110.4 285.6 100 285.6 89.5996 c 0xd0207c40381440002040
 285.6 68 278.4 45.5996 267.2 31.2002 c 0
 265.6 29.5996 264 28.7998 261.6 28.7998 c 0
 256 27.2002 249.6 27.2002 243.2 27.2002 c 0xc4207c40380480002040
 229.6 27.2002 216 29.5996 203.2 36 c 0
 196.8 39.2002 192 39.2002 186.4 35.2002 c 0
 169.6 22.4004 132.8 6.40039 96 6.40039 c 0xd0007c40380480002040
293.6 132 m 0
 294.4 132 296 132 296.8 132 c 0
 312.8 132 332 124 336.8 111.2 c 0xc0007c40380408002040
 342.4 96.7998 344 84.7998 344 72.7998 c 0
 344 49.5996 335.2 32 324.8 18.4004 c 0
 319.2 11.2002 310.4 6.40039 300.8 6.40039 c 0
 295.2 6.40039 277.6 10.4004 277.6 20 c 0
 277.6 21.5996 277.6 23.2002 278.4 24.7998 c 0
 288.8 37.5996 296.8 58.4004 296.8 83.2002 c 0xc0007c40380404002040
 296.8 95.2002 295.2 108 290.4 121.6 c 0xc0007c40380408002040
 289.6 125.6 290.4 132 293.6 132 c 0
139.2 193.6 m 0
 114.4 202.4 88.7998 224.8 88.7998 252.8 c 0
 88.7998 258.4 95.2002 283.2 105.6 283.2 c 0
 107.2 283.2 108.8 282.4 111.2 280 c 0
 136 264 160.8 257.6 184.8 257.6 c 0
 213.6 257.6 240 267.2 259.2 280.8 c 1
 260.8 283.2 268 283.2 269.6 280 c 0
 275.2 271.2 278.4 262.4 278.4 254.4 c 0
 278.4 243.2 272.8 233.6 265.6 224.8 c 0
 252 209.6 242.4 203.2 224 192 c 0
 220.8 189.6 220 188 218.4 184.8 c 0
 212.8 174.4 199.2 168 184 168 c 0xc0057c40388400002040
 168 168 151.2 175.2 143.2 189.6 c 0
 143.2 191.2 140 193.6 139.2 193.6 c 0
376.8 36 m 0
 372.8 28.7998 357.6 20 349.6 20 c 0
 346.4 20 340.8 20.7998 345.6 29.5996 c 0
 352.8 44 356.8 58.4004 356.8 74.4004 c 0
 356.8 88.7998 353.6 103.2 345.6 120 c 1
 340 128.8 348 134.4 357.6 134.4 c 0
 364 134.4 369.6 131.2 373.6 124.8 c 0
 383.2 113.6 388 98.4004 388 82.4004 c 0xc0007c40380400802040
 388 67.2002 384 51.2002 376.8 36 c 0
248 337.6 m 0xc0007c40380440002040
 249.6 338.4 251.2 338.4 252 338.4 c 0
 261.6 338.4 267.2 327.2 267.2 319.2 c 0
 267.2 306.4 256 292 246.4 284.8 c 0
 231.2 274.4 210.4 269.6 189.6 269.6 c 0
 160.8 269.6 132 278.4 115.2 292.8 c 0
 105.6 301.6 97.5996 312.8 97.5996 324.8 c 0
 97.5996 335.2 104 346.4 121.6 356.8 c 1
 124 359.2 127.2 357.6 128.8 356 c 0
 153.6 336 180.8 328 204.8 328 c 0
 220.8 328 236 332 248 337.6 c 0xc0007c40380440002040
471.2 71.2002 m 0xd0807c4038040000a040
 488 71.2002 516.8 90.4004 531.2 92.7998 c 0xc1007c4038040000a040
 533.6 92.7998 536 92.7998 537.6 90.4004 c 0
 547.2 73.5996 556 46.4004 560.8 26.4004 c 0
 561.6 24.7998 561.6 22.4004 561.6 20.7998 c 0
 561.6 7.2002 544 5.59961 537.6 5.59961 c 0
 492.8 5.59961 477.6 20.7998 447.2 44 c 0
 443.2 47.2002 440 47.2002 435.2 46.4004 c 0
 424.8 44 417.6 41.5996 409.6 41.5996 c 0
 405.6 41.5996 401.6 42.4004 396.8 43.2002 c 0
 396 43.2002 394.4 44 394.4 44.7998 c 0
 397.6 56.7998 400.8 71.2002 400.8 86.4004 c 0
 400.8 98.4004 398.4 111.2 392 121.6 c 0
 388.8 127.2 392.8 132 393.6 138.4 c 1
 400.8 132.8 406.4 127.2 417.6 120 c 0
 420 117.6 420 116 420.8 113.6 c 0
 432.8 92.7998 447.2 71.2002 471.2 71.2002 c 0xd0807c4038040000a040
406.4 260 m 1
 392 252.8 384 238.4 384 224.8 c 0
 384 218.4 385.6 212 388.8 207.2 c 1
 384 197.6 381.6 184.8 381.6 172.8 c 0
 381.6 163.2 383.2 155.2 385.6 148.8 c 1
 384 144.8 384 135.2 377.6 137.6 c 1
 372.8 141.6 365.6 143.2 358.4 143.2 c 0
 348.8 143.2 338.4 140 333.6 132.8 c 1
 325.6 137.6 312.8 142.4 299.2 142.4 c 0
 292 142.4 284 140.8 276.8 137.6 c 1
 273.6 147.2 256 180 247.2 193.6 c 1
 276 209.6 288.8 232 288.8 252.8 c 0
 288.8 268 282.4 282.4 269.6 293.6 c 1
 273.6 299.2 276.8 308.8 276.8 319.2 c 0xc0107c403804b0042040
 276.8 329.6 273.6 340.8 268 351.2 c 1
 265.6 353.6 268.8 356 272 353.6 c 0
 315.2 321.6 394.4 292 406.4 260 c 1
538.4 115.2 m 0xc0487c40380400002240
 530.4 96.7998 515.2 106.4 500.8 95.2002 c 0
 492 88 482.4 83.2002 473.6 83.2002 c 0
 459.2 83.2002 445.6 93.5996 432.8 119.2 c 0
 431.2 124 426.4 127.2 420 132 c 0
 412 137.6 407.2 144.8 400.8 148.8 c 0
 394.4 152.8 390.4 162.4 390.4 172.8 c 0
 390.4 179.2 393.6 192 401.6 192 c 0
 403.2 192 404.8 191.2 407.2 189.6 c 0
 425.6 179.2 450.4 171.2 475.2 171.2 c 0
 492.8 171.2 510.4 175.2 526.4 184.8 c 0
 528.8 185.6 531.2 187.2 532 184.8 c 0
 542.4 171.2 545.6 158.4 545.6 146.4 c 0xc0487c40380400013040
 545.6 136 542.4 124.8 538.4 115.2 c 0xc0487c40380400002240
248 351.2 m 1xc0007c40380640002040
 236.8 344.8 220.8 341.6 204 341.6 c 0
 176 341.6 147.2 351.2 137.6 369.6 c 1
 137.6 567.2 l 1
 152.8 580 170.4 587.2 189.6 587.2 c 0
 204 587.2 219.2 583.2 235.2 575.2 c 1
 235.2 381.6 l 1
 239.2 371.2 248 366.4 248 355.2 c 0
 248 354.4 248 352.8 248 351.2 c 1xc0007c40380640002040
528 213.6 m 0
 528 191.2 492 184 466.4 184 c 0
 441.6 184 416 190.4 402.4 208.8 c 0
 396.8 216.8 393.6 224 393.6 230.4 c 0
 393.6 238.4 401.6 248 411.2 248 c 0
 413.6 248 416 247.2 418.4 245.6 c 0
 430.4 237.6 451.2 232.8 472.8 232.8 c 0xc0027c40380400002040
 484.8 232.8 496 234.4 507.2 236.8 c 0
 512 237.6 517.6 237.6 519.2 235.2 c 0
 524 229.6 528 221.6 528 213.6 c 0
508.8 250.4 m 1
 491.2 247.2 477.6 244.8 464 244.8 c 0
 456 244.8 448 245.6 440 247.2 c 0
 432 248 427.2 253.6 419.2 258.4 c 1
 407.2 303.2 312 324.8 247.2 388 c 1
 247.2 472 l 1xc000fc40380480002040
 277.6 430.4 334.4 379.2 406.4 379.2 c 0
 424.8 379.2 444.8 383.2 465.6 391.2 c 0
 467.2 392 467.2 392 469.6 391.2 c 0
 481.6 381.6 487.2 368 487.2 353.6 c 0
 487.2 338.4 480.8 324 472 316 c 0
 470.4 314.4 470.4 312.8 470.4 310.4 c 0
 470.4 308.8 471.2 307.2 473.6 305.6 c 0
 495.2 296.8 508.8 278.4 508.8 250.4 c 1
267.2 619.2 m 1
 265.6 606.4 260 596 250.4 588 c 0
 247.2 584.8 244 584.8 239.2 587.2 c 0
 222.4 595.2 205.6 600.8 188 600.8 c 0
 170.4 600.8 152 594.4 135.2 580 c 0
 130.4 576 124 576.8 119.2 579.2 c 0
 107.2 584.8 99.2002 602.4 99.2002 616.8 c 0
 99.2002 624.8 101.6 631.2 106.4 635.2 c 0
 136 657.6 155.2 661.6 180 661.6 c 0xc0007c50380480002040
 222.4 661.6 267.2 644 267.2 620 c 0
 267.2 619.2 l 1
389.6 429.6 m 0
 345.6 429.6 299.2 453.6 247.2 497.6 c 1
 247.2 564 l 1
 260 544.8 294.4 516 337.6 516 c 0xc0007e40380480002040
 353.6 516 370.4 520 388 528.8 c 1
 400.8 520.8 l 1
 400.8 520 400.8 518.4 400.8 517.6 c 0
 400.8 500 407.2 476.8 426.4 476.8 c 0
 435.2 476.8 446.4 481.6 460.8 492.8 c 1
 480 488.8 l 1
 469.6 459.2 427.2 429.6 389.6 429.6 c 0
282.4 763.2 m 1
 291.2 752 294.4 736.8 294.4 720.8 c 0
 294.4 701.6 288.8 682.4 280.8 671.2 c 1
 272.8 669.6 261.6 664 256.8 652.8 c 1
 229.6 668 204.8 673.6 180.8 673.6 c 0
 150.4 673.6 124 664 101.6 651.2 c 1
 89.5996 653.6 80 675.2 80 692.8 c 0
 80 715.2 96.7998 733.6 128 748 c 1
 143.2 773.6 162.4 781.6 181.6 781.6 c 0xc0007c433a0400002040
 192.8 781.6 207.2 767.2 216 750.4 c 0
 216.8 747.2 220 747.2 224 749.6 c 0
 241.6 758.4 269.6 760.8 282.4 763.2 c 1
384 589.6 m 0
 377.6 583.2 372.8 573.6 372.8 562.4 c 0xc0007cc8380400202040
 372.8 554.4 375.2 546.4 380 539.2 c 1
 370.4 531.2 356.8 527.2 342.4 527.2 c 0
 308 527.2 268 548 252 576.8 c 1
 266.4 584.8 276.8 602.4 276.8 619.2 c 0
 276.8 628 273.6 636 268 643.2 c 0
 267.2 644.8 267.2 645.6 268.8 647.2 c 0
 273.6 649.6 276 652.8 280 656.8 c 0
 280.8 657.6 282.4 657.6 284 656.8 c 0
 292 648 303.2 644 313.6 644 c 0
 323.2 644 332 647.2 338.4 651.2 c 1
 346.4 642.4 363.2 634.4 380 632.8 c 1
 378.4 628.8 376.8 623.2 376.8 616.8 c 0xc0007cc8380400082040
 376.8 608.8 379.2 600 384 593.6 c 0
 384.8 592.8 384.8 591.2 384 589.6 c 0
527.2 589.6 m 0
 528.8 591.2 530.4 591.2 531.2 591.2 c 0
 538.4 591.2 542.4 575.2 542.4 568 c 0
 542.4 536 508.8 500.8 477.6 500.8 c 0
 471.2 500.8 465.6 501.6 460 504.8 c 1
 445.6 495.2 435.2 489.6 427.2 489.6 c 0
 416 489.6 411.2 501.6 409.6 529.6 c 1
 396 535.2 383.2 546.4 383.2 560 c 0xc0007d40380400022040
 383.2 568 387.2 580.8 393.6 580.8 c 0
 395.2 580.8 396 580.8 397.6 580 c 0
 416 571.2 436.8 564.8 458.4 564.8 c 0
 480.8 564.8 504.8 572 527.2 589.6 c 0
358.4 716.8 m 0xc0007c40380402002040
 358.4 686.4 345.6 654.4 312.8 654.4 c 0
 304.8 654.4 291.2 657.6 291.2 664 c 0
 291.2 665.6 292 666.4 292.8 668 c 0
 300.8 677.6 306.4 698.4 306.4 720 c 0
 306.4 738.4 302.4 756 293.6 769.6 c 1
 294.4 777.6 306.4 781.6 319.2 781.6 c 0
 329.6 781.6 339.2 779.2 342.4 773.6 c 0
 352.8 756 358.4 736 358.4 716.8 c 0xc0007c40380402002040
539.2 657.6 m 0
 543.2 652 544.8 646.4 544.8 640.8 c 0
 544.8 628.8 537.6 617.6 531.2 608 c 1
 511.2 588.8 480.8 576.8 452 576.8 c 0
 432 576.8 412 583.2 396 596 c 0
 390.4 600 388 606.4 388 612.8 c 0
 388 620.8 391.2 629.6 396.8 636 c 1
 404.8 631.2 424.8 624.8 448.8 624.8 c 0xc0007c60380400002040
 474.4 624.8 504 632 526.4 657.6 c 0
 529.6 661.6 536 661.6 539.2 657.6 c 0
377.6 781.6 m 0xc0007c44380400102040
 401.6 781.6 433.6 756.8 433.6 727.2 c 0
 433.6 692.8 414.4 664.8 392.8 648.8 c 1
 387.2 647.2 381.6 646.4 376.8 646.4 c 0
 368.8 646.4 350.4 650.4 350.4 658.4 c 0
 350.4 659.2 350.4 660 351.2 660.8 c 0
 361.6 676.8 368.8 697.6 368.8 721.6 c 0
 368.8 736 366.4 752 359.2 768 c 0
 358.4 771.2 356 772 359.2 775.2 c 0
 364.8 779.2 371.2 781.6 377.6 781.6 c 0xc0007c44380400102040
520.8 669.6 m 1
 505.6 649.6 472.8 636 444.8 636 c 0
 435.2 636 426.4 637.6 419.2 640.8 c 1
 419.2 645.6 416 648.8 413.6 649.6 c 1
 436 671.2 445.6 700.8 447.2 728.8 c 1
 478.4 721.6 512 698.4 520.8 669.6 c 1
377.6 789.6 m 0
 367.2 789.6 356 786.4 348.8 781.6 c 1
 344.8 784.8 338.4 785.6 334.4 788.8 c 1
 329.6 790.4 324.8 791.2 320 791.2 c 0
 305.6 791.2 291.2 785.6 281.6 773.6 c 1
 268 772 240 769.6 221.6 760.8 c 1
 209.6 779.2 196.8 790.4 179.2 790.4 c 0
 152.8 790.4 135.2 775.2 121.6 756 c 1
 95.2002 741.6 72 721.6 70.4004 689.6 c 1
 70.4004 668.8 81.5996 652 95.2002 640 c 1
 91.2002 631.2 89.5996 623.2 89.5996 615.2 c 0
 89.5996 596 101.6 578.4 127.2 562.4 c 1
 127.2 372.8 l 1
 107.2 364.8 88 347.2 88 323.2 c 0
 88 314.4 90.4004 305.6 96 296 c 1
 85.5996 284 80.7998 269.6 80.7998 254.4 c 0
 80.7998 232.8 92 210.4 113.6 196 c 1
 112.8 129.6 84 80 44.7998 28.7998 c 0
 43.2002 26.4004 42.4004 24 42.4004 21.5996 c 0
 42.4004 8.7998 63.2002 -3.2002 92 -4 c 0
 127.2 -4 160.8 9.59961 181.6 21.5996 c 1
 184 24.7998 188.8 26.4004 192.8 28.7998 c 1
 215.2 19.2002 237.6 16.7998 264 16.7998 c 1
 276 4 290.4 -3.2002 304 -3.2002 c 0
 314.4 -3.2002 324.8 0.799805 333.6 9.59961 c 1
 337.6 8.7998 341.6 8 344.8 8 c 0
 364 8 378.4 20.7998 387.2 32.7998 c 1
 389.6 32 393.6 32 397.6 32 c 0
 405.6 32 416 32.7998 425.6 34.4004 c 1
 428.8 35.2002 432.8 36 436 35.2002 c 0
 436.8 36 438.4 36 439.2 36 c 0
 468.8 15.2002 488.8 -3.2002 537.6 -4 c 0
 555.2 -4 572 4 572 20.7998 c 0
 572 41.5996 549.6 86.4004 544 100 c 1
 549.6 115.2 556 131.2 556 150.4 c 0xea007c417d2c000022c0
 556 170.4 545.6 188 538.4 200 c 1
 538.4 228 530.4 239.2 518.4 249.6 c 1
 518.4 250.4 518.4 251.2 518.4 252 c 0
 518.4 280 504 300.8 484.8 313.6 c 1
 492 327.2 496.8 344 496.8 359.2 c 0
 496.8 377.6 490.4 394.4 473.6 407.2 c 1
 448 394.4 424.8 388.8 402.4 388.8 c 0
 348 388.8 303.2 423.2 268 460.8 c 0
 265.6 463.2 268 467.2 271.2 464.8 c 0
 319.2 436.8 352 420 392.8 420 c 0
 429.6 420 476 448 491.2 490.4 c 1
 530.4 505.6 552 540 552 571.2 c 0
 552 582.4 548.8 593.6 543.2 603.2 c 1xea007c41780400002f40
 548 610.4 555.2 623.2 555.2 638.4 c 0
 555.2 650.4 551.2 664 537.6 677.6 c 1
 510.4 712.8 479.2 729.6 443.2 742.4 c 1
 428.8 771.2 404 789.6 377.6 789.6 c 0
543.2 200.8 m 1
 551.2 187.2 561.6 168.8 561.6 145.6 c 0
 561.6 128.8 552.8 113.6 548 100 c 1
 555.2 85.5996 576.8 41.5996 576.8 20.7998 c 0
 576.8 1.59961 559.2 -8 537.6 -8 c 0
 494.4 -7.2002 474.4 4.7998 451.2 22.4004 c 1
 452 20 452 17.5996 452 15.2002 c 0
 452 4.7998 443.2 -1.59961 433.6 -1.59961 c 0
 422.4 -1.59961 413.6 7.2002 413.6 18.4004 c 0
 413.6 21.5996 415.2 24.7998 416.8 27.2002 c 1
 413.6 27.2002 410.4 27.2002 408 27.2002 c 0
 400.8 27.2002 394.4 28 389.6 28.7998 c 1
 379.2 16.7998 368 3.2002 348 3.2002 c 0
 344 3.2002 340 4 336 4.7998 c 1
 325.6 -4.7998 315.2 -8.7998 304 -8.7998 c 0
 289.6 -8.7998 275.2 -1.59961 261.6 12 c 1
 240.8 12 227.2 18.4004 208 18.4004 c 1
 209.6 15.2002 209.6 12.7998 209.6 10.4004 c 0
 209.6 1.59961 201.6 -3.2002 193.6 -3.2002 c 0
 186.4 -3.2002 176.8 2.40039 178.4 15.2002 c 1
 159.2 4 129.6 -8 96.7998 -8 c 0
 64 -8 36.7998 5.59961 36.7998 20.7998 c 0
 36.7998 24 37.5996 27.2002 40 29.5996 c 0
 77.5996 76.7998 108.8 136.8 108.8 188 c 0
 108.8 189.6 108.8 192 108.8 193.6 c 1
 86.4004 209.6 74.4004 231.2 74.4004 253.6 c 0
 74.4004 268.8 80 284 91.2002 296.8 c 1
 85.5996 306.4 83.2002 316 83.2002 324.8 c 0
 83.2002 348.8 102.4 367.2 123.2 376 c 1
 123.2 560.8 l 1
 96 576.8 83.2002 594.4 83.2002 613.6 c 0
 83.2002 621.6 84.7998 629.6 88.7998 638.4 c 1
 76.7998 651.2 65.5996 666.4 65.5996 685.6 c 0
 65.5996 718.4 81.5996 738.4 105.6 752.8 c 1
 96 754.4 89.5996 763.2 89.5996 772.8 c 0
 89.5996 782.4 96.7998 792 108 792 c 0xea007c40bd6d00006ec0
 118.4 792 128 783.2 128 772 c 0
 128 771.2 128 771.2 128 770.4 c 1
 140.8 784.8 156.8 795.2 179.2 795.2 c 0
 197.6 795.2 212 785.6 224 767.2 c 1
 242.4 775.2 264.8 776 280 777.6 c 1
 291.2 790.4 306.4 796 320.8 796 c 0
 323.2 796 326.4 796 329.6 795.2 c 1
 328.8 797.6 328 800 328 803.2 c 0
 328 815.2 336.8 824.8 348.8 824.8 c 0
 360 824.8 368.8 816.8 368.8 805.6 c 0
 368.8 800.8 368 796.8 365.6 792.8 c 1
 370.4 794.4 375.2 795.2 380.8 795.2 c 0
 407.2 795.2 432.8 776 447.2 745.6 c 1
 482.4 732.8 514.4 717.6 540.8 680.8 c 1
 555.2 665.6 560 651.2 560 638.4 c 0
 560 623.2 552.8 610.4 548 603.2 c 1
 554.4 592.8 556.8 580.8 556.8 568.8 c 0
 556.8 536.8 536 502.4 495.2 486.4 c 1
 477.6 439.2 428.8 415.2 384.8 415.2 c 0
 352 415.2 323.2 428 285.6 450.4 c 1
 316.8 418.4 356 393.6 402.4 393.6 c 0
 424 393.6 448 399.2 473.6 412 c 1
 493.6 397.6 501.6 379.2 501.6 359.2 c 0
 501.6 344 496.8 328.8 489.6 314.4 c 1
 508.8 302.4 522.4 284.8 522.4 259.2 c 0xc0007c407d6d01406d40
 522.4 256.8 522.4 255.2 522.4 252.8 c 1
 534.4 240 543.2 231.2 543.2 200.8 c 1
514.4 549.6 m 1
 514.4 549.6 513.6 549.6 513.6 550.4 c 0
 513.6 552 513.6 552 512 552 c 1
 501.6 544.8 487.2 541.6 472 541.6 c 0
 445.6 541.6 416 550.4 403.2 560.8 c 0
 401.6 561.6 401.6 561.6 400 560.8 c 1
 400 559.2 400.8 559.2 402.4 557.6 c 0
 408.8 553.6 414.4 548.8 423.2 544.8 c 0
 431.2 541.6 436 539.2 444 536.8 c 1
 441.6 529.6 441.6 527.2 439.2 520.8 c 1
 436.8 516.8 432.8 510.4 427.2 504.8 c 1
 425.6 501.6 427.2 498.4 431.2 500.8 c 1
 440.8 510.4 448 519.2 453.6 533.6 c 1
 463.2 533.6 l 2xc0007d40380400022040
 480.8 533.6 506.4 541.6 514.4 549.6 c 1
108 756 m 0
 116.8 756 124.8 763.2 124.8 772 c 0
 124.8 780.8 116.8 788 108.8 788 c 0
 99.2002 788 92.7998 780.8 92.7998 772 c 0xc0007c40b84400002040
 92.7998 762.4 99.2002 756 108 756 c 0
183.2 17.5996 m 1
 182.4 16 182.4 14.4004 182.4 12.7998 c 0
 182.4 5.59961 188 0.799805 193.6 0.799805 c 0
 201.6 0.799805 205.6 6.40039 205.6 12 c 0xc0007c40380500002040
 205.6 14.4004 204.8 17.5996 204 20 c 1
 200 20.7998 196.8 22.4004 192.8 24 c 1
 190.4 22.4004 187.2 20 183.2 17.5996 c 1
419.2 19.2002 m 0xc0007c40380400006040
 419.2 10.4004 425.6 3.2002 434.4 3.2002 c 0
 442.4 3.2002 447.2 11.2002 447.2 18.4004 c 0
 447.2 24 444.8 28.7998 438.4 31.2002 c 1
 432.8 29.5996 428 28.7998 422.4 28 c 1
 420 25.5996 419.2 22.4004 419.2 19.2002 c 0xc0007c40380400006040
EndSplineSet
Validated: 1
EndChar

StartChar: uni0413
Encoding: 1043 1043 47
Width: 589
VWidth: 800
Flags: W
HStem: -13 4<159.097 174.903> -5 9<74 124.662 204.186 294.669> 10 24<66.6819 104.589 230.692 267.445> 257 65<129.564 162> 330 34<113.523 220.365> 350 6<483.727 494.982> 374 59<118.029 224.906> 388 58<89.9092 171.31> 443 164<115.06 219.187> 443 155<115.06 160.158 171.438 219.188> 612 3<400.354 406> 616 62<104.19 219.068> 660 6.5<344.892 375.766> 670 4<536.75 549.454> 686 37<105.151 193.614> 698 28<401 412.937> 699 3<541.008 548.789> 730 52<120.801 162 168 215.988> 733 59<389.008 440.198> 742 35<292.009 327.22 429.519 524.002> 779 3<89.2569 99.9735 237.708 244.288> 782 8<346.765 355.219> 788 6<144.549 167 168 191.098 460.309 505.066> 794 5<305.3 335.69 441.322 452.192> 802 6<380.218 421.858> 814 4<345.059 357.54>
VStem: 30 6<10 19.8943> 61 5<338.493 365.661 707.354 720.509> 74 4<408.958 432.164 629.227 648.121> 101 5<220.25 292.692 457.574 596.003> 108 2<769 770.082> 114 48<111.945 215.937 273.547 278 455.031 595.969> 152 4<-5.99048 5.9126> 171 49<112.164 216.453 273.032 278 454.908 596.092> 178 4<-5.99048 4.9259> 229 5<219.918 292.63 458.849 596.694> 246 14.5<118.15 133.014 657.166 657.204> 254 3<759.264 770.718> 256 6<408.443 433.926> 268 6<332.917 367.519> 278 5<742.268 771.062> 298 6<8.53809 18.6272> 337 2<798.826 806.75> 342 47<674.633 732.259> 364 2<798 805.83> 390 4<593.648 606.63> 397 17<699.322 724> 413 5<476.412 580.282> 422 34<691.751 732.936> 426 38<486.274 586.004> 462 28<621.188 700.09> 491 6<363.637 425.802> 498 29<570.319 686.26> 535 7<553.403 642.745> 551 6<731.635 776.632> 556 2<682.34 690.788>
AnchorPoint: "Diacritic" 342 891 basechar 0
LayerCount: 2
Fore
SplineSet
339.2 802.4 m 0xf20000fe1fb8e0
 339.2 794.4 347.2 792.8 352 790.4 c 1
 356.8 790.4 364 796 364 801.6 c 0
 364 808 357.6 814.4 352 814.4 c 0
 345.6 814.4 339.2 808.8 339.2 802.4 c 0xf20000fe1fb8e0
352 817.6 m 0
 360.8 817.6 366.4 809.6 366.4 802.4 c 0
 366.4 800.8 366.4 800 366.4 798.4 c 1
 375.2 804 384.8 808 398.4 808 c 0
 431.2 808 456.8 793.6 480.8 793.6 c 0
 498.4 793.6 524 799.2 526.4 812.8 c 0
 527.2 814.4 528 814.4 528.8 814.4 c 0
 529.6 814.4 530.4 815.2 531.2 814.4 c 0
 548 801.6 556.8 778.4 556.8 750.4 c 0xf20005febfb8f0
 556.8 732 550.4 715.2 540.8 702.4 c 1
 541.6 702.4 542.4 702.4 543.2 702.4 c 0
 550.4 702.4 558.4 696 558.4 687.2 c 0
 558.4 677.6 552 670.4 541.6 670.4 c 0
 539.2 670.4 536.8 671.2 534.4 672.8 c 1
 539.2 648 541.6 611.2 541.6 587.2 c 0
 541.6 509.6 496.8 464 496.8 396 c 0
 496.8 384.8 497.6 372 500.8 359.2 c 1
 500.8 353.6 495.2 349.6 492 349.6 c 0
 465.6 353.6 412.8 432 412.8 504.8 c 0
 412.8 516.8 412 528.8 412 540 c 0
 412 556 412.8 571.2 415.2 584.8 c 1
 412.8 583.2 409.6 582.4 407.2 582.4 c 0
 398.4 582.4 390.4 589.6 390.4 599.2 c 0
 390.4 607.2 396.8 615.2 405.6 615.2 c 1
 392.8 629.6 385.6 648.8 383.2 668 c 1xf66485fe1f98e8
 380.8 665.6 371.2 660 362.4 660 c 0
 351.2 660 341.6 664.8 340 668.8 c 1
 322.4 644 264 605.6 234.4 596 c 1
 234.4 460 l 1
 247.2 453.6 260 438.4 262.4 424 c 1
 262.4 411.2 259.2 403.2 251.2 394.4 c 1
 264.8 384.8 273.6 368.8 273.6 353.6 c 0
 273.6 333.6 268 308.8 235.2 292 c 1
 235.2 245.6 l 2
 235.2 166.4 276 59.2002 299.2 20.7998 c 0
 301.6 18.4004 304 14.4004 304 10.4004 c 0
 304 3.2002 295.2 -4.7998 264 -4.7998 c 0
 232.8 -4.7998 202.4 -1.59961 180.8 4.7998 c 1
 181.6 4 181.6 2.40039 181.6 0.799805 c 0
 181.6 -7.2002 175.2 -12 168 -12 c 0
 160 -12 152 -7.2002 152 0.799805 c 0
 152 2.40039 152 4 152.8 5.59961 c 1
 132 -1.59961 100.8 -4.7998 70.4004 -4.7998 c 0
 36.7998 -4.7998 29.5996 3.2002 29.5996 10.4004 c 0
 29.5996 14.4004 31.2002 18.4004 32.7998 20.7998 c 0
 57.5996 59.2002 100 166.4 100 245.6 c 2
 100 292 l 1
 71.2002 308 60.7998 334.4 60.7998 353.6 c 0
 60.7998 368.8 71.2002 387.2 84 394.4 c 1
 76.7998 402.4 73.5996 411.2 73.5996 420 c 0
 73.5996 436 84.7998 450.4 100.8 459.2 c 1
 100.8 595.2 l 1
 83.2002 601.6 72.7998 620.8 72.7998 639.2 c 0
 72.7998 652.8 78.4004 661.6 88.7998 669.6 c 1
 76 676.8 61.5996 688 61.5996 711.2 c 0
 61.5996 730.4 76 744.8 89.5996 752.8 c 1
 84 755.2 79.2002 760.8 79.2002 766.4 c 0
 79.2002 774.4 87.2002 782.4 96 782.4 c 0xf20802febf98e8
 103.2 782.4 109.6 775.2 110.4 768.8 c 1
 122.4 784 144.8 794.4 168 794.4 c 0
 192 794.4 212.8 785.6 226.4 768.8 c 1
 228 776.8 235.2 780.8 242.4 780.8 c 0
 249.6 780.8 256.8 776 256.8 766.4 c 0
 256.8 760.8 252.8 754.4 247.2 752 c 1
 257.6 746.4 268.8 736.8 272 730.4 c 1
 276 732.8 280 736.8 280.8 740 c 1
 279.2 744 277.6 750.4 277.6 756.8 c 0
 277.6 768 281.6 780.8 289.6 788.8 c 0xf20005febf98e8
 298.4 796 308.8 799.2 320 799.2 c 0
 325.6 799.2 332 797.6 337.6 796 c 1
 336.8 797.6 336.8 800 336.8 801.6 c 0
 336.8 810.4 344 817.6 352 817.6 c 0
229.6 767.2 m 0
 229.6 757.6 236.8 756.8 244 753.6 c 1
 249.6 753.6 254.4 759.2 254.4 764 c 0
 254.4 771.2 247.2 778.4 240.8 778.4 c 0
 234.4 778.4 229.6 772.8 229.6 767.2 c 0
94.4004 779.2 m 0xf20002fe1f98e0
 88 779.2 82.4004 773.6 82.4004 768 c 0
 82.4004 762.4 88 756.8 93.5996 755.2 c 1
 97.5996 756.8 101.6 758.4 104.8 759.2 c 1
 105.6 760.8 106.4 763.2 108 764.8 c 1
 108 772 100.8 779.2 94.4004 779.2 c 0xf20002fe1f98e0
104.8 44 m 1
 101.6 48 96.7998 48 92.7998 47.2002 c 1
 89.5996 43.2002 90.4004 33.5996 96 33.5996 c 0
 101.6 33.5996 106.4 37.5996 104.8 44 c 1
242.4 44 m 0
 240 48 234.4 48 231.2 46.4004 c 1
 228 43.2002 228 33.5996 234.4 33.5996 c 0
 240.8 33.5996 244.8 37.5996 242.4 44 c 0
211.2 56 m 1
 203.2 67.2002 199.2 74.4004 192.8 82.4004 c 1
 184 98.4004 171.2 128 171.2 158.4 c 2
 171.2 212 l 2
 171.2 219.2 162.4 218.4 162.4 211.2 c 2
 162.4 158.4 l 2xf20000ff5f98e0
 162.4 128 147.2 98.4004 139.2 83.2002 c 1
 132 72 128 64 121.6 56 c 1
 132 67.2002 136 74.4004 143.2 82.4004 c 1
 148 90.4004 160 107.2 166.4 127.2 c 1
 171.2 107.2 183.2 91.2002 188 82.4004 c 1
 195.2 74.4004 200.8 64 211.2 56 c 1
229.6 352 m 0
 233.6 355.2 231.2 356 228 352.8 c 1
 208.8 340.8 191.2 330.4 168 330.4 c 0xfa0000ff5f98e0
 140.8 330.4 120.8 342.4 101.6 352.8 c 0
 97.5996 355.2 100 351.2 101.6 349.6 c 0xf60000ff5f98e0
 115.2 339.2 136.8 322.4 162.4 322.4 c 1
 162.4 278.4 l 2
 162.4 271.2 171.2 270.4 171.2 277.6 c 2
 171.2 322.4 l 1
 195.2 322.4 216 339.2 229.6 352 c 0
171.2 458.4 m 2
 171.2 592.8 l 2
 171.2 597.6 164 597.6 164 592.8 c 2
 164 458.4 l 2
 164 453.6 171.2 453.6 171.2 458.4 c 2
224.8 709.6 m 0
 213.6 719.2 190.4 729.6 168 729.6 c 1
 168 759.2 l 2
 168 764 166.4 764 165.6 759.2 c 2
 162.4 729.6 l 1
 138.4 729.6 119.2 720.8 104 708 c 0
 100 704.8 100 701.6 104 704.8 c 0
 119.2 716 143.2 722.4 166.4 722.4 c 0xf20240ff1f98e0
 189.6 722.4 208 716.8 222.4 708 c 0
 226.4 705.6 228.8 707.2 224.8 709.6 c 0
312.8 700.8 m 0
 316 703.2 312 707.2 308.8 704.8 c 0
 294.4 691.2 276 661.6 260.8 652.8 c 0
 259.2 652 260.8 648 263.2 648.8 c 0
 277.6 657.6 298.4 687.2 312.8 700.8 c 0
282.4 12.7998 m 1
 275.2 12 266.4 11.2002 257.6 11.2002 c 0
 224.8 11.2002 186.4 18.4004 168 35.2002 c 1
 148.8 20 111.2 10.4004 77.5996 10.4004 c 0
 68 10.4004 58.4004 11.2002 49.5996 12.7998 c 1
 73.5996 51.2002 113.6 151.2 113.6 240.8 c 0
 113.6 242.4 113.6 244 113.6 245.6 c 2
 113.6 288.8 l 1
 124 262.4 140 247.2 168 247.2 c 0
 192 247.2 208 260.8 220 288 c 1
 220 245.6 l 1xf20000ff5f98e0
 220 157.6 258.4 53.5996 282.4 12.7998 c 1
259.2 348.8 m 0
 259.2 321.6 231.2 304.8 212 292.8 c 1
 204.8 274.4 189.6 256.8 168 256.8 c 0
 144 256.8 128 274.4 123.2 293.6 c 1
 100.8 304.8 76.7998 321.6 76.7998 346.4 c 0
 76.7998 357.6 80.7998 369.6 88.7998 376.8 c 1
 92.7998 379.2 96.7998 380.8 104 379.2 c 1
 125.6 369.6 147.2 364 170.4 364 c 0xfa0000fe1f98e0
 190.4 364 211.2 368 232.8 377.6 c 1
 236.8 380.8 242.4 379.2 246.4 376.8 c 1
 254.4 368.8 259.2 360.8 259.2 348.8 c 0
246.4 420 m 0
 246.4 384 208 373.6 172.8 373.6 c 0
 147.2 373.6 121.6 379.2 108 388 c 0
 97.5996 395.2 88.7998 404 88.7998 420 c 0
 88.7998 435.2 106.4 446.4 115.2 446.4 c 0
 116 446.4 116 446.4 116.8 446.4 c 0
 137.6 438.4 154.4 433.6 172 433.6 c 0
 187.2 433.6 202.4 436.8 219.2 444.8 c 0
 220 444.8 220.8 445.6 221.6 445.6 c 0
 230.4 445.6 246.4 434.4 246.4 420 c 0
220 455.2 m 1xf30000fe5f98e0
 202.4 447.2 189.6 443.2 168.8 443.2 c 0xf30000fe5f98e0
 148 443.2 134.4 449.6 114.4 459.2 c 1
 114.4 597.6 l 1xf28000fe5f98e0
 131.2 604.8 148 606.4 168.8 606.4 c 0
 188 606.4 200.8 604 220 596.8 c 1
 220 455.2 l 1xf30000fe5f98e0
87.2002 632.8 m 0
 87.2002 670.4 136.8 678.4 165.6 678.4 c 0
 194.4 678.4 237.6 673.6 237.6 643.2 c 0
 237.6 627.2 226.4 613.6 220 608 c 1
 204 613.6 184.8 616 166.4 616 c 0xf31000fe5f98e0
 145.6 616 126.4 612.8 112.8 606.4 c 1
 98.4004 611.2 87.2002 620 87.2002 632.8 c 0
263.2 711.2 m 0
 263.2 693.6 246.4 677.6 231.2 671.2 c 1
 211.2 681.6 187.2 686.4 164.8 686.4 c 0
 142.4 686.4 121.6 682.4 105.6 674.4 c 1
 94.4004 678.4 74.4004 692 74.4004 710.4 c 0
 74.4004 732 98.4004 744 115.2 750.4 c 1
 120.8 767.2 144 782.4 168 782.4 c 0xf20640fe1f98e0
 192.8 782.4 217.6 768.8 222.4 746.4 c 1
 238.4 746.4 263.2 728.8 263.2 711.2 c 0
232.8 609.6 m 1xf22000fe1f98e0
 239.2 617.6 246.4 628.8 246.4 644 c 0
 246.4 652.8 243.2 659.2 240 668 c 1
 267.2 684 277.6 716 296.8 737.6 c 1
 315.2 734.4 335.2 708 335.2 682.4 c 1
 316 655.2 251.2 612.8 232.8 609.6 c 1xf22000fe1f98e0
388.8 711.2 m 0xf20008fe1fd8e0
 388.8 696 380.8 673.6 361.6 673.6 c 0
 354.4 673.6 347.2 676 342.4 682.4 c 1
 342.4 707.2 327.2 737.6 296.8 744 c 1
 293.6 748 292 753.6 292 759.2 c 0
 292 774.4 307.2 783.2 322.4 783.2 c 0
 354.4 783.2 388.8 746.4 388.8 711.2 c 0xf20008fe1fd8e0
478.4 380.8 m 1
 450.4 419.2 426.4 462.4 426.4 527.2 c 0
 426.4 558.4 435.2 582.4 452 612.8 c 1
 450.4 612.8 448 612.8 446.4 612.8 c 0
 415.2 612.8 395.2 651.2 395.2 681.6 c 1
 392.8 676.8 389.6 672.8 388.8 671.2 c 1
 392 644.8 401.6 621.6 425.6 608 c 0
 427.2 606.4 427.2 605.6 426.4 604 c 0
 420 585.6 417.6 562.4 417.6 536 c 0
 417.6 525.6 418.4 515.2 418.4 504.8 c 0
 418.4 436 467.2 360 492 356 c 0
 492.8 356 494.4 356.8 495.2 357.6 c 1
 492 371.2 491.2 383.2 491.2 395.2 c 0
 491.2 464 535.2 510.4 535.2 587.2 c 0
 535.2 619.2 531.2 674.4 522.4 688 c 0
 521.6 689.6 522.4 691.2 524 692 c 0
 538.4 706.4 551.2 728 551.2 752.8 c 0
 551.2 776 544 794.4 531.2 807.2 c 1
 525.6 792.8 499.2 788 478.4 788 c 0
 450.4 788 428.8 802.4 397.6 802.4 c 0
 380 802.4 365.6 793.6 354.4 784 c 0
 353.6 782.4 351.2 782.4 350.4 784 c 0
 343.2 789.6 332 793.6 320 793.6 c 0
 311.2 793.6 301.6 791.2 293.6 784.8 c 0
 285.6 778.4 283.2 766.4 283.2 756 c 0
 283.2 748.8 284 743.2 286.4 740 c 1
 291.2 736.8 273.6 723.2 272 722.4 c 0
 268.8 720.8 268 720.8 267.2 724 c 0
 264.8 733.6 241.6 750.4 230.4 752 c 1
 219.2 776 196 788.8 168 788.8 c 0
 140.8 788.8 115.2 772.8 108.8 754.4 c 1
 96.7998 751.2 69.5996 736.8 67.2002 716.8 c 1
 67.2002 690.4 80.7998 681.6 96 671.2 c 0
 97.5996 670.4 97.5996 668.8 96 668 c 0xf62211fe1f9af0
 84.7998 660 79.2002 652 79.2002 639.2 c 0
 79.2002 622.4 88 604.8 105.6 600.8 c 1
 105.6 455.2 l 1
 92 452 78.4004 437.6 78.4004 421.6 c 0
 78.4004 410.4 83.2002 402.4 88.7998 395.2 c 0
 92 392 90.4004 391.2 88.7998 389.6 c 1
 76.7998 384.8 69.5996 372 66.4004 356.8 c 1
 66.4004 337.6 72.7998 312.8 104.8 297.6 c 1
 104.8 248.8 l 2
 104.8 166.4 62.4004 59.2002 39.2002 20 c 0
 37.5996 17.5996 36 15.2002 36 13.5996 c 0
 36 8 43.2002 4 70.4004 4 c 0
 108.8 4 148 8 164.8 20 c 1
 166.4 20 168 20.7998 168.8 20 c 0
 187.2 8 226.4 4 264 4 c 0
 290.4 4 297.6 8 297.6 12.7998 c 0
 297.6 15.2002 296 17.5996 294.4 20 c 0
 271.2 59.2002 230.4 166.4 230.4 248.8 c 2
 230.4 297.6 l 1
 258.4 311.2 268 332 268 350.4 c 0
 268 368.8 258.4 384 246.4 389.6 c 0
 243.2 391.2 242.4 392 244 395.2 c 1
 249.6 401.6 256 409.6 256 420 c 0
 256 436.8 242.4 453.6 228.8 456 c 1
 228.8 600.8 l 1
 266.4 614.4 314.4 647.2 338.4 676.8 c 1
 344 668.8 350.4 666.4 358.4 666.4 c 0xf20800fe1f9af0
 362.4 666.4 366.4 667.2 370.4 668 c 0
 390.4 672 396.8 700.8 396.8 716.8 c 0
 396.8 720 396 722.4 396 724 c 1
 397.6 725.6 399.2 725.6 400.8 725.6 c 0
 407.2 725.6 414.4 719.2 414.4 712 c 0
 414.4 704 407.2 696.8 400.8 698.4 c 1
 398.4 690.4 l 2
 399.2 690.4 399.2 690.4 400 690.4 c 0
 414.4 690.4 422.4 700.8 422.4 711.2 c 0
 422.4 720.8 412.8 732.8 400.8 732.8 c 0
 398.4 732.8 396 732 393.6 731.2 c 1
 393.6 742.4 376.8 768.8 359.2 776.8 c 1
 368.8 788 382.4 792 396.8 792 c 0xf22120fe1f9cf0
 426.4 792 460 776.8 480.8 776.8 c 2
 486.4 776.8 l 2xf20010fe1f9cf0
 505.6 776.8 520 777.6 535.2 789.6 c 1
 540 778.4 542.4 768.8 542.4 759.2 c 0
 542.4 732 525.6 709.6 508.8 694.4 c 1
 522.4 668.8 527.2 639.2 527.2 604.8 c 0
 527.2 599.2 527.2 593.6 527.2 588 c 0
 527.2 507.2 478.4 457.6 478.4 387.2 c 0
 478.4 385.6 478.4 383.2 478.4 380.8 c 1
460 735.2 m 1
 464 734.4 468 734.4 472 734.4 c 0
 495.2 734.4 512.8 743.2 525.6 756.8 c 0
 528 759.2 528.8 761.6 528 761.6 c 0
 527.2 761.6 526.4 761.6 524.8 760 c 0
 511.2 748.8 493.6 741.6 474.4 741.6 c 0
 462.4 741.6 449.6 744.8 438.4 751.2 c 0
 428.8 756 425.6 744 434.4 740 c 0
 447.2 735.2 456 714.4 456 696.8 c 0
 456 676.8 444.8 664.8 432 653.6 c 1
 428 651.2 428.8 648.8 432.8 652 c 0
 449.6 662.4 461.6 672.8 461.6 698.4 c 0
 461.6 708 460 718.4 456 726.4 c 1
 480 704.8 490.4 672.8 490.4 636 c 0xf20010fe1f9de0
 490.4 588 473.6 569.6 465.6 528.8 c 0
 464.8 522.4 464 516.8 464 510.4 c 0
 464 495.2 466.4 481.6 469.6 471.2 c 0
 470.4 465.6 472.8 465.6 471.2 471.2 c 0
 469.6 480 468 492.8 468 505.6 c 0
 468 512.8 468 519.2 469.6 525.6 c 0
 477.6 567.2 498.4 587.2 498.4 635.2 c 0
 498.4 673.6 485.6 710.4 460 735.2 c 1
556 687.2 m 0xf20480fe1f98e8
 556 692.8 549.6 699.2 543.2 699.2 c 0
 537.6 699.2 531.2 693.6 530.4 689.6 c 1
 531.2 686.4 532 683.2 532.8 679.2 c 1
 536 676 539.2 674.4 542.4 674.4 c 0
 549.6 674.4 556 680 556 687.2 c 0xf20480fe1f98e8
408.8 612 m 0
 407.2 612 l 0
 400 612 393.6 606.4 393.6 600 c 0
 393.6 593.6 401.6 586.4 407.2 586.4 c 0xf24000fe1f98e0
 410.4 586.4 413.6 588 416 590.4 c 1
 416.8 594.4 417.6 599.2 419.2 603.2 c 1
 415.2 605.6 412 608.8 408.8 612 c 0
157.6 7.2002 m 1
 156.8 4.7998 156 3.2002 156 0.799805 c 0
 156 -4 162.4 -8 168 -8 c 0
 173.6 -8 177.6 -4 177.6 0.799805 c 0xf20000febf98e0
 177.6 3.2002 176.8 4.7998 176 6.40039 c 1
 172.8 8 169.6 9.59961 166.4 11.2002 c 1
 164 9.59961 160.8 8 157.6 7.2002 c 1
EndSplineSet
Validated: 1
EndChar

StartChar: uni0414
Encoding: 1044 1044 48
Width: 735
VWidth: 800
Flags: W
HStem: -188 3<558.712 571.214> -160 5<159 160 551.198 573.186> -148 29.5<155.912 191.662 545.493 577.593> -110 6<180.875 225.409> -106 5<519.013 555.205> -58 7<358.312 391.216 530.906 557.463> -51 51<191 234> -51 6<175.096 202.681 543.951 567.201> -44 109<360.32 405.307> -43 5<335.831 344.317 405.654 432.111> -42 28<454.757 468.461 518.699 554.805> -37 40<160.535 221.294> -32 20G<515 518> -29 51<618 655.051> -5 21G<514 530> 73 6<356.817 370 371 386.459> 82 5.5<570.127 591.969> 92.5 14.5<219.063 231.269> 117 77<232.595 276.562> 187 22<484.369 491.609> 202 35<205.188 290.926> 220 18<484.156 492.82> 246 64.5<242.7 319.902> 295 31<434.508 530.3> 318 28<278.008 284.968> 338 59<419.396 553.023> 352 56<403.011 485.878 488.123 493.829 495.17 566.17> 353 5<217.156 230> 407 19<485.126 493.206> 515 7<260.042 304.144> 605 3<192.361 203.328> 611 23<472.5 493.699> 626 5<326.803 349.511> 634 3<190.313 199.897> 636 66.5<545.764 566.122> 639 25<305.688 369.108 489.129 491.127> 671 27<256.939 381.058> 682 29<444.508 538.098> 702 6<281.149 350> 705 5<298 370.772> 718 36<438.913 520.307> 762 60<456.398 489> 812 2<559.9 569.131> 814 3<421.37 432.205> 830 8<477.545 514.552>
VStem: 22 6<-86.9199 -39.9026> 37 35<-121.475 -42.75> 80 14<-90.7631 -58.5283> 83 6<-242.84 -206.481> 94 5<29.4829 48.6948> 100 47<-190.431 -162.036 -106.401 -41.0778> 108 36<-160.967 -147.345 21.3296 68.1875> 143 7<198.872 241.168> 154 5<-182.717 -162 117.984 142.591> 158 7<-91.6125 -64.8511 143.597 168.963> 170 6<149.096 163.775 285.515 316.429> 180 3<616.661 626.409> 183 3<-180.113 -167.583> 197 39<707.924 730.551> 205 5<578.62 608> 224 68<546.862 627.287> 231 83<161.375 193.131> 232 6<-22.0922 -8.06299> 244 5<738.337 754> 297 5<119.438 151.642> 298 53<6.47754 39.597> 302 6<572.655 607.002> 324 4<189.878 219.458> 336 6<266.787 300.492> 360 55<-28.7565 53.7042> 368 6<570.381 606.5> 374 6<301.071 334.903> 386 5<363.593 390.438> 394 7<714.4 752.443> 411 3<795.215 806.675> 419 151<644.554 701.678> 420 6<103.177 248.648 422.813 532.875> 434 51<61.7803 187 426.001 610.999> 494 45<68.2632 187 426.001 610.999> 501 5<-28.7637 -17> 548 5<423.014 626.895> 548 2<-176.186 -165.895> 550 7<110.479 248.319> 572 38<-2.17969 68.8307> 576 6<-176.936 -162.133 -81.5332 -67.3193 359.823 393.03> 580 6<655.751 687.458> 586 6<298.681 338.366 718.682 754.879> 618 6<37.6045 53.75> 633.5 18.5<-92.04 -49.0326> 641 5<-238.811 -199.587> 660 38<-116.062 -34.3489> 707 5<-79.0625 -60 -58 -41.6672>
DStem2: 550 250 557 246 0.762051 0.647517<-455.647 -414.7 2.74429 32.1044>
AnchorPoint: "Diacritic" 399 891 basechar 0
LayerCount: 2
Fore
SplineSet
550.4 -172 m 0xe60080f847208830048198
 550.4 -179.2 557.6 -184.8 564 -184.8 c 0
 569.6 -184.8 574.4 -181.6 576 -176.8 c 1
 574.4 -168.8 576 -163.2 569.6 -160 c 1
 565.6 -160.8 562.4 -160 559.2 -160 c 1
 554.4 -161.6 550.4 -166.4 550.4 -172 c 0xe60080f847208830048198
159.2 -163.2 m 1
 159.2 -162.4 159.2 -162.4 160 -162.4 c 1
 159.2 -162.4 l 1
 159.2 -162.4 159.2 -162.4 159.2 -163.2 c 1
174.4 -161.6 m 1
 167.2 -163.2 162.4 -161.6 159.2 -167.2 c 1
 159.2 -171.2 159.2 -174.4 159.2 -178.4 c 1
 160.8 -184 166.4 -186.4 171.2 -186.4 c 0
 177.6 -186.4 183.2 -183.2 183.2 -175.2 c 0xe60080f847229830040198
 183.2 -168.8 180 -163.2 174.4 -161.6 c 1
195.2 633.6 m 0
 189.6 633.6 183.2 628 183.2 622.4 c 0xe60080f84720c830040198
 183.2 614.4 191.2 608 198.4 608 c 0
 201.6 608 204 608.8 206.4 612 c 1
 207.2 615.2 208 617.6 208.8 620 c 1
 208.8 627.2 202.4 633.6 195.2 633.6 c 0
203.2 -109.6 m 0xf60280f94766a974444798
 176 -109.6 158.4 -102.4 158.4 -80.7998 c 0
 158.4 -68 164 -57.5996 170.4 -44.7998 c 0
 172 -40.7998 180.8 -44.7998 185.6 -44.7998 c 0
 207.2 -44.7998 232 -28 232 -12 c 0
 232 -8 227.2 1.59961 233.6 0 c 0
 272 -8.7998 300 -35.2002 342.4 -36 c 1
 351.2 -46.4004 363.2 -51.2002 376 -51.2002 c 0
 388 -51.2002 399.2 -46.4004 406.4 -37.5996 c 1
 408 -37.5996 410.4 -37.5996 412 -37.5996 c 0
 454.4 -37.5996 468 -12.7998 504 -11.2002 c 0
 505.6 -11.2002 506.4 -12 506.4 -13.5996 c 0
 506.4 -14.4004 506.4 -14.4004 506.4 -15.2002 c 0
 506.4 -38.4004 524.8 -49.5996 545.6 -49.5996 c 0
 552.8 -49.5996 560.8 -48 568 -44.7998 c 0
 569.6 -44 570.4 -44.7998 571.2 -46.4004 c 0
 577.6 -56 581.6 -66.4004 581.6 -75.2002 c 0
 581.6 -92.7998 568 -106.4 539.2 -106.4 c 0
 531.2 -106.4 521.6 -105.6 511.2 -103.2 c 1
 516 -133.6 538.4 -155.2 568 -155.2 c 0
 571.2 -155.2 574.4 -155.2 577.6 -154.4 c 0
 579.2 -154.4 580 -155.2 580 -157.6 c 0
 580 -191.2 595.2 -230.4 641.6 -239.2 c 1
 640.8 -232.8 640.8 -226.4 640.8 -220.8 c 0
 640.8 -149.6 696.8 -136.8 705.6 -69.5996 c 0
 706.4 -65.5996 706.4 -61.5996 706.4 -58.4004 c 0
 706.4 -12.7998 672.8 27.2002 620.8 32.7998 c 0
 618.4 32.7998 617.6 33.5996 617.6 35.2002 c 0
 617.6 36.7998 617.6 38.4004 617.6 39.2002 c 0
 617.6 57.5996 602.4 82.4004 579.2 82.4004 c 0
 576 82.4004 572 81.5996 568.8 80.7998 c 1
 552 92 550.4 131.2 550.4 144.8 c 0xef0180f847218a300529b8
 550.4 150.4 l 1
 550.4 249.6 l 1
 571.2 262.4 585.6 292.8 585.6 319.2 c 0
 585.6 333.6 581.6 347.2 571.2 355.2 c 1
 574.4 361.6 576 368.8 576 376 c 0
 576 395.2 564.8 415.2 548 420.8 c 1
 548 630.4 l 1
 570.4 637.6 580 656.8 580 673.6 c 0
 580 681.6 577.6 689.6 572.8 695.2 c 0
 571.2 696 571.2 698.4 572.8 699.2 c 0
 581.6 710.4 585.6 723.2 585.6 736 c 0
 585.6 757.6 573.6 777.6 550.4 786.4 c 1
 538.4 816 517.6 829.6 496 829.6 c 0
 474.4 829.6 451.2 814.4 438.4 785.6 c 1
 413.6 776.8 400.8 753.6 400.8 729.6 c 0
 400.8 717.6 404 705.6 411.2 695.2 c 0
 412.8 692 411.2 688 408 690.4 c 0
 384.8 701.6 368 704.8 349.6 704.8 c 0xef0180f8c7208830444798
 334.4 704.8 317.6 701.6 297.6 701.6 c 0
 270.4 701.6 244 720 244 749.6 c 0
 244 751.2 244 752.8 244 754.4 c 1
 209.6 744.8 188.8 716 188.8 684.8 c 0
 188.8 664.8 197.6 643.2 216.8 625.6 c 1
 212 616.8 210.4 607.2 210.4 597.6 c 0
 210.4 560 240 521.6 284 521.6 c 0
 300 521.6 316.8 526.4 335.2 537.6 c 1
 308.8 554.4 302.4 567.2 302.4 596 c 0
 302.4 616 318.4 631.2 339.2 631.2 c 0
 360 631.2 373.6 612.8 373.6 592 c 0
 373.6 571.2 368.8 553.6 350.4 532.8 c 1
 300 480.8 256 408.8 232 352.8 c 1
 198.4 352 176 324 176 300 c 0
 176 292 177.6 284.8 182.4 279.2 c 0
 184 277.6 184 275.2 180.8 274.4 c 0
 163.2 267.2 149.6 244.8 149.6 220.8 c 0
 149.6 205.6 155.2 189.6 169.6 176.8 c 1
 156.8 136.8 159.2 101.6 140 77.5996 c 1
 138.4 77.5996 136.8 77.5996 136 77.5996 c 0
 109.6 77.5996 99.2002 52 99.2002 31.2002 c 0
 99.2002 29.5996 99.2002 27.2002 99.2002 25.5996 c 1
 55.2002 16.7998 28 -20 28 -65.5996 c 0
 28 -130.4 88.7998 -170.4 88.7998 -224.8 c 0
 88.7998 -230.4 88 -236.8 86.4004 -243.2 c 1
 128.8 -234.4 154.4 -206.4 154.4 -168.8 c 0
 154.4 -165.6 153.6 -162.4 153.6 -159.2 c 0
 153.6 -157.6 154.4 -156 156.8 -156 c 0
 159.2 -156.8 162.4 -156.8 165.6 -156.8 c 0
 191.2 -156.8 223.2 -135.2 227.2 -107.2 c 1
 219.2 -108.8 210.4 -109.6 203.2 -109.6 c 0xf60280f94766a974444798
560.8 704 m 1
 541.6 713.6 516.8 718.4 492.8 718.4 c 0
 465.6 718.4 438.4 712 421.6 701.6 c 1
 413.6 712 410.4 723.2 410.4 733.6 c 0
 410.4 753.6 424.8 772.8 448 782.4 c 1
 455.2 808.8 475.2 822.4 495.2 822.4 c 0xe60080f867208830040198
 515.2 822.4 535.2 808 544 780 c 1
 560.8 775.2 576 755.2 576 735.2 c 0
 576 724 571.2 712.8 560.8 704 c 1
492 711.2 m 0xe60080fa47208830040198
 526.4 711.2 570.4 702.4 570.4 673.6 c 0
 570.4 658.4 558.4 641.6 540 636 c 1
 522.4 640 508.8 644 492 644 c 0
 489.6 644 487.2 644 484.8 644 c 0
 470.4 644 454.4 643.2 437.6 635.2 c 1
 431.2 640.8 419.2 656.8 419.2 673.6 c 0
 419.2 704 454.4 711.2 492 711.2 c 0xe60080fa47208830040198
493.6 407.2 m 0
 469.6 407.2 451.2 412 434.4 421.6 c 1
 434.4 623.2 l 1
 451.2 630.4 469.6 634.4 489.6 634.4 c 0
 509.6 634.4 520 629.6 539.2 622.4 c 1
 539.2 417.6 l 1xe60080f847208830060198
 523.2 410.4 511.2 407.2 493.6 407.2 c 0
542.4 408 m 0xe60081f847208830060198
 552.8 408 567.2 394.4 567.2 377.6 c 0
 567.2 366.4 559.2 355.2 552 352 c 0xe60081f847208830060198
 531.2 341.6 508 337.6 485.6 337.6 c 0
 462.4 337.6 441.6 342.4 427.2 349.6 c 0
 413.6 356.8 401.6 366.4 401.6 379.2 c 0
 401.6 395.2 416 410.4 429.6 410.4 c 0
 432 410.4 433.6 410.4 436 409.6 c 0
 459.2 401.6 477.6 396.8 495.2 396.8 c 0xe60082f847208830060198
 509.6 396.8 523.2 400 539.2 407.2 c 0
 540 408 541.6 408 542.4 408 c 0xe60081f847208830060198
347.2 697.6 m 0xe60080fc47208c31240198
 404 697.6 427.2 647.2 427.2 597.6 c 0
 427.2 572 419.2 544 405.6 516 c 1
 365.6 439.2 328 382.4 312.8 317.6 c 1
 310.4 317.6 308 317.6 305.6 317.6 c 0
 278.4 317.6 256.8 326.4 239.2 348 c 1
 256.8 393.6 289.6 449.6 334.4 503.2 c 0
 353.6 525.6 372 543.2 380 574.4 c 0
 381.6 580.8 382.4 587.2 382.4 592.8 c 0
 382.4 622.4 361.6 639.2 337.6 639.2 c 0
 308.8 639.2 292 617.6 292 591.2 c 0
 292 572 301.6 551.2 320.8 539.2 c 1
 307.2 532.8 294.4 530.4 283.2 530.4 c 0
 245.6 530.4 224 560.8 224 595.2 c 0
 224 606.4 226.4 619.2 232 630.4 c 1
 206.4 645.6 196.8 664.8 196.8 684 c 0
 196.8 711.2 216 736 236 744 c 1
 236 743.2 l 0
 236 713.6 266.4 693.6 301.6 693.6 c 0
 318.4 693.6 331.2 697.6 347.2 697.6 c 0xe60080fc47208c31240198
576.8 312 m 0
 570.4 284.8 558.4 264.8 540 252 c 1
 532.8 232.8 510.4 220 488.8 220 c 0
 465.6 220 441.6 233.6 436.8 253.6 c 1
 415.2 266.4 389.6 292.8 389.6 317.6 c 0
 389.6 328.8 392.8 338.4 400.8 344 c 0
 407.2 349.6 415.2 342.4 421.6 340.8 c 1
 442.4 331.2 464 326.4 486.4 326.4 c 0
 507.2 326.4 529.6 331.2 552.8 340.8 c 1xe600a4f847208830044198
 556.8 344 565.6 344.8 569.6 342.4 c 1
 575.2 336.8 577.6 328.8 577.6 321.6 c 0
 577.6 318.4 577.6 315.2 576.8 312 c 0
425.6 160 m 1xe60480f8472088b28c0198
 425.6 160 426.4 150.4 426.4 137.6 c 0
 426.4 111.2 422.4 68.7998 397.6 64.7998 c 1
 391.2 70.4004 383.2 72.7998 373.6 72.7998 c 0
 362.4 72.7998 350.4 68.7998 341.6 59.2002 c 1
 306.4 72.7998 296.8 111.2 296.8 144.8 c 0
 296.8 148 296.8 151.2 296.8 153.6 c 1
 312.8 161.6 324 185.6 324 206.4 c 0
 324 222.4 317.6 236 304 241.6 c 0
 300 243.2 300.8 247.2 304.8 248 c 0
 325.6 251.2 336 267.2 336 284.8 c 0
 336 296 331.2 308 322.4 318.4 c 1
 345.6 411.2 399.2 472.8 420 528.8 c 0
 420.8 532.8 425.6 532 425.6 528 c 2
 425.6 421.6 l 1
 404.8 416 391.2 394.4 391.2 376 c 0
 391.2 368.8 393.6 362.4 397.6 356.8 c 0
 398.4 355.2 399.2 353.6 397.6 352.8 c 0
 385.6 344 380 332 380 318.4 c 0
 380 294.4 397.6 267.2 425.6 252 c 1
 425.6 160 l 1xe60480f8472088b28c0198
560 68 m 1
 562.4 61.5996 563.2 54.4004 563.2 48 c 0
 563.2 20.7998 548 -4.7998 520 -4.7998 c 0xe61080f847208830040198
 518.4 -4.7998 516.8 -4.7998 515.2 -4.7998 c 1
 514.4 -0.799805 512 4 504.8 4 c 0
 480 4 451.2 -29.5996 419.2 -29.5996 c 0
 417.6 -29.5996 416.8 -29.5996 415.2 -29.5996 c 1
 422.4 -16 425.6 -1.59961 425.6 11.2002 c 0
 425.6 29.5996 419.2 46.4004 405.6 57.5996 c 1
 434.4 70.4004 436 131.2 436 146.4 c 0
 436 149.6 l 1
 436 232.8 l 1
 448.8 216.8 468.8 208.8 488.8 208.8 c 0
 508.8 208.8 528 216.8 540.8 232.8 c 1
 540.8 149.6 l 1
 540.8 149.6 540.8 144.8 540.8 137.6 c 0
 540.8 116.8 542.4 75.2002 560 68 c 1
577.6 72.7998 m 0
 594.4 72.7998 610.4 51.2002 610.4 28.7998 c 0
 610.4 -8.7998 584.8 -41.5996 548.8 -41.5996 c 0
 535.2 -41.5996 515.2 -34.4004 515.2 -15.2002 c 0
 515.2 -14.4004 515.2 -12.7998 515.2 -12 c 1
 518.4 -12.7998 521.6 -13.5996 524.8 -13.5996 c 0
 552 -13.5996 572 15.2002 572 46.4004 c 0xe68080f847208830041198
 572 54.4004 571.2 63.2002 568 71.2002 c 1
 571.2 72.7998 574.4 72.7998 577.6 72.7998 c 0
327.2 284.8 m 0
 327.2 258.4 292 246.4 264 246.4 c 0
 232 246.4 197.6 260.8 186.4 291.2 c 0
 185.6 294.4 184.8 297.6 184.8 300.8 c 0
 184.8 320 203.2 336.8 220.8 343.2 c 0
 221.6 343.2 222.4 344 223.2 344 c 0xe60088f847208830040198
 234.4 344 249.6 321.6 268.8 314.4 c 0
 287.2 308 313.6 313.6 320 305.6 c 0
 324 299.2 327.2 292 327.2 284.8 c 0
632 -213.6 m 0
 632 -217.6 632 -222.4 632.8 -227.2 c 1
 607.2 -219.2 590.4 -188 590.4 -153.6 c 0
 590.4 -152 590.4 -149.6 590.4 -147.2 c 1
 588 -147.2 585.6 -147.2 583.2 -147.2 c 0
 559.2 -147.2 527.2 -140 523.2 -113.6 c 1
 529.6 -115.2 536 -116 542.4 -116 c 0
 573.6 -116 591.2 -97.5996 591.2 -74.4004 c 0
 591.2 -64 588 -52.7998 580 -42.4004 c 1
 604.8 -33.5996 619.2 -4.7998 619.2 16 c 0
 619.2 18.4004 618.4 20.7998 618.4 22.4004 c 1xe62080f847208830040198
 660.8 21.5996 697.6 -16.7998 697.6 -57.5996 c 0
 697.6 -127.2 632 -142.4 632 -213.6 c 0
293.6 239.2 m 1xe60090f847208830040198
 308.8 230.4 313.6 217.6 313.6 204.8 c 0
 313.6 185.6 301.6 166.4 290.4 160 c 1
 276 129.6 256 116.8 236.8 116.8 c 0
 209.6 116.8 183.2 143.2 178.4 181.6 c 1
 164.8 191.2 158.4 206.4 158.4 220.8 c 0
 158.4 240 169.6 259.2 189.6 267.2 c 1
 210.4 244.8 236.8 236.8 264.8 236.8 c 0xe600c0f847208830040198
 274.4 236.8 284 237.6 293.6 239.2 c 1xe60090f847208830040198
415.2 7.2002 m 0xe60080f847208838040198
 415.2 -16 403.2 -44 375.2 -44 c 0
 364 -44 353.6 -38.4004 347.2 -29.5996 c 1
 356 -18.4004 360 -4.7998 360 9.59961 c 0
 360 24 355.2 39.2002 347.2 52 c 1
 352.8 60 362.4 64.7998 372 64.7998 c 0
 376.8 64.7998 381.6 63.2002 386.4 60.7998 c 0
 406.4 50.4004 415.2 32 415.2 7.2002 c 0xe60080f847208838040198
340.8 48.7998 m 1
 347.2 36.7998 351.2 24.7998 351.2 11.2002 c 0
 351.2 -0.799805 347.2 -13.5996 339.2 -26.4004 c 1
 337.6 -26.4004 336 -26.4004 333.6 -26.4004 c 0
 301.6 -26.4004 250.4 11.2002 228 18.4004 c 0
 223.2 20 220.8 20 216.8 13.5996 c 1
 212 12 208 12 203.2 12 c 0
 175.2 12 152 36.7998 148.8 73.5996 c 1
 168 96 168 137.6 174.4 164 c 1
 184.8 123.2 210.4 107.2 236 107.2 c 0xe60880f847208830040198
 256.8 107.2 276.8 118.4 287.2 136.8 c 1
 288 92.7998 300 68.7998 340.8 48.7998 c 1
204.8 3.2002 m 0
 208 3.2002 211.2 4 214.4 4 c 0
 220 4 223.2 -2.40039 223.2 -8.7998 c 0
 223.2 -11.2002 222.4 -13.5996 221.6 -16 c 0
 213.6 -30.4004 198.4 -36.7998 182.4 -36.7998 c 0xe64080f847208830040198
 140.8 -36.7998 108 -6.40039 108 34.4004 c 0
 108 36 108 36.7998 108 37.5996 c 1
 109.6 52 115.2 64.7998 129.6 69.5996 c 0
 136.8 72 142.4 64.7998 144 59.2002 c 1
 148 28 172 3.2002 204.8 3.2002 c 0
216 -116.8 m 1
 205.6 -136.8 181.6 -148 157.6 -148 c 0
 153.6 -148 149.6 -148 145.6 -147.2 c 1xe60080f847288830040198
 145.6 -187.2 132 -224.8 98.4004 -232 c 1
 98.4004 -231.2 98.4004 -231.2 98.4004 -230.4 c 0
 98.4004 -153.6 44.7998 -145.6 36.7998 -68 c 0
 36.7998 -65.5996 36.7998 -64 36.7998 -61.5996 c 0
 36.7998 -24 68 12.7998 102.4 16.7998 c 1
 105.6 -17.5996 141.6 -40 162.4 -41.5996 c 1
 152 -56.7998 147.2 -70.4004 147.2 -81.5996 c 0xe60080f847308830040198
 147.2 -104 165.6 -118.4 197.6 -118.4 c 0
 203.2 -118.4 209.6 -117.6 216 -116.8 c 1
540.8 665.6 m 0
 526.4 675.2 513.6 681.6 492.8 681.6 c 0xe60080fa47208830040198
 472 681.6 459.2 676.8 444.8 668 c 0
 440 664.8 438.4 662.4 444.8 665.6 c 0
 460.8 672.8 481.6 673.6 492.8 673.6 c 0
 505.6 673.6 523.2 671.2 540 664 c 0
 545.6 660.8 545.6 662.4 540.8 665.6 c 0
493.6 429.6 m 2xe60080f847208830060198
 493.6 608 l 2
 493.6 612.8 484.8 612.8 484.8 608 c 2
 484.8 429.6 l 2
 484.8 424.8 493.6 424.8 493.6 429.6 c 2xe60080f847208830060198
348 671.2 m 0xe60080fc47208831240198
 328.8 671.2 315.2 668.8 299.2 668.8 c 0
 283.2 668.8 269.6 668.8 257.6 674.4 c 0
 252.8 676.8 255.2 675.2 256.8 673.6 c 0
 268 664 298.4 664 308 664 c 1
 292 660.8 275.2 639.2 270.4 624 c 0
 268.8 619.2 270.4 618.4 272.8 623.2 c 0
 278.4 636.8 291.2 651.2 305.6 657.6 c 0
 317.6 662.4 330.4 664 341.6 664 c 0
 343.2 664 l 0
 375.2 664 403.2 629.6 403.2 596 c 0
 403.2 592 402.4 587.2 401.6 583.2 c 0
 376.8 489.6 304 433.6 278.4 349.6 c 0
 277.6 346.4 283.2 344 284.8 348 c 0
 309.6 432 382.4 488 407.2 580.8 c 0
 408.8 586.4 409.6 592 409.6 597.6 c 0
 409.6 633.6 381.6 671.2 348 671.2 c 0xe60080fc47208831240198
548 316.8 m 1xe600a4f8472088300c4198
 552 319.2 549.6 320.8 545.6 317.6 c 0
 527.2 305.6 512.8 295.2 488.8 295.2 c 0
 462.4 295.2 438.4 307.2 420 317.6 c 0
 416 319.2 418.4 316 420 314.4 c 0
 433.6 304 458.4 288 484 287.2 c 1
 484 243.2 l 2
 484 236 492.8 235.2 492.8 241.6 c 2
 492.8 287.2 l 1
 516.8 288 534.4 304 548 316.8 c 1xe600a4f8472088300c4198
420 160 m 1
 420 247.2 l 1
 390.4 264.8 373.6 292.8 373.6 317.6 c 0
 373.6 332 379.2 345.6 392 356 c 1
 388 362.4 385.6 370.4 385.6 377.6 c 0
 385.6 396.8 398.4 416 420 424 c 1
 420 512 l 1
 396.8 460 350.4 403.2 328.8 318.4 c 1
 337.6 308 342.4 295.2 342.4 284 c 0
 342.4 266.4 332 249.6 312.8 244 c 1
 324 235.2 328 220.8 328 205.6 c 0
 328 184 318.4 160 302.4 149.6 c 1
 302.4 116 311.2 76.7998 341.6 64.7998 c 1
 350.4 74.4004 362.4 78.4004 373.6 78.4004 c 0xe60480f8472088b28c0198
 382.4 78.4004 391.2 76 398.4 71.2002 c 1
 417.6 79.2002 420.8 120 420.8 144 c 0
 420.8 153.6 420 160 420 160 c 1
521.6 46.4004 m 0
 492.8 68 492 139.2 492 184.8 c 0
 492 188.8 484 187.2 484 184.8 c 0
 484 158.4 484 101.6 480 86.4004 c 0
 472.8 63.2002 468 40 449.6 30.4004 c 0
 444.8 27.2002 445.6 27.2002 450.4 29.5996 c 0
 472 39.2002 485.6 65.5996 489.6 97.5996 c 1
 489.6 77.5996 505.6 52.7998 520 44.7998 c 0
 524 43.2002 525.6 43.2002 521.6 46.4004 c 0
660 -71.2002 m 0
 660 -49.5996 644.8 -30.4004 625.6 -28.7998 c 0
 624 -28.7998 616 -30.4004 617.6 -33.5996 c 0
 624 -43.2002 626.4 -53.5996 626.4 -63.2002 c 0
 626.4 -86.4004 612.8 -108 596.8 -115.2 c 0
 592 -116.8 592.8 -119.2 598.4 -116.8 c 0
 614.4 -111.2 633.6 -88 633.6 -59.2002 c 0
 633.6 -53.5996 632.8 -47.2002 631.2 -43.2002 c 1
 642.4 -43.2002 652 -59.2002 652 -72.7998 c 0xe62080f8472088300401d8
 652 -103.2 624.8 -126.4 622.4 -148.8 c 0
 622.4 -153.6 624.8 -154.4 624.8 -149.6 c 0
 626.4 -127.2 660 -103.2 660 -71.2002 c 0
231.2 160 m 0
 231.2 165.6 235.2 186.4 236.8 194.4 c 1
 238.4 194.4 240.8 194.4 243.2 194.4 c 0
 256.8 194.4 272 196.8 288 201.6 c 0
 293.6 203.2 292 205.6 287.2 204.8 c 0
 277.6 202.4 268.8 201.6 260 201.6 c 0xe600c0f847208830040198
 228 201.6 206.4 208 188 230.4 c 0
 184.8 233.6 183.2 232 186.4 228 c 0
 195.2 215.2 212 200.8 228 196.8 c 1
 228 188.8 227.2 164.8 227.2 160 c 0
 227.2 155.2 231.2 155.2 231.2 160 c 0
224.8 80 m 1
 240.8 55.2002 263.2 38.4004 293.6 28.7998 c 1
 298.4 26.4004 298.4 28.7998 293.6 30.4004 c 0
 281.6 34.4004 268 46.4004 256.8 53.5996 c 1
 245.6 63.2002 238.4 72.7998 228 91.2002 c 0
 227.2 93.5996 220.8 92.7998 219.2 90.4004 c 1
 215.2 76 204.8 62.4004 193.6 55.2002 c 0
 189.6 52 189.6 51.2002 195.2 52.7998 c 1
 201.6 56 206.4 59.2002 213.6 64.7998 c 1
 218.4 69.5996 221.6 73.5996 224.8 80 c 1
131.2 -113.6 m 0
 120.8 -104.8 100 -90.4004 100 -68 c 0xe60080f847b08830040198
 100 -58.4004 103.2 -48.7998 109.6 -39.2002 c 0
 111.2 -36 104.8 -31.2002 102.4 -32.7998 c 0
 83.2002 -44 72 -58.4004 72 -80.7998 c 0
 72 -112.8 107.2 -135.2 109.6 -157.6 c 0
 109.6 -162.4 111.2 -161.6 111.2 -156 c 0
 109.6 -134.4 80 -112 80 -82.4004 c 0
 80 -68 84.7998 -57.5996 96 -48.7998 c 1
 94.4004 -53.5996 93.5996 -59.2002 93.5996 -64.7998 c 0xe60080f847a88830040198
 93.5996 -71.2002 94.4004 -77.5996 96.7998 -83.2002 c 0
 102.4 -99.2002 123.2 -108.8 129.6 -116 c 0
 133.6 -120 135.2 -117.6 131.2 -113.6 c 0
496.8 761.6 m 1xe60080f867208830060198
 497.6 789.6 l 2
 497.6 794.4 493.6 794.4 493.6 789.6 c 1
 488.8 761.6 l 1
 470.4 760.8 453.6 750.4 440.8 739.2 c 1
 436.8 736.8 438.4 735.2 442.4 738.4 c 0
 456.8 748 475.2 754.4 492.8 754.4 c 0
 508.8 754.4 526.4 748 540.8 737.6 c 0
 544.8 734.4 544.8 735.2 541.6 739.2 c 0
 530.4 752.8 511.2 760 496.8 761.6 c 1xe60080f867208830060198
552 798.4 m 0
 552 790.4 558.4 788.8 563.2 785.6 c 1
 571.2 784.8 577.6 791.2 577.6 797.6 c 0
 577.6 804.8 571.2 812 564 812 c 0xe60080f857208830040198
 557.6 812 552 804.8 552 798.4 c 0
426.4 813.6 m 0xe60080f84f208830140198
 420 813.6 414.4 807.2 414.4 801.6 c 0
 414.4 794.4 420.8 787.2 428 787.2 c 1
 430.4 788.8 432 789.6 434.4 790.4 c 1
 436 794.4 438.4 797.6 440 800.8 c 1
 440 808 432.8 813.6 426.4 813.6 c 0xe60080f84f208830140198
22.4004 -65.5996 m 0
 22.4004 -16.7998 48.7998 20 94.4004 29.5996 c 1
 94.4004 31.2002 94.4004 32 94.4004 33.5996 c 0
 94.4004 55.2002 105.6 82.4004 134.4 82.4004 c 0
 135.2 82.4004 136.8 82.4004 137.6 82.4004 c 1
 154.4 106.4 152 136.8 163.2 175.2 c 1
 148.8 188 143.2 204.8 143.2 220.8 c 0
 143.2 245.6 156.8 269.6 176 279.2 c 1
 172 285.6 169.6 293.6 169.6 300.8 c 0
 169.6 327.2 192.8 356 229.6 357.6 c 1
 252.8 413.6 296.8 485.6 346.4 536.8 c 0
 363.2 555.2 368 573.6 368 592 c 0
 368 608.8 356 625.6 339.2 625.6 c 0
 322.4 625.6 308 611.2 308 594.4 c 0
 308 568 316.8 557.6 343.2 541.6 c 0
 345.6 540.8 345.6 539.2 343.2 536.8 c 0
 320.8 521.6 300 515.2 281.6 515.2 c 0
 235.2 515.2 204.8 556.8 204.8 596 c 0
 204.8 600 204.8 604 205.6 608 c 1
 202.4 605.6 199.2 604.8 196 604.8 c 0
 187.2 604.8 180 611.2 180 620 c 0xf70280f84764c874040198
 180 628.8 187.2 636.8 196.8 636.8 c 0
 197.6 636.8 198.4 636.8 200 636.8 c 1
 188 652 182.4 669.6 182.4 685.6 c 0
 182.4 720.8 207.2 752 245.6 760.8 c 0
 248.8 761.6 249.6 760.8 249.6 758.4 c 0
 249.6 756 248.8 753.6 248.8 752 c 0
 248.8 725.6 274.4 708 297.6 708 c 0xf70280f94720a930040198
 316.8 708 332.8 710.4 348.8 710.4 c 0
 365.6 710.4 382.4 708 402.4 700 c 1
 396.8 709.6 394.4 720.8 394.4 731.2 c 0
 394.4 752.8 404.8 772.8 423.2 784.8 c 1
 416.8 786.4 411.2 793.6 411.2 801.6 c 0
 411.2 809.6 419.2 816.8 428 816.8 c 0xe60080f8cf20a930540198
 434.4 816.8 441.6 812 443.2 804.8 c 1
 457.6 826.4 477.6 837.6 496.8 837.6 c 0
 516 837.6 535.2 825.6 548.8 802.4 c 1
 550.4 809.6 557.6 814.4 564.8 814.4 c 0
 572.8 814.4 580.8 808 580.8 799.2 c 0
 580.8 792 575.2 784 568 782.4 c 1
 584 771.2 592 754.4 592 736 c 0
 592 723.2 588 709.6 578.4 696.8 c 1
 583.2 690.4 585.6 682.4 585.6 673.6 c 0
 585.6 655.2 576 635.2 552.8 626.4 c 1
 552.8 424 l 1xe60080f85720a930544598
 571.2 416 582.4 394.4 582.4 374.4 c 0
 582.4 368 580.8 361.6 578.4 356 c 1
 588 346.4 592 332.8 592 318.4 c 0
 592 291.2 577.6 260 556.8 245.6 c 1
 556.8 150.4 l 1
 556.8 150.4 556.8 147.2 556.8 143.2 c 0xe60080f857208830042398
 556.8 128.8 558.4 97.5996 569.6 85.5996 c 1
 573.6 87.2002 577.6 87.2002 581.6 87.2002 c 0
 607.2 87.2002 624 60 624 40 c 0
 624 39.2002 624 39.2002 624 38.4004 c 1
 676.8 31.2002 712 -11.2002 712 -57.5996 c 0
 712 -61.5996 712 -65.5996 711.2 -69.5996 c 0
 703.2 -136.8 645.6 -149.6 645.6 -222.4 c 0
 645.6 -228.8 646.4 -236 647.2 -243.2 c 0
 647.2 -244.8 646.4 -245.6 644 -245.6 c 0
 604 -239.2 583.2 -211.2 576.8 -180.8 c 1
 574.4 -185.6 568.8 -188 563.2 -188 c 0
 555.2 -188 548 -181.6 548 -172 c 0
 548 -167.2 549.6 -161.6 554.4 -159.2 c 1
 528 -152.8 508 -129.6 504.8 -99.2002 c 0
 504.8 -96 505.6 -95.2002 508.8 -96 c 0
 520 -99.2002 530.4 -100.8 538.4 -100.8 c 0xee0180f8572088300481b8
 562.4 -100.8 573.6 -88.7998 573.6 -74.4004 c 0
 573.6 -67.2002 571.2 -60 566.4 -52 c 1
 560 -54.4004 552.8 -56 545.6 -56 c 0
 522.4 -56 500.8 -42.4004 500.8 -16.7998 c 1
 468 -20.7998 455.2 -43.2002 416 -43.2002 c 0
 413.6 -43.2002 410.4 -43.2002 408 -43.2002 c 1
 399.2 -52 387.2 -57.5996 374.4 -57.5996 c 0
 363.2 -57.5996 351.2 -52.7998 340.8 -42.4004 c 1
 300.8 -41.5996 274.4 -17.5996 236.8 -8 c 1
 237.6 -10.4004 237.6 -12.7998 237.6 -14.4004 c 0
 237.6 -34.4004 208.8 -51.2002 184.8 -51.2002 c 0
 181.6 -51.2002 178.4 -51.2002 175.2 -50.4004 c 1
 168.8 -60.7998 164.8 -68.7998 164.8 -79.2002 c 0
 164.8 -97.5996 177.6 -104 200.8 -104 c 0
 210.4 -104 220 -102.4 230.4 -100 c 0
 233.6 -99.2002 234.4 -100 234.4 -103.2 c 0
 232 -132 205.6 -153.6 180 -160 c 1
 184 -163.2 186.4 -168 186.4 -173.6 c 0
 186.4 -178.4 184 -184 180 -187.2 c 0
 173.6 -192 163.2 -191.2 157.6 -184.8 c 1
 151.2 -217.6 124 -243.2 82.4004 -249.6 c 0
 80 -249.6 78.4004 -248.8 80 -245.6 c 0
 82.4004 -237.6 83.2002 -230.4 83.2002 -223.2 c 0xf70080f847619a300589b8
 83.2002 -168.8 22.4004 -129.6 22.4004 -65.5996 c 0
EndSplineSet
Validated: 1
EndChar

StartChar: uni0416
Encoding: 1046 1046 50
Width: 1009
VWidth: 800
Flags: MW
HStem: 14 20<90.1889 153.469 200.764 250.766 408 452.846 555.034 601 757.235 808.236 855.872 918.766> 83 87<205.71 231.958 777.002 803.579> 168 50<429.927 578.249> 177 42<182.197 285.553 723.293 826.019> 229 73<211.476 313.929 439.72 569.464 694.594 796.849> 308 103<447.6 561.4> 416 30<327.297 392.997 445.394 563.791 615.254 681.51> 539 4<258.379 273.713 735.656 750.696> 612 22<216.404 244.141 764.837 792.155> 643 7<235.59 265.589 744.285 773.551> 663 10<260.214 287.336 721.187 748.2> 701 4<101.685 115.904 893.096 907.344> 760 22<460.27 472.492 536.44 548.136> 791 8<301.681 335.942 673.721 707.394> 807 8<221.347 279.832 728.42 787.582> 823 4<439.211 456.107 552.932 570.126>
VStem: 28 7<14.558 29.3357> 89 4<713.283 728.686 781.664 797.784> 101 7<195.38 239.196> 109 8<615.932 692.13> 142 7<282.999 304.425> 160 4<-1.09508 8.92224> 177 7<463.281 502.393> 192 4<-1.07321 8> 216 7<661.448 682.462> 282 4<551.609 567.858> 321 8<169.456 219.568> 342 6<264.149 300.291> 352 7<737 770.312> 374 4<465.262 478.132> 403 8<258.39 292.909> 430 8<595 627.649> 486 4<6.31111 13.9531> 502 5<29.5999 33.9268> 518 4<5.91003 13.8304> 578 4<798.844 815.177> 608 8<717.035 754.251> 632 4<466.172 479.573> 650 7<737.234 770.312> 661 6<264.149 300.291> 681 7<170.735 221.212> 724 8<598.187 642.218> 754 8<544.458 562.467> 786 7<661.448 682.922> 813 4<-2.07321 7.9077> 825 7<463.281 502.393> 866 24<138.66 156.634> 892 8<615.932 692.13> 901 7<195.38 238.548> 916 4<713.283 728.686> 974 7<14.558 29.3357>
DStem2: 289 674 286 665 0.514107 -0.857726<5.04311 210.775 215.748 237.775> 329 683 302 673 0.517718 -0.855551<-0.0438375 182.894> 345 726 336 687 0.471108 -0.882075<26.0893 199.529> 358 737 350 735 0.463358 -0.886171<-6.41461 159.198> 570 550 585 527 0.471108 0.882075<0 169.856> 578 595 578 582 0.463358 0.886171<0 162.133> 593 523 589 478 0.517718 0.855551<-0.988098 182.447> 596 471 605 470 0.514107 0.857726<0.600053 22.1198 27.093 232.333>
AnchorPoint: "Diacritic" 509 891 basechar 0
LayerCount: 2
Fore
SplineSet
818 10 m 1x8fffffffffffe0
 818 8 817 6 817 4 c 0
 817 -3 824 -9 831 -9 c 0
 838 -9 845 -3 845 4 c 0
 845 6 844 9 842 11 c 1
 838 13 835 14 831 17 c 1
 827 14 823 12 818 10 c 1x8fffffffffffe0
491 16 m 1
 490 14 490 14 490 12 c 0
 490 5 498 -1 505 -1 c 0
 511 -1 518 5 518 12 c 0
 518 18 509 20 505 22 c 1
 501 20 496 18 491 16 c 1
166 11 m 1
 165 9 164 7 164 5 c 0
 164 -2 171 -8 178 -8 c 0
 185 -8 192 -2 192 5 c 0
 192 6 191 8 191 10 c 1
 186 12 182 14 178 17 c 1
 174 14 170 13 166 11 c 1
110 737 m 2
 99 737 93 730 93 721 c 0
 93 712 100 705 110 705 c 0
 112 705 115 705 118 706 c 1
 120 711 122 716 125 720 c 1
 125 722 125 725 124 727 c 1
 119 730 115 733 111 737 c 1
 110 737 l 2
448 823 m 0
 438 823 431 817 431 808 c 0
 431 801 436 794 442 792 c 0
 446 792 453 791 456 793 c 1
 458 799 460 804 463 809 c 1
 462 818 457 823 448 823 c 0
727 560 m 0
 727 550 734 543 744 543 c 0
 748 543 752 545 755 548 c 1
 755 554 757 559 758 566 c 0
 758 566 758 567 758 568 c 0
 752 570 747 573 743 575 c 1
 734 575 727 569 727 560 c 0
605 470 m 1
 606 462 613 461 622 461 c 1
 627 462 632 466 632 473 c 0
 632 480 626 486 618 486 c 0
 617 486 615 486 614 486 c 2
 605 470 l 1
891 706 m 1
 894 705 897 705 899 705 c 0
 909 705 916 712 916 721 c 0
 916 730 909 737 899 737 c 2
 898 737 l 0
 894 733 889 730 884 726 c 1
 883 725 883 723 883 722 c 1
 886 717 889 712 891 706 c 1
566 791 m 1
 574 794 578 799 578 807 c 0
 578 817 571 823 562 823 c 0
 552 823 546 818 546 809 c 1
 549 804 551 799 553 793 c 1
 556 791 563 792 566 791 c 1
848 784 m 0
 811 784 807 807 762 807 c 0
 738 807 714 802 702 789 c 1
 698 790 693 791 688 791 c 0
 668 791 657 773 657 750 c 0
 657 746 658 740 658 735 c 1
 578 582 l 1
 575 578 570 579 570 585 c 2
 570 630 l 2
 570 633 571 633 574 634 c 1
 594 638 602 657 602 674 c 0
 602 682 600 690 596 697 c 0
 595 698 594 701 595 702 c 0
 604 713 608 725 608 736 c 0
 608 763 584 786 550 786 c 0
 550 786 549 786 548 786 c 0
 542 808 526 820 505 820 c 0
 489 820 468 812 461 786 c 0
 460 786 459 786 458 786 c 0
 425 786 401 763 401 736 c 0
 401 725 405 713 414 702 c 0
 415 701 414 698 413 697 c 0
 409 690 407 682 407 674 c 0
 407 657 415 638 434 634 c 1
 438 633 438 633 438 630 c 2
 438 585 l 2
 438 579 434 578 430 582 c 1
 350 735 l 1
 351 740 352 746 352 750 c 0
 352 773 342 791 321 791 c 0
 317 791 312 790 306 789 c 1
 294 802 271 807 247 807 c 0
 202 807 198 784 161 784 c 0
 137 784 116 792 99 806 c 1
 96 802 94 797 94 790 c 0
 94 769 112 740 134 730 c 0
 138 729 138 726 136 724 c 0
 122 705 117 683 117 658 c 0
 117 647 118 634 120 621 c 0
 129 566 184 541 184 478 c 0
 184 474 184 469 183 463 c 1
 224 474 246 506 246 539 c 0
 246 549 245 558 241 568 c 0
 239 571 241 572 243 574 c 1
 267 581 277 598 277 617 c 0
 277 626 274 638 270 648 c 1
 262 645 254 643 248 643 c 0
 227 643 216 657 216 671 c 0
 216 683 224 696 242 701 c 0
 246 702 248 702 248 699 c 0
 248 683 262 673 278 673 c 0
 282 673 285 673 289 674 c 1
 405 484 l 1
 408 481 410 475 413 471 c 1
 409 466 405 460 403 455 c 1
 316 455 207 408 194 339 c 1
 163 335 149 312 149 280 c 1
 122 272 108 244 108 218 c 0
 108 210 109 201 112 194 c 1
 100 133 80 82 39 30 c 0
 37 28 35 25 35 22 c 0
 35 18 37 16 39 14 c 0
 55 6 64 3 77 3 c 0
 123 3 145 10 179 26 c 1
 210 8 243 3 270 3 c 0
 280 3 286 5 296 12 c 0
 298 13 301 16 300 18 c 0
 292 42 284 91 282 128 c 1
 307 137 321 166 321 195 c 0
 321 207 318 220 314 231 c 1
 332 244 342 262 342 282 c 0
 342 296 337 310 326 323 c 1
 342 350 395 368 430 368 c 0
 433 368 434 366 434 364 c 2
 434 316 l 1
 420 305 411 291 411 276 c 0
 411 266 415 255 422 243 c 1
 398 230 383 202 383 176 c 0
 383 163 386 151 394 142 c 1
 386 102 370 59 336 20 c 0
 335 18 336 14 339 13 c 0
 354 4 370 3 390 3 c 0
 422 3 477 16 502 31 c 1
 502 33 502 34 506 34 c 0
 506 34 507 33 507 31 c 1
 532 16 586 3 619 3 c 0
 639 3 655 4 670 13 c 0
 673 14 674 18 673 20 c 0
 639 59 622 102 614 142 c 1
 622 151 626 163 626 176 c 0
 626 202 611 230 586 243 c 1
 594 255 598 266 598 276 c 0
 598 291 589 305 575 316 c 1
 575 364 l 2
 575 366 576 368 579 368 c 0
 614 368 666 350 682 323 c 1
 672 310 667 296 667 282 c 0
 667 262 677 244 695 231 c 1
 690 220 688 207 688 195 c 0
 688 166 702 137 726 128 c 1
 725 91 717 42 709 18 c 0
 708 16 711 13 713 12 c 0
 722 5 729 3 739 3 c 0
 766 3 798 8 830 26 c 1
 865 10 886 3 932 3 c 0
 945 3 954 6 970 14 c 0
 972 16 974 18 974 22 c 0
 974 25 972 28 970 30 c 0
 930 82 909 133 897 194 c 1
 900 201 901 210 901 218 c 0xafffffffffffe0
 901 244 887 272 861 280 c 1
 861 312 846 335 815 339 c 1
 802 408 694 455 606 455 c 1
 604 460 600 466 596 471 c 1
 720 674 l 1
 724 673 727 673 731 673 c 0
 746 673 761 683 761 699 c 0
 761 702 763 702 767 701 c 0
 785 696 793 683 793 671 c 0
 793 657 782 643 761 643 c 0
 754 643 747 645 738 648 c 1
 734 638 732 626 732 617 c 0
 732 598 742 581 766 574 c 1
 768 572 770 571 768 568 c 0
 764 558 762 549 762 539 c 0
 762 506 785 474 826 463 c 1
 825 469 825 474 825 478 c 0
 825 541 880 566 889 621 c 0
 890 634 892 647 892 658 c 0
 892 683 887 705 873 724 c 1
 868 729 883 735 886 738 c 0
 904 750 914 773 914 790 c 0
 914 796 913 802 910 806 c 1
 892 792 873 784 848 784 c 0
266 543 m 0
 275 543 282 550 282 560 c 0
 282 570 275 575 266 575 c 1
 262 573 257 570 251 568 c 0
 251 567 250 566 250 566 c 0
 252 559 254 554 254 548 c 1
 257 545 262 543 266 543 c 0
754 800 m 0
 799 800 813 775 850 775 c 0
 873 775 894 783 906 793 c 1
 906 789 l 2
 906 765 878 737 854 733 c 1
 876 702 882 683 882 658 c 0
 882 647 881 635 879 621 c 0
 870 563 816 553 816 477 c 2
 816 475 l 1
 792 485 774 512 774 539 c 0
 774 552 777 564 786 574 c 1
 761 579 742 592 742 615 c 0
 742 622 743 629 746 637 c 1
 753 634 758 634 765 634 c 0
 786 634 802 648 802 672 c 0
 802 690 792 703 767 711 c 1
 766 742 747 774 711 785 c 1
 722 796 738 800 754 800 c 0
756 715 m 0
 756 695 748 681 728 681 c 0
 724 681 719 682 714 682 c 1
 714 686 l 2
 714 708 693 729 669 734 c 1
 667 739 666 745 666 750 c 0
 666 767 674 782 689 782 c 0
 690 782 692 782 694 782 c 0
 712 778 735 769 747 747 c 0
 753 736 756 726 756 715 c 0
598 731 m 0
 598 723 597 708 587 708 c 0
 586 708 584 708 582 709 c 0
 554 720 530 725 505 725 c 0
 478 725 454 720 426 709 c 0
 425 708 423 708 422 708 c 0
 412 708 410 723 410 731 c 0
 410 764 443 782 469 782 c 1
 474 806 490 811 505 811 c 0
 518 811 535 806 540 782 c 1
 566 782 598 764 598 731 c 0
707 673 m 1
 589 478 l 1
 570 489 l 1
 570 550 l 1
 664 726 l 1
 691 721 706 698 707 673 c 1
438 641 m 1
 423 643 415 657 415 673 c 0
 415 685 420 695 430 700 c 0
 454 712 477 716 505 716 c 0
 532 716 556 712 579 700 c 0
 589 695 594 685 594 673 c 0
 594 657 586 643 570 641 c 1
 548 652 522 653 505 653 c 0
 490 653 461 652 438 641 c 1
559 493 m 1
 542 499 523 502 505 502 c 0
 490 502 466 499 450 493 c 1
 450 633 l 1
 462 639 486 643 505 643 c 0
 522 643 546 639 559 633 c 1
 559 493 l 1
802 342 m 1
 792 330 774 311 744 311 c 0
 730 311 712 316 691 327 c 1
 666 363 622 374 576 377 c 1
 576 394 l 1
 594 399 608 416 608 434 c 0
 608 438 607 442 606 446 c 1
 609 446 612 446 615 446 c 0
 688 446 794 398 802 342 c 1
812 330 m 0
 833 330 850 311 850 293 c 0
 850 286 847 278 842 270 c 0
 824 245 798 229 756 229 c 0
 734 229 717 234 703 242 c 0
 688 250 678 263 678 286 c 0
 678 301 687 314 698 314 c 0
 700 314 702 313 704 312 c 0
 714 307 730 302 746 302 c 0
 770 302 785 311 798 325 c 0
 802 328 806 330 812 330 c 0
281 681 m 0
 262 681 253 696 253 715 c 0
 253 726 256 736 262 747 c 0
 274 769 297 778 316 782 c 0
 318 782 319 782 321 782 c 0
 335 782 343 767 343 750 c 0
 343 745 342 739 340 734 c 1
 315 729 294 707 294 685 c 0
 294 684 294 683 294 682 c 0
 289 682 285 681 281 681 c 0
439 489 m 1
 420 478 l 1
 302 673 l 1
 302 698 318 721 345 726 c 1
 439 550 l 1
 439 489 l 1
891 221 m 0
 891 192 878 171 857 158 c 1
 858 151 858 144 858 138 c 0
 858 109 842 83 812 83 c 0
 793 83 778 98 767 122 c 1
 750 124 730 133 717 145 c 0
 704 155 698 174 698 194 c 0
 698 208 700 227 712 227 c 0
 714 227 714 226 716 226 c 0
 730 222 744 219 758 219 c 0xdfffffffffffe0
 802 219 830 238 851 263 c 0
 857 270 867 266 872 261 c 0
 883 250 891 238 891 221 c 0
410 438 m 0
 410 478 465 492 505 492 c 0
 527 492 552 488 570 478 c 0
 585 469 598 455 598 438 c 0
 598 415 584 407 567 399 c 1
 550 413 527 420 505 420 c 0
 481 420 458 413 442 399 c 1
 425 407 410 415 410 438 c 0
813 74 m 0
 849 74 869 103 869 134 c 0
 869 140 868 146 866 152 c 1
 877 158 885 169 890 183 c 1
 896 140 926 69 962 22 c 1
 954 17 937 14 918 14 c 0
 890 14 857 20 830 35 c 1
 807 20 772 11 747 11 c 0
 733 11 722 14 718 20 c 1
 729 48 734 90 735 122 c 1
 746 118 752 115 762 114 c 1
 769 93 786 74 813 74 c 0
563 319 m 1
 546 310 527 308 505 308 c 0
 482 308 463 310 446 319 c 1
 446 388 l 1
 461 403 482 411 505 411 c 0
 526 411 548 403 563 388 c 1
 563 319 l 1
159 775 m 0
 196 775 210 800 254 800 c 0
 270 800 286 796 298 785 c 1
 262 774 243 742 242 711 c 1
 218 703 206 690 206 672 c 0
 206 648 223 634 244 634 c 0
 250 634 256 634 262 637 c 1
 266 629 267 622 267 615 c 0
 267 592 247 579 222 574 c 1
 232 564 235 552 235 539 c 0
 235 512 217 485 193 475 c 1
 193 477 l 2
 193 553 138 563 130 621 c 0
 128 635 126 647 126 658 c 0
 126 683 133 702 154 733 c 1
 130 737 103 765 103 789 c 2
 103 793 l 1
 115 783 136 775 159 775 c 0
584 266 m 0
 582 239 534 228 506 228 c 0
 478 228 427 238 425 266 c 0
 424 270 424 273 424 276 c 0
 424 292 432 302 446 310 c 1
 464 303 486 299 505 299 c 0
 523 299 545 303 563 310 c 1
 577 302 585 292 585 276 c 0
 585 273 585 270 584 266 c 0
433 377 m 1
 386 374 342 363 318 327 c 1
 297 316 279 311 265 311 c 0
 235 311 217 330 206 342 c 1
 214 398 321 446 394 446 c 0
 397 446 400 446 403 446 c 1
 402 442 401 438 401 434 c 0
 401 416 415 399 433 394 c 1
 433 377 l 1
614 180 m 0
 614 152 594 135 568 131 c 1
 558 98 532 85 505 83 c 1
 477 85 450 98 438 131 c 1
 414 134 394 154 394 180 c 0
 394 196 403 210 411 219 c 0xdfffffffffffe0
 417 225 422 231 434 231 c 0
 437 231 442 230 446 229 c 0
 466 222 486 218 506 218 c 0xafffffffffffe0
 526 218 542 222 562 229 c 0
 567 230 572 231 575 231 c 0
 586 231 592 225 598 219 c 0
 606 210 614 197 614 180 c 0
658 25 m 1
 661 22 657 16 649 14 c 1
 640 14 631 13 622 13 c 0
 582 13 542 25 505 46 c 1
 467 25 426 13 386 13 c 0
 378 13 369 14 360 14 c 1
 352 16 348 22 351 25 c 1
 382 63 390 82 403 136 c 1
 414 130 422 123 433 121 c 1
 445 94 472 74 505 74 c 0
 538 74 565 94 576 122 c 1
 586 124 597 130 606 136 c 1
 619 82 627 63 658 25 c 1
158 293 m 0
 158 311 176 330 197 330 c 0
 202 330 207 328 210 325 c 0
 224 311 238 302 263 302 c 0
 278 302 295 307 305 312 c 0
 306 313 309 314 310 314 c 0
 322 314 331 301 331 286 c 0
 331 263 321 250 306 242 c 0
 292 234 275 229 253 229 c 0
 210 229 185 244 167 270 c 0
 162 278 158 286 158 293 c 0
197 83 m 0
 166 83 150 108 150 137 c 0
 150 143 151 150 153 158 c 1
 132 170 118 195 118 218 c 0xafffffffffffe0
 118 234 123 249 137 261 c 0
 142 266 153 270 158 263 c 0
 178 238 207 219 250 219 c 0
 266 219 278 222 293 226 c 0
 294 226 295 227 297 227 c 0
 309 227 311 208 311 194 c 0
 311 174 305 155 292 145 c 0
 278 133 258 124 242 122 c 1
 230 98 216 83 197 83 c 0
140 134 m 0
 140 103 160 74 196 74 c 0
 222 74 240 93 246 114 c 1
 257 115 262 118 274 122 c 1
 275 90 280 48 291 20 c 1
 286 14 276 11 262 11 c 0
 237 11 202 20 179 35 c 1
 152 20 118 14 91 14 c 0
 72 14 55 17 46 22 c 1
 84 69 113 140 118 183 c 1
 124 169 132 158 142 152 c 1
 141 146 140 140 140 134 c 0
812 746 m 1
 815 746 818 746 822 746 c 0
 842 746 863 754 871 760 c 0
 875 763 874 764 870 762 c 0
 855 756 844 754 831 753 c 1
 811 753 803 754 786 760 c 0
 782 762 780 752 785 750 c 0
 817 737 834 706 837 673 c 1
 837 652 827 633 817 624 c 0
 811 618 794 612 782 612 c 0
 778 612 776 612 774 613 c 0
 769 614 766 610 772 609 c 0
 777 607 781 606 786 606 c 0
 806 606 827 620 834 633 c 1
 826 604 806 578 803 544 c 0
 802 539 806 539 806 544 c 0
 811 590 849 616 849 663 c 0
 849 695 832 727 812 746 c 1
566 739 m 0
 548 752 526 759 506 760 c 1
 506 790 l 2
 506 794 503 794 503 790 c 2
 501 760 l 1
 481 759 461 752 442 739 c 0
 438 737 436 731 441 734 c 0
 461 746 483 751 505 751 c 0
 526 751 546 746 566 735 c 0
 570 734 570 738 566 739 c 0
681 683 m 2
 683 688 675 692 673 687 c 2
 585 527 l 2
 582 522 590 518 593 523 c 2
 681 683 l 2
508 520 m 2
 508 626 l 2
 508 630 501 630 501 626 c 2
 501 520 l 2
 501 515 508 515 508 520 c 2
743 346 m 0
 734 363 724 378 698 394 c 0
 675 407 642 414 619 416 c 0
 614 416 614 409 619 408 c 0
 640 406 674 400 694 386 c 0
 717 372 728 357 738 342 c 0
 741 338 746 342 743 346 c 0
424 527 m 2
 336 687 l 2
 334 692 326 688 329 683 c 2
 416 523 l 2
 419 518 426 522 424 527 c 2
862 220 m 0
 866 227 862 229 858 223 c 0
 846 202 814 177 777 177 c 0
 758 177 739 182 728 187 c 1
 722 189 718 187 725 183 c 0
 737 177 762 170 783 170 c 0
 787 170 791 170 795 170 c 1xdfffffffffffe0
 801 160 802 152 806 141 c 1
 808 131 810 126 811 117 c 0
 812 111 817 111 816 118 c 0
 814 135 811 157 806 172 c 1
 830 180 854 202 862 220 c 0
570 439 m 0
 554 451 529 458 504 458 c 0
 480 458 456 452 441 441 c 0
 437 438 441 432 445 434 c 0
 460 445 482 450 505 450 c 0
 528 450 551 445 566 434 c 0
 570 430 574 437 570 439 c 0
742 38 m 0
 742 30 750 26 757 26 c 0
 762 26 768 29 770 34 c 1
 778 34 790 36 799 39 c 0
 816 45 818 50 829 57 c 1
 846 45 878 34 906 34 c 1
 909 28 914 26 919 26 c 0
 926 26 934 30 934 38 c 0
 934 47 927 53 920 53 c 0
 913 53 905 47 906 38 c 1
 878 41 850 50 834 65 c 1
 831 65 825 64 823 65 c 1
 814 57 814 54 798 46 c 0
 789 42 782 40 770 39 c 1
 769 46 764 52 757 52 c 0
 748 52 742 45 742 38 c 0
508 323 m 2
 508 394 l 2
 508 398 501 398 501 394 c 2
 501 323 l 2
 501 318 508 318 508 323 c 2
227 612 m 0
 193 612 172 637 172 673 c 1
 175 706 192 737 224 750 c 0
 229 752 227 762 222 760 c 0
 206 754 198 753 178 753 c 1
 165 754 154 756 140 762 c 0
 134 764 134 763 138 760 c 0
 146 754 166 746 187 746 c 0
 190 746 194 746 197 746 c 1
 177 727 161 696 161 665 c 0
 161 616 198 590 202 544 c 1
 204 539 206 539 206 544 c 0
 202 578 183 604 174 633 c 1
 182 620 203 606 222 606 c 0
 227 606 232 607 237 609 c 0
 243 610 240 614 234 613 c 0
 232 612 230 612 227 612 c 0
390 408 m 0
 394 409 394 416 390 416 c 0
 366 414 334 407 310 394 c 0
 285 378 275 363 266 346 c 0
 263 342 269 338 271 342 c 0
 282 357 292 372 314 386 c 0
 335 400 369 406 390 408 c 0
408 42 m 1
 407 49 401 54 393 54 c 0
 386 54 381 46 381 40 c 0
 381 34 384 29 390 26 c 1
 398 25 408 29 408 36 c 2
 408 38 l 1
 447 38 476 47 506 63 c 1
 532 46 563 38 601 38 c 1
 601 36 l 2
 601 29 610 25 618 26 c 1
 626 29 630 35 628 42 c 1
 627 50 619 55 612 53 c 1
 606 52 602 47 601 42 c 1
 563 45 536 54 508 70 c 1
 507 71 506 71 505 71 c 0
 502 71 502 71 501 70 c 1
 473 54 446 45 408 42 c 1
284 183 m 0
 290 187 287 189 282 187 c 0
 270 182 251 177 232 177 c 0
 195 177 164 202 150 223 c 0
 146 229 144 227 146 220 c 1
 155 202 179 180 204 172 c 1
 198 156 194 136 193 118 c 0
 192 111 197 111 198 117 c 0
 202 134 206 154 214 170 c 1
 218 170 222 170 226 170 c 0
 247 170 272 177 284 183 c 0
89 53 m 0
 82 53 75 47 75 38 c 0
 75 30 82 26 90 26 c 0
 94 26 100 28 102 34 c 1
 130 34 162 45 180 57 c 1
 190 50 193 45 210 39 c 0
 218 36 230 34 239 34 c 1
 241 29 246 26 251 26 c 0
 259 26 266 30 266 38 c 0
 266 47 259 53 250 52 c 0
 244 51 240 45 239 39 c 1
 226 40 220 42 210 46 c 0
 194 54 194 57 186 65 c 1
 184 64 178 65 175 65 c 1
 159 50 130 41 103 38 c 1
 104 47 97 53 89 53 c 0
508 162 m 1
 540 162 570 172 587 190 c 1
 590 194 589 197 585 193 c 0
 568 176 536 168 505 168 c 0xafffffffffffe0
 473 168 441 176 422 193 c 0
 419 197 417 194 420 191 c 0
 437 172 468 162 501 162 c 1
 502 113 l 2
 502 108 506 108 506 113 c 2
 508 162 l 1
920 720 m 0
 920 709 910 701 900 701 c 0
 898 701 895 702 893 702 c 1
 898 688 900 674 900 658 c 0
 900 646 898 634 897 621 c 0
 888 566 832 542 832 481 c 0
 832 474 833 467 834 460 c 0
 836 456 834 454 830 454 c 0
 780 463 754 500 754 538 c 0
 754 540 754 542 754 543 c 1
 750 540 746 539 743 539 c 0
 732 539 723 551 723 562 c 0
 723 570 727 578 738 579 c 1
 729 589 724 602 724 617 c 0
 724 629 727 642 732 655 c 0
 733 657 734 659 737 657 c 1
 746 652 753 650 760 650 c 0
 775 650 786 661 786 672 c 0
 786 680 781 689 768 694 c 1
 767 677 750 663 732 663 c 0
 729 663 726 664 722 665 c 1
 617 490 l 2
 618 490 l 0
 628 490 636 483 636 473 c 0
 636 468 633 463 629 460 c 1
 712 454 806 410 822 345 c 1
 854 339 866 318 867 284 c 1
 894 274 908 242 908 215 c 0
 908 207 907 200 905 194 c 1
 917 133 937 83 975 35 c 0
 978 31 981 26 981 21 c 0
 981 16 979 12 975 10 c 0
 958 -2 943 -4 926 -4 c 0
 894 -4 867 1 848 9 c 1
 849 7 849 6 849 4 c 0
 849 -5 840 -13 831 -13 c 0
 822 -13 813 -5 813 4 c 0
 813 6 813 6 814 8 c 1
 789 -2 739 -5 739 -5 c 1
 726 -5 721 -3 709 4 c 0
 701 8 700 13 701 21 c 1
 709 44 718 86 718 123 c 1
 694 137 681 166 681 194 c 0
 681 206 682 218 687 229 c 1
 670 242 661 262 661 282 c 0
 661 296 666 310 674 323 c 1
 661 345 614 358 583 360 c 1
 583 318 l 1
 598 307 606 294 606 278 c 0
 606 268 602 257 595 245 c 1
 619 230 634 203 634 177 c 0
 634 164 630 151 622 140 c 1
 630 100 647 62 678 25 c 0
 682 21 682 9 674 5 c 0
 657 -4 642 -5 619 -5 c 0
 590 -5 550 3 522 14 c 1
 522 14 522 13 522 12 c 0
 522 2 514 -5 505 -5 c 0
 494 -5 486 2 486 12 c 0
 486 14 l 1
 458 3 418 -5 390 -5 c 0
 366 -5 352 -4 335 5 c 0
 327 9 327 21 331 25 c 0
 362 62 378 100 386 140 c 1
 378 151 374 164 374 177 c 0x9fffffffffffe0
 374 203 390 230 414 245 c 1
 406 257 403 268 403 278 c 0
 403 294 411 307 426 318 c 1
 426 360 l 1
 394 358 348 345 334 323 c 1
 343 310 348 296 348 282 c 0
 348 262 339 242 322 229 c 1
 326 218 329 206 329 194 c 0
 329 166 315 137 290 123 c 1
 291 86 300 44 308 21 c 1
 309 13 308 8 300 4 c 0
 288 -3 282 -5 270 -5 c 0
 249 -5 221 -2 196 8 c 1
 196 6 196 6 196 5 c 0
 196 -4 186 -12 178 -12 c 0
 169 -12 160 -4 160 5 c 0
 160 6 160 7 161 9 c 1
 142 1 114 -4 82 -4 c 0
 66 -4 50 -2 34 10 c 0
 30 12 28 16 28 21 c 0
 28 26 30 31 34 35 c 0
 72 83 93 133 104 194 c 1
 102 200 101 207 101 215 c 0
 101 242 114 274 142 284 c 1
 142 318 155 339 186 345 c 1
 202 411 297 454 380 460 c 1
 377 463 374 467 374 472 c 0
 374 482 382 490 392 490 c 1
 286 665 l 1
 283 664 280 663 277 663 c 0
 259 663 242 677 241 694 c 1
 229 689 223 680 223 672 c 0
 223 661 234 650 250 650 c 0
 256 650 264 652 273 657 c 1
 274 659 276 657 278 655 c 1
 282 642 285 629 285 618 c 0
 285 602 281 590 270 579 c 1
 280 578 286 569 286 560 c 0
 286 550 278 539 266 539 c 0
 262 539 258 541 254 543 c 1
 254 542 254 540 254 538 c 0
 254 500 229 463 179 454 c 0
 175 454 173 456 174 460 c 0
 176 467 177 474 177 481 c 0
 177 542 121 566 112 621 c 0
 110 634 109 646 109 658 c 0
 109 674 111 688 116 702 c 1
 114 702 111 701 109 701 c 0
 98 701 89 709 89 720 c 0
 89 731 98 740 108 741 c 1
 95 755 88 774 88 790 c 0
 88 800 90 809 96 814 c 1
 98 815 100 815 102 814 c 1
 117 802 140 791 165 791 c 0
 198 791 204 815 249 815 c 0
 275 815 298 808 309 797 c 1
 314 798 318 799 323 799 c 0
 346 799 359 778 359 752 c 0
 359 747 358 742 358 737 c 1
 430 595 l 1
 430 626 l 1
 409 634 400 655 400 675 c 0
 400 684 402 693 405 700 c 1
 396 712 393 725 393 736 c 0
 393 762 410 783 437 790 c 1
 431 794 427 800 427 807 c 0
 427 818 437 827 448 827 c 0
 458 827 465 821 467 813 c 1
 477 824 491 828 505 828 c 0
 518 828 531 824 542 814 c 1
 544 821 553 827 562 827 c 0
 572 827 582 818 582 807 c 0
 582 800 578 794 572 790 c 1
 599 783 616 762 616 736 c 0
 616 725 613 712 604 700 c 1
 607 693 609 684 609 675 c 0
 609 655 600 634 578 626 c 1
 578 595 l 1
 651 737 l 1
 650 742 650 747 650 752 c 0
 650 778 663 799 686 799 c 0
 690 799 695 798 700 797 c 1
 711 808 734 815 760 815 c 0
 805 815 810 791 844 791 c 0
 869 791 891 802 906 814 c 1
 909 815 910 815 913 814 c 1
 918 809 921 800 921 790 c 0
 921 774 914 755 901 741 c 1
 912 740 920 731 920 720 c 0
392 486 m 0
 386 486 378 479 378 472 c 0
 378 466 382 462 386 460 c 1
 390 461 397 460 399 461 c 1
 401 464 402 465 405 469 c 1
 395 486 l 1
 394 486 393 486 392 486 c 0
EndSplineSet
Validated: 19841
EndChar

